<svg width="28" height="28" viewBox="0 0 28 28" fill="none" xmlns="http://www.w3.org/2000/svg">
<path fill-rule="evenodd" clip-rule="evenodd" d="M2.33334 9.33301C2.33334 5.46702 5.46735 2.33301 9.33334 2.33301H18.6667C22.5327 2.33301 25.6667 5.46702 25.6667 9.33301V18.6663C25.6667 22.5323 22.5327 25.6663 18.6667 25.6663H9.33334C5.46735 25.6663 2.33334 22.5323 2.33334 18.6663V9.33301ZM9.33334 4.66634C6.75602 4.66634 4.66668 6.75568 4.66668 9.33301V18.6663C4.66668 21.2437 6.75602 23.333 9.33334 23.333H18.6667C21.244 23.333 23.3333 21.2437 23.3333 18.6663V9.33301C23.3333 6.75568 21.244 4.66634 18.6667 4.66634H9.33334ZM11.6667 13.9997C11.6667 15.2883 12.7113 16.333 14 16.333C15.2887 16.333 16.3333 15.2883 16.3333 13.9997C16.3333 12.711 15.2887 11.6663 14 11.6663C12.7113 11.6663 11.6667 12.711 11.6667 13.9997ZM14 9.33301C11.4227 9.33301 9.33334 11.4223 9.33334 13.9997C9.33334 16.577 11.4227 18.6663 14 18.6663C16.5773 18.6663 18.6667 16.577 18.6667 13.9997C18.6667 11.4223 16.5773 9.33301 14 9.33301ZM19.25 6.99967C18.2835 6.99967 17.5 7.78318 17.5 8.74967C17.5 9.71617 18.2835 10.4997 19.25 10.4997C20.2165 10.4997 21 9.71617 21 8.74967C21 7.78318 20.2165 6.99967 19.25 6.99967Z" fill="white"/>
</svg>
