<svg width="28" height="28" viewBox="0 0 28 28" fill="none" xmlns="http://www.w3.org/2000/svg">
<path fill-rule="evenodd" clip-rule="evenodd" d="M7.00001 2.33301C4.42268 2.33301 2.33334 4.42235 2.33334 6.99968V20.9997C2.33334 23.577 4.42268 25.6663 7.00001 25.6663H21C23.5773 25.6663 25.6667 23.577 25.6667 20.9997V6.99967C25.6667 4.42235 23.5773 2.33301 21 2.33301H7.00001ZM4.66668 6.99968C4.66668 5.71101 5.71135 4.66634 7.00001 4.66634H21C22.2887 4.66634 23.3333 5.71101 23.3333 6.99967V20.9997C23.3333 22.2883 22.2887 23.333 21 23.333H7.00001C5.71135 23.333 4.66668 22.2883 4.66668 20.9997V6.99968ZM9.34902 19.833C8.61402 19.833 8.16668 19.343 8.16668 18.608V11.678C8.16668 10.943 8.61402 10.4997 9.34902 10.4997C10.084 10.4997 10.5157 10.943 10.5157 11.678V18.6663C10.5157 19.4013 10.084 19.833 9.34902 19.833ZM8.18035 8.16634C8.18035 7.52201 8.70268 6.99967 9.34702 6.99967C9.99135 6.99967 10.5137 7.52201 10.5137 8.16634C10.5137 8.81067 9.99135 9.33301 9.34702 9.33301C8.70268 9.33301 8.18035 8.81067 8.18035 8.16634ZM12.847 19.833C12.112 19.833 11.7031 19.343 11.7031 18.608V11.678C11.7031 10.943 12.112 10.4997 12.847 10.4997C13.582 10.4997 14.0137 10.9313 14.0137 11.6663C14.6262 10.8788 14.9995 10.4997 16.347 10.4997C18.097 10.4997 19.847 11.8472 19.847 13.9997V18.6663C19.847 19.4013 19.4153 19.833 18.6803 19.833C17.9453 19.833 17.5137 19.343 17.5137 18.608V14.583C17.5137 13.323 16.6006 12.833 15.7637 12.833C14.7487 12.833 14.0137 13.323 14.0137 14.583V18.5905C14.0137 19.3255 13.582 19.833 12.847 19.833Z" fill="white"/>
</svg>
