<svg width="28" height="28" viewBox="0 0 28 28" fill="none" xmlns="http://www.w3.org/2000/svg">
<path fill-rule="evenodd" clip-rule="evenodd" d="M5.83333 4.66699C3.90033 4.66699 2.33333 6.234 2.33333 8.16699V19.8337C2.33333 21.7667 3.90033 23.3337 5.83333 23.3337H22.1667C24.0997 23.3337 25.6667 21.7667 25.6667 19.8337V8.16699C25.6667 6.234 24.0997 4.66699 22.1667 4.66699H5.83333ZM4.7732 7.67925C4.95788 7.2785 5.36312 7.00033 5.83333 7.00033H22.1667C22.6369 7.00033 23.0421 7.2785 23.2268 7.67925L14.7163 14.2986C14.295 14.6262 13.705 14.6262 13.2837 14.2986L4.7732 7.67925ZM4.66666 10.5524V17.3428L8.88138 13.8305L4.66666 10.5524ZM4.76338 20.2995C4.94322 20.712 5.3546 21.0003 5.83333 21.0003H22.1667C22.6454 21.0003 23.0568 20.712 23.2366 20.2995L17.2334 15.2968L16.1488 16.1404C14.8849 17.1234 13.1151 17.1234 11.8512 16.1404L10.7666 15.2968L4.76338 20.2995ZM23.3333 17.3428V10.5524L19.1186 13.8305L23.3333 17.3428Z" fill="white"/>
</svg>
