<svg width="28" height="28" viewBox="0 0 28 28" fill="none" xmlns="http://www.w3.org/2000/svg">
<path fill-rule="evenodd" clip-rule="evenodd" d="M7.35439 4.66392C7.35442 4.6639 7.35471 4.66421 7.35518 4.66491L7.35439 4.66392ZM7.40463 4.74358L9.74644 8.46971C9.46346 8.738 9.15479 9.00374 8.8226 9.28973C8.53708 9.53553 8.23419 9.7963 7.91529 10.0865C7.12489 10.8058 6.97222 11.9626 7.48376 12.8629C10.1888 17.6236 13.8783 19.7898 15.5292 20.5676C16.5237 21.0361 17.6043 20.6664 18.2058 19.9006L19.8264 17.8379C19.8274 17.8366 19.8273 17.837 19.8266 17.8373C19.8266 17.8374 19.8277 17.8367 19.8301 17.8363C19.8326 17.8359 19.8351 17.8359 19.8371 17.8363C19.8385 17.8366 19.8406 17.8371 19.844 17.8392C20.7883 18.422 22.1057 19.214 23.3158 19.8846C23.0985 21.1967 22.5992 21.961 22.0488 22.4283C21.4707 22.919 20.7233 23.1773 19.8895 23.2705C18.2249 23.4566 16.535 22.9517 16.1602 22.8286C15.7466 22.6172 13.4791 21.4236 11.0567 19.4895C8.55877 17.4951 6.05403 14.8372 5.0961 11.7887C4.396 9.56085 4.65999 7.9931 5.21024 6.91169C5.74218 5.86629 6.603 5.15674 7.40463 4.74358ZM6.55749 2.5383C7.66108 2.01487 8.80223 2.56062 9.33376 3.40637L11.7836 7.30444C12.2789 8.09249 12.3129 9.24451 11.5077 10.0337C11.1626 10.3719 10.6825 10.7876 10.2358 11.1744C9.99053 11.3868 9.75534 11.5904 9.55805 11.7678C11.8861 15.8216 14.9987 17.6972 16.4143 18.383L17.9902 16.3771C18.7342 15.43 20.0589 15.2087 21.0677 15.8313C22.001 16.4073 23.2911 17.1825 24.4603 17.8298C25.2401 18.2615 25.7978 19.1615 25.6398 20.1776C25.3559 22.0026 24.6146 23.3318 23.558 24.2287C22.5192 25.1106 21.2817 25.4848 20.148 25.6116C17.9183 25.8609 15.7856 25.1857 15.3961 25.0553C15.2975 25.0223 15.2157 24.9874 15.1277 24.9428C14.7096 24.7304 12.2457 23.4456 9.60185 21.3347C6.98552 19.2458 4.03492 16.2241 2.86432 12.4989C2.00446 9.76261 2.25882 7.54394 3.12679 5.83814C3.97955 4.16224 5.36054 3.10601 6.55749 2.5383Z" fill="white"/>
</svg>
