<svg width="28" height="28" viewBox="0 0 28 28" fill="none" xmlns="http://www.w3.org/2000/svg">
<path d="M7 15.8946L9.67939 23.3065C9.67939 23.3065 10.0144 24 10.3731 24C10.7318 24 16.067 18.4528 16.067 18.4528L22 7L7.09561 13.9814L7 15.8946Z" fill="#D9D9D9"/>
<path d="M11.3 17.3999L10.0114 23.2807C10.0114 23.2807 9.73919 24.8988 11.8563 23.2807C13.9735 21.6626 16 20.4149 16 20.4149" fill="#C1C1C1"/>
<path d="M7.9007 15.6577L2.48057 13.8737C2.48057 13.8737 1.8328 13.6082 2.04138 13.0061C2.08432 12.882 2.17093 12.7763 2.43004 12.5948C3.631 11.7491 24.6588 4.11382 24.6588 4.11382C24.6588 4.11382 25.2525 3.91171 25.6026 4.04614C25.6893 4.07323 25.7672 4.12308 25.8285 4.19059C25.8898 4.2581 25.9323 4.34084 25.9515 4.43036C25.9893 4.58848 26.0052 4.75115 25.9985 4.91368C25.9969 5.05428 25.98 5.1846 25.9672 5.38896C25.8392 7.47648 22.0066 23.0563 22.0066 23.0563C22.0066 23.0563 21.7773 23.968 20.9558 23.9992C20.7539 24.0058 20.5527 23.9712 20.3643 23.8976C20.1759 23.824 20.0041 23.7128 19.8592 23.5707C18.247 22.1697 12.6747 18.3866 11.4434 17.5545C11.4156 17.5354 11.3923 17.5105 11.3748 17.4815C11.3574 17.4524 11.3463 17.42 11.3424 17.3863C11.3252 17.2986 11.4195 17.1899 11.4195 17.1899C11.4195 17.1899 21.1223 8.47714 21.3805 7.56248C21.4005 7.49162 21.325 7.45666 21.2236 7.4877C20.5791 7.7272 9.40759 14.8543 8.17461 15.6409C8.08586 15.668 7.99205 15.6738 7.9007 15.6577Z" fill="white"/>
</svg>
