<svg width="28" height="28" viewBox="0 0 28 28" fill="none" xmlns="http://www.w3.org/2000/svg">
<path d="M24.0898 2.6833C23.4058 2.07127 20.6696 0.0551505 14.5133 0.0191484C14.5133 0.0191484 7.27685 -0.412881 3.74865 2.82731C1.76853 4.80742 1.08449 7.6516 1.01248 11.2158C0.94048 14.78 0.832483 21.4404 7.27686 23.2765V26.0487C7.27686 26.0487 7.24085 27.1647 7.9609 27.3807C8.86095 27.6688 9.36497 26.8047 10.229 25.9047C10.6971 25.4006 11.3451 24.6806 11.8131 24.1045C16.2054 24.4646 19.5896 23.6365 19.9856 23.4925C20.8856 23.2045 25.8899 22.5565 26.718 15.8961C27.582 8.98367 26.358 4.62741 24.0898 2.6833ZM24.8459 15.356C24.1618 20.9364 20.0936 21.2964 19.3376 21.5124C19.0135 21.6204 16.0614 22.3404 12.3172 22.1244C12.3172 22.1244 9.54499 25.4726 8.64493 26.3727C8.50093 26.5167 8.35691 26.5527 8.24891 26.5527C8.1049 26.5167 8.0689 26.3367 8.0689 26.0847C8.0689 25.7246 8.1049 21.4764 8.1049 21.4764C2.66859 19.9643 2.9926 14.276 3.0286 11.2878C3.10061 8.29963 3.64065 5.88748 5.29674 4.23139C8.28492 1.53123 14.4413 1.92726 14.4413 1.92726C19.6256 1.96326 22.1097 3.51135 22.6858 4.05138C24.5579 5.70747 25.5299 9.63171 24.8459 15.356Z" fill="white"/>
<path d="M17.0335 11.0713C16.9615 9.70321 16.2774 8.98314 14.9453 8.91113" stroke="white" stroke-width="0.693761" stroke-linecap="round" stroke-linejoin="round"/>
<path d="M18.8337 11.6485C18.8697 10.3884 18.4737 9.30826 17.7176 8.48018C16.9255 7.61609 15.8454 7.14805 14.4773 7.04004" stroke="white" stroke-width="0.693761" stroke-linecap="round" stroke-linejoin="round"/>
<path d="M20.6339 12.3681C20.6339 10.1719 19.9498 8.44369 18.6537 7.18357C17.3576 5.92345 15.7374 5.27539 13.7932 5.27539" stroke="white" stroke-width="0.693761" stroke-linecap="round" stroke-linejoin="round"/>
<path d="M15.0173 15.7157C15.0173 15.7157 15.5213 15.7517 15.7734 15.4277L16.2774 14.7796C16.5294 14.4556 17.1054 14.2396 17.7175 14.5636C18.0415 14.7436 18.6175 15.1036 18.9775 15.3917C19.3736 15.6797 20.1656 16.3277 20.1656 16.3277C20.5616 16.6517 20.6336 17.1198 20.3816 17.6238C20.1296 18.0918 19.7696 18.5239 19.3016 18.9199C18.9415 19.2439 18.5815 19.3879 18.2215 19.4599H18.0775C17.9335 19.4599 17.7535 19.4239 17.6095 19.3879C17.0694 19.2439 16.1694 18.8479 14.6213 18.0198C13.6492 17.4798 12.8212 16.9038 12.1371 16.3637C11.7771 16.0757 11.3811 15.7517 11.0211 15.3557L10.8771 15.2117C10.4811 14.8156 10.157 14.4556 9.86901 14.0956C9.32898 13.4116 8.75294 12.5835 8.21291 11.6114C7.38486 10.0994 6.98884 9.19931 6.84484 8.62328C6.80883 8.47927 6.77283 8.33526 6.77283 8.15525V8.01124C6.80883 7.65121 6.98884 7.29119 7.31286 6.93117C7.70888 6.49915 8.14091 6.13913 8.60894 5.85111C9.11297 5.59909 9.581 5.6711 9.90501 6.06712C9.90501 6.06712 10.5531 6.85918 10.8411 7.2552C11.0931 7.61522 11.4531 8.19125 11.6691 8.51527C11.9931 9.09131 11.7771 9.70334 11.4891 9.95536L10.8411 10.4594C10.5171 10.7114 10.553 11.2154 10.553 11.2154C10.553 11.2154 11.4531 14.7796 15.0173 15.7157Z" fill="white"/>
</svg>
