<svg width="31" height="24" viewBox="0 0 31 24" fill="none" xmlns="http://www.w3.org/2000/svg">
<path d="M29.0274 0V1.76048C26.5909 2.67066 24.6815 4.10778 23.2992 6.07186C21.917 8.01198 21.2258 10.0359 21.2258 12.1437C21.2258 12.5988 21.2961 12.9341 21.4367 13.1497C21.5304 13.2934 21.6358 13.3653 21.753 13.3653C21.8701 13.3653 22.0458 13.2814 22.2801 13.1138C23.0298 12.5629 23.9786 12.2874 25.1266 12.2874C26.462 12.2874 27.6451 12.8503 28.676 13.976C29.7068 15.0778 30.2222 16.3952 30.2222 17.9281C30.2222 19.5329 29.6248 20.9461 28.43 22.1677C27.2586 23.3892 25.8295 24 24.1426 24C22.1747 24 20.4761 23.1737 19.047 21.521C17.6179 19.8683 16.9034 17.6527 16.9034 14.8743C16.9034 11.6407 17.8756 8.74251 19.8202 6.17964C21.7647 3.61677 24.8338 1.55689 29.0274 0ZM12.124 0V1.76048C9.68751 2.67066 7.77812 4.10778 6.39587 6.07186C5.01361 8.01198 4.32248 10.0359 4.32248 12.1437C4.32248 12.5988 4.39276 12.9341 4.53333 13.1497C4.62705 13.2934 4.73247 13.3653 4.84961 13.3653C4.96675 13.3653 5.14246 13.2814 5.37674 13.1138C6.12644 12.5629 7.07528 12.2874 8.22326 12.2874C9.55866 12.2874 10.7418 12.8503 11.7726 13.976C12.8034 15.0778 13.3189 16.3952 13.3189 17.9281C13.3189 19.5329 12.7214 20.9461 11.5266 22.1677C10.3552 23.3892 8.9261 24 7.23928 24C5.27132 24 3.57278 23.1737 2.14367 21.521C0.714556 19.8683 0 17.6527 0 14.8743C0 11.6407 0.972265 8.74251 2.9168 6.17964C4.86133 3.61677 7.9304 1.55689 12.124 0Z" fill="url(#paint0_linear_220_897)"/>
<defs>
<linearGradient id="paint0_linear_220_897" x1="2.58602e-07" y1="4.10526" x2="31.2734" y2="5.92384" gradientUnits="userSpaceOnUse">
<stop stop-color="#858AF5"/>
<stop offset="1" stop-color="#5A61F0"/>
</linearGradient>
</defs>
</svg>
