<svg width="52" height="44" viewBox="0 0 52 44" fill="none" xmlns="http://www.w3.org/2000/svg">
<path fill-rule="evenodd" clip-rule="evenodd" d="M16 17.9998C16 14.686 18.6863 11.9998 22 11.9998H30C33.3137 11.9998 36 14.686 36 17.9998V25.9998C36 29.3135 33.3137 31.9998 30 31.9998H22C18.6863 31.9998 16 29.3135 16 25.9998V17.9998ZM22 13.9998C19.7909 13.9998 18 15.7906 18 17.9998V25.9998C18 28.2089 19.7909 29.9998 22 29.9998H30C32.2091 29.9998 34 28.2089 34 25.9998V17.9998C34 15.7906 32.2091 13.9998 30 13.9998H22ZM24 21.9998C24 23.1043 24.8954 23.9998 26 23.9998C27.1046 23.9998 28 23.1043 28 21.9998C28 20.8952 27.1046 19.9998 26 19.9998C24.8954 19.9998 24 20.8952 24 21.9998ZM26 17.9998C23.7909 17.9998 22 19.7906 22 21.9998C22 24.2089 23.7909 25.9998 26 25.9998C28.2091 25.9998 30 24.2089 30 21.9998C30 19.7906 28.2091 17.9998 26 17.9998ZM30.5 15.9998C29.6716 15.9998 29 16.6713 29 17.4998C29 18.3282 29.6716 18.9998 30.5 18.9998C31.3284 18.9998 32 18.3282 32 17.4998C32 16.6713 31.3284 15.9998 30.5 15.9998Z" fill="url(#paint0_linear_293_682)"/>
<rect x="0.75" y="0.75" width="50.5" height="42.5" rx="15.25" stroke="url(#paint1_linear_293_682)" stroke-width="1.5"/>
<defs>
<linearGradient id="paint0_linear_293_682" x1="16" y1="15.4208" x2="36.7214" y2="16.3777" gradientUnits="userSpaceOnUse">
<stop stop-color="#858AF5"/>
<stop offset="1" stop-color="#5A61F0"/>
</linearGradient>
<linearGradient id="paint1_linear_293_682" x1="4.44948e-07" y1="7.52631" x2="53.8302" y2="10.4641" gradientUnits="userSpaceOnUse">
<stop stop-color="#858AF5"/>
<stop offset="1" stop-color="#5A61F0"/>
</linearGradient>
</defs>
</svg>
