<svg width="52" height="44" viewBox="0 0 52 44" fill="none" xmlns="http://www.w3.org/2000/svg">
<path fill-rule="evenodd" clip-rule="evenodd" d="M20 11.9998C17.7909 11.9998 16 13.7906 16 15.9998V27.9998C16 30.2089 17.7909 31.9998 20 31.9998H32C34.2091 31.9998 36 30.2089 36 27.9998V15.9998C36 13.7906 34.2091 11.9998 32 11.9998H20ZM18 15.9998C18 14.8952 18.8954 13.9998 20 13.9998H32C33.1046 13.9998 34 14.8952 34 15.9998V27.9998C34 29.1043 33.1046 29.9998 32 29.9998H20C18.8954 29.9998 18 29.1043 18 27.9998V15.9998ZM22.0134 26.9998C21.3834 26.9998 21 26.5798 21 25.9498V20.0098C21 19.3798 21.3834 18.9998 22.0134 18.9998C22.6434 18.9998 23.0134 19.3798 23.0134 20.0098V25.9998C23.0134 26.6298 22.6434 26.9998 22.0134 26.9998ZM21.0117 16.9998C21.0117 16.4475 21.4594 15.9998 22.0117 15.9998C22.564 15.9998 23.0117 16.4475 23.0117 16.9998C23.0117 17.552 22.564 17.9998 22.0117 17.9998C21.4594 17.9998 21.0117 17.552 21.0117 16.9998ZM25.0117 26.9998C24.3817 26.9998 24.0312 26.5798 24.0312 25.9498V20.0098C24.0312 19.3798 24.3817 18.9998 25.0117 18.9998C25.6417 18.9998 26.0117 19.3698 26.0117 19.9998C26.5367 19.3248 26.8567 18.9998 28.0117 18.9998C29.5117 18.9998 31.0117 20.1548 31.0117 21.9998V25.9998C31.0117 26.6298 30.6417 26.9998 30.0117 26.9998C29.3817 26.9998 29.0117 26.5798 29.0117 25.9498V22.4998C29.0117 21.4198 28.2291 20.9998 27.5117 20.9998C26.6417 20.9998 26.0117 21.4198 26.0117 22.4998V25.9348C26.0117 26.5648 25.6417 26.9998 25.0117 26.9998Z" fill="url(#paint0_linear_293_686)"/>
<rect x="0.75" y="0.75" width="50.5" height="42.5" rx="15.25" stroke="url(#paint1_linear_293_686)" stroke-width="1.5"/>
<defs>
<linearGradient id="paint0_linear_293_686" x1="16" y1="15.4208" x2="36.7214" y2="16.3777" gradientUnits="userSpaceOnUse">
<stop stop-color="#858AF5"/>
<stop offset="1" stop-color="#5A61F0"/>
</linearGradient>
<linearGradient id="paint1_linear_293_686" x1="4.44948e-07" y1="7.52631" x2="53.8302" y2="10.4641" gradientUnits="userSpaceOnUse">
<stop stop-color="#858AF5"/>
<stop offset="1" stop-color="#5A61F0"/>
</linearGradient>
</defs>
</svg>
