<svg width="52" height="44" viewBox="0 0 52 44" fill="none" xmlns="http://www.w3.org/2000/svg">
<path d="M20 23.624L22.2966 29.977C22.2966 29.977 22.5838 30.5714 22.8912 30.5714C23.1987 30.5714 27.7717 25.8167 27.7717 25.8167L32.8571 16L20.0819 21.984L20 23.624Z" fill="white"/>
<path d="M23.6857 24.9143L22.5812 29.955C22.5812 29.955 22.3479 31.342 24.1626 29.955C25.9773 28.5681 27.7143 27.4986 27.7143 27.4986" fill="#5A61F0"/>
<path d="M16.3698 21.2049L16.3708 21.2042C16.3705 21.2044 16.3723 21.2031 16.3768 21.2003C16.3811 21.1976 16.3871 21.1939 16.3951 21.1893C16.4112 21.1799 16.4325 21.1681 16.4599 21.1538C16.515 21.125 16.5872 21.0896 16.6775 21.0476C16.8578 20.9637 17.0977 20.859 17.3907 20.736C17.9762 20.4901 18.7601 20.1768 19.6759 19.8196C21.5068 19.1055 23.8535 18.2206 26.1701 17.3574C28.4862 16.4945 30.7705 15.6541 32.4758 15.0294C33.3284 14.7171 34.0362 14.4587 34.5308 14.2784L35.1043 14.0696L35.2551 14.0148L35.2937 14.0007L35.2993 13.9987L35.3071 13.9962C35.317 13.9932 35.3328 13.9884 35.3531 13.9828C35.3945 13.9714 35.4516 13.9573 35.5145 13.9463C35.5786 13.935 35.6401 13.9285 35.6923 13.9285C35.7323 13.9285 35.7544 13.9323 35.7625 13.9341C35.7809 14.0184 35.7884 14.1048 35.7849 14.1912L35.7846 14.1984L35.7845 14.2057C35.7838 14.2658 35.78 14.3099 35.7745 14.3753C35.7701 14.4269 35.7646 14.4916 35.7586 14.5878L35.7586 14.5884C35.734 14.9887 35.5192 16.1142 35.1921 17.6349C34.8696 19.134 34.4495 20.9676 34.0323 22.7476C33.6151 24.5272 33.2014 26.2511 32.8919 27.5303C32.7371 28.1699 32.6084 28.6982 32.5185 29.0665L32.4141 29.493L32.3867 29.6048L32.3797 29.6334L32.3788 29.637L32.3761 29.6458C32.3726 29.6569 32.3663 29.6756 32.3568 29.6995C32.3372 29.7486 32.3069 29.8118 32.265 29.8725C32.182 29.9927 32.0847 30.0652 31.9444 30.071C31.8396 30.0742 31.7352 30.0562 31.6371 30.0179C31.5387 29.9794 31.4485 29.9211 31.3722 29.8463L31.3615 29.8358L31.3501 29.8259C30.0522 28.698 25.8784 25.8457 24.4081 24.8487C24.4312 24.8278 24.4555 24.8059 24.4811 24.7828C24.7093 24.5767 25.0355 24.2815 25.4276 23.9249C26.2116 23.2117 27.2598 22.2521 28.3152 21.2677C29.3699 20.2841 30.4352 19.2724 31.2522 18.4558C31.66 18.0482 32.011 17.6842 32.2692 17.3942C32.3978 17.2497 32.5091 17.1173 32.5943 17.0032C32.6641 16.9099 32.7652 16.7671 32.8074 16.6179L32.8074 16.6178C32.8375 16.5112 32.8427 16.3728 32.779 16.2341C32.7159 16.0965 32.6091 16.0112 32.5114 15.9651C32.3323 15.8805 32.1548 15.9063 32.0453 15.9398L32.0312 15.9441L32.0175 15.9492C31.9402 15.978 31.8356 16.0346 31.7431 16.0862C31.6366 16.1455 31.5006 16.2246 31.3406 16.3195C31.0201 16.5097 30.5938 16.7696 30.097 17.0762C29.103 17.6896 27.8195 18.4946 26.5216 19.3134C24.067 20.862 21.5563 22.4628 20.843 22.9178L16.3122 21.4264C16.3084 21.4244 16.3037 21.4217 16.2985 21.4186C16.2747 21.4045 16.2501 21.3863 16.2318 21.3672C16.2206 21.3556 16.216 21.348 16.2143 21.3449C16.2145 21.3414 16.2153 21.3351 16.2179 21.3254C16.2352 21.3074 16.2764 21.2703 16.3698 21.2049ZM16.2145 21.3485C16.2144 21.3485 16.2143 21.3478 16.2143 21.3461C16.2146 21.3476 16.2146 21.3485 16.2145 21.3485Z" fill="#5A61F0" stroke="#5A61F0"/>
<rect x="0.75" y="0.75" width="50.5" height="42.5" rx="15.25" stroke="url(#paint0_linear_603_977)" stroke-width="1.5"/>
<defs>
<linearGradient id="paint0_linear_603_977" x1="4.44948e-07" y1="7.52631" x2="53.8302" y2="10.4641" gradientUnits="userSpaceOnUse">
<stop stop-color="#858AF5"/>
<stop offset="1" stop-color="#5A61F0"/>
</linearGradient>
</defs>
</svg>
