<svg width="167" height="344" viewBox="0 0 167 344" fill="none" xmlns="http://www.w3.org/2000/svg">
<path d="M-172.188 234.477C-184.763 206.265 -180.093 173.409 -162.1 143.004C-144.109 112.602 -112.852 84.7747 -72.5553 66.8144C-32.2588 48.8542 9.33202 44.2128 43.969 51.158C78.6102 58.104 106.165 76.597 118.74 104.809C131.314 133.022 126.645 165.877 108.652 196.283C90.6602 226.684 59.4033 254.512 19.1069 272.472C-21.1895 290.432 -62.7804 295.073 -97.4174 288.128C-132.059 281.182 -159.614 262.689 -172.188 234.477Z" stroke="#5A61F0" stroke-width="3"/>
<path d="M-164.661 257.418C-177.963 234.288 -176.107 205.145 -162.01 176.58C-147.918 148.025 -121.656 120.217 -86.519 100.009C-51.3819 79.801 -14.1391 71.0869 17.6291 73.2666C49.409 75.4471 75.5313 88.4984 88.8339 111.629C102.136 134.759 100.28 163.901 86.1829 192.466C72.0907 221.021 45.8292 248.829 10.6922 269.037C-24.4449 289.245 -61.6877 297.959 -93.4559 295.78C-125.236 293.599 -151.358 280.548 -164.661 257.418Z" stroke="#5A61F0" stroke-width="3"/>
<path d="M-168.104 251.431C-177.33 235.389 -173.912 213.716 -160.236 191.38C-146.594 169.099 -122.922 146.503 -92.4159 128.958C-61.9097 111.414 -30.4742 102.316 -4.35488 101.73C21.8289 101.142 42.2806 109.088 51.5065 125.129C60.7324 141.171 57.3145 162.844 43.6387 185.18C29.9966 207.462 6.32458 230.058 -24.1816 247.602C-54.6878 265.147 -86.1234 274.244 -112.243 274.83C-138.426 275.418 -158.878 267.473 -168.104 251.431Z" stroke="#5A61F0" stroke-width="3"/>
</svg>
