<svg width="72" height="72" viewBox="0 0 72 72" fill="none" xmlns="http://www.w3.org/2000/svg">
    <path d="M60 0H12C5.37258 0 0 5.37258 0 12V60C0 66.6274 5.37258 72 12 72H60C66.6274 72 72 66.6274 72 60V12C72 5.37258 66.6274 0 60 0Z" fill="black"/>
    <path d="M21.2031 7.84436L22.0625 7.60999C26.2292 7.60999 29.8229 8.07874 32.8438 9.01624H34.1719H35.1875L35.3438 9.40686L35.2656 13.9381C35.2135 14.2506 35.0312 14.4069 34.7188 14.4069L33.7812 13.4694L31.6719 13.0006H30.9688L30.5 13.1569V13.4694C31.2292 13.7819 31.6979 13.9381 31.9062 13.9381V14.0944C31.9062 14.3027 31.3073 14.4589 30.1094 14.5631L29.6406 29.7975V31.4381L29.5625 52.3756V53.6256C29.5625 54.0944 31.0208 54.3287 33.9375 54.3287H48.9375L51.4375 54.485C51.75 54.485 52.0104 53.0527 52.2188 50.1881C52.375 49.4589 52.6094 49.0944 52.9219 49.0944C55.9948 49.1985 57.5312 49.485 57.5312 49.9537C57.3229 50.4225 57.0104 50.6569 56.5938 50.6569V50.8912C57.1146 51.4121 57.375 51.8548 57.375 52.2194C57.375 53.4173 57.1927 55.0058 56.8281 56.985V58.1569L56.9062 58.5475C56.5938 59.1204 56.4375 59.6412 56.4375 60.11C56.3333 60.11 56.125 60.4485 55.8125 61.1256C54.6667 61.5423 53.5469 61.7506 52.4531 61.7506H52.1406L45.4219 61.1256H45.0312L29.6406 61.7506L18.9375 60.735C18.5208 60.4225 18.3125 60.0839 18.3125 59.7194C18.7292 56.6464 19.3802 55.11 20.2656 55.11C20.526 54.8496 21.5417 54.6412 23.3125 54.485C23.9896 52.8183 24.0156 45.2662 23.3906 31.8287C23.7031 28.1829 23.9635 22.7662 24.1719 15.5787V14.7975C24.1719 14.0162 23.625 13.6256 22.5312 13.6256L21.8281 13.4694V13.235C22.7656 12.7662 23.4948 12.5319 24.0156 12.5319V12.2194L22.2188 11.985H21.125V12.2975C21.3333 12.2975 21.4375 12.3756 21.4375 12.5319C21.2812 12.7923 21.0469 12.9225 20.7344 12.9225H20.4219C19.901 12.7142 19.6406 12.1152 19.6406 11.1256V10.8912C19.6406 9.69332 19.9792 8.93811 20.6562 8.62561C20.8125 8.62561 20.9948 8.36519 21.2031 7.84436ZM21.8281 10.2662L21.5938 10.4225V10.5787H21.9844L22.2188 10.3444V10.2662H21.8281ZM32.2188 10.3444L31.9062 10.5787V10.735L32.4531 10.8912V10.9694L32.2188 11.1256L30.6562 11.0475L30.5781 11.1256V11.5162L30.8125 11.7506H32.375C33.2083 11.7506 33.625 11.4642 33.625 10.8912C33.2604 10.5267 32.8698 10.3444 32.4531 10.3444H32.2188ZM26.4375 10.8912C26.6458 11.2558 27.2188 11.4381 28.1562 11.4381H28.7031L29.0938 11.0475C28.625 10.735 28.1562 10.5787 27.6875 10.5787H27.0625C26.6458 10.5787 26.4375 10.6829 26.4375 10.8912ZM28.2344 12.2975L27.8438 12.4537V12.5319L28 12.8444H28.5469L29.0156 12.6881V12.4537L28.5469 12.2975H28.2344ZM27.9219 13.9381L27.8438 14.0944V15.1881C27.8958 15.8652 28.026 16.2037 28.2344 16.2037L28.7031 15.8912V15.3444C28.651 14.4069 28.3906 13.9381 27.9219 13.9381ZM27.375 29.4069H27.1406C26.724 31.5944 26.6979 33.0267 27.0625 33.7037C27.3229 34.1725 27.5052 34.0162 27.6094 33.235L27.6875 30.6569C27.6354 29.8235 27.5312 29.4069 27.375 29.4069ZM56.0469 52.0631H55.8906C55.474 53.1569 55.2656 53.7819 55.2656 53.9381L54.6406 57.2194V57.5319L54.875 57.7662H55.1094C55.7865 57.4537 56.1771 55.9694 56.2812 53.3131C56.2292 52.4798 56.151 52.0631 56.0469 52.0631ZM27.0625 52.3756H26.6719V52.61C26.4115 53.3912 26.2812 53.9642 26.2812 54.3287C26.2812 55.0579 26.4635 55.5006 26.8281 55.6569H27.1406C27.349 55.6569 27.4531 54.9017 27.4531 53.3912V53.0787C27.4531 52.7142 27.3229 52.4798 27.0625 52.3756ZM48.5469 55.0319H47.7656V55.2662C47.7656 55.4225 48.1042 55.5267 48.7812 55.5787C48.7812 55.9954 49.25 56.2298 50.1875 56.2819L51.6719 56.1256V55.8131C50.6823 55.8131 49.6406 55.5527 48.5469 55.0319ZM46.3594 55.8131H44.3281V55.8912C44.3802 56.0475 44.6406 56.1256 45.1094 56.1256H46.8281V55.8912L46.3594 55.8131ZM19.7969 56.985C20.2135 56.985 20.4219 56.8027 20.4219 56.4381V56.2819H20.2656C19.9531 56.3339 19.7969 56.5683 19.7969 56.985ZM27.5312 56.8287H27.1406V57.2194C28.0781 57.3756 32.7656 57.6621 41.2031 58.0787L41.3594 58.0006V57.8444L27.5312 56.8287ZM19.9531 57.5319L19.4844 57.61V57.8444L19.7188 58.0787H19.9531L20.1875 57.8444V57.7662L19.9531 57.5319ZM45.7344 58.235L45.5781 58.3912V58.5475L46.2812 58.7037H47.375V58.5475C47.375 58.3392 47.1927 58.235 46.8281 58.235H45.7344ZM49.0938 59.2506V59.3287H49.3281C49.849 59.3287 50.3698 59.1204 50.8906 58.7037C50.8385 58.4954 50.6302 58.3912 50.2656 58.3912C50.0573 58.3912 49.6667 58.6777 49.0938 59.2506ZM51.3594 59.5631L50.1875 59.6412V59.7194C50.6042 60.136 51.125 60.3444 51.75 60.3444H51.9844C52.2448 60.3444 52.4792 60.2402 52.6875 60.0319C52.9479 60.2402 53.2344 60.3444 53.5469 60.3444H54.1719C54.7448 60.3444 55.0573 60.2402 55.1094 60.0319V59.9537C55.1094 59.6933 54.3021 59.5631 52.6875 59.5631H51.3594ZM30.0312 60.2662L28.3125 60.3444V60.5006C28.3125 60.8652 29.5365 61.0996 31.9844 61.2037C33.599 61.2037 34.9271 61.0475 35.9688 60.735V60.5006C33.7812 60.3444 31.8281 60.2662 30.1094 60.2662H30.0312ZM26.75 60.5006H26.5938V60.735H26.75V60.5006ZM38.9375 60.5006L38.4688 60.6569V60.9694H38.9375L39.875 60.735V60.5006H38.9375Z" fill="white"/>
</svg>
