<svg width="208" height="60" viewBox="0 0 208 60" fill="none" xmlns="http://www.w3.org/2000/svg">
  <path d="M56.4422 13.6796C49.8172 5.13105 38.6744 1.4031 28.2144 4.23084C17.7544 7.05858 10.0293 15.8906 8.64982 26.602C7.27033 37.3134 12.502 47.8015 21.9101 53.1683C31.3182 58.5352 43.0422 57.7312 51.6209 51.1274C63.3465 42.1116 65.4675 25.3479 56.4456 13.6813L56.4422 13.6796Z" fill="#FF6C37"/>
  <path d="M44.2717 20.3104L32.9719 31.6575L29.7784 28.3865C40.9005 17.3057 42.0162 18.3073 44.2941 20.3121L44.2717 20.3104Z" fill="white"/>
  <path d="M32.9702 31.9704C32.8702 31.9687 32.7753 31.9275 32.7029 31.8588L29.487 28.6548C29.337 28.483 29.337 28.2545 29.487 28.0982C40.4298 17.1961 41.9489 17.6874 44.5406 20.0238C44.6269 20.0925 44.6786 20.2008 44.6751 20.3124C44.6924 20.4224 44.6493 20.5323 44.5631 20.601L33.2633 31.8588C33.184 31.9309 33.0805 31.9704 32.9736 31.9704H32.9702ZM30.3354 28.4108L32.9702 31.0359L43.6905 20.3554C43.3202 19.8937 42.7922 19.5841 42.2073 19.4855C41.6224 19.387 41.0216 19.5064 40.5194 19.8211C38.5761 20.711 35.4498 23.336 30.3354 28.4108Z" fill="#FF6C37"/>
  <path d="M36.2085 34.7965L33.1288 31.6835L44.4286 20.5581C47.4634 23.5181 42.9542 28.4572 36.2103 34.7999L36.2085 34.7965Z" fill="white"/>
  <path d="M36.2085 35.1971C36.1103 35.1885 36.0154 35.1507 35.9413 35.0854L32.815 32.0155C32.7685 31.9021 32.7685 31.775 32.815 31.6599C32.7805 31.5671 32.7805 31.464 32.815 31.3712L44.1147 20.1135C44.2785 19.9589 44.532 19.9589 44.6958 20.1135C45.4373 20.7921 45.8443 21.7593 45.8132 22.7592C45.8132 25.7621 42.3731 29.5451 36.5224 35.0631C36.4448 35.1404 36.3413 35.1868 36.2327 35.1971H36.2085ZM33.7082 31.6375L36.2327 34.1526C40.716 29.9264 44.9407 25.6092 44.9873 22.6715C45.0114 22.0479 44.8045 21.4381 44.4061 20.9587L33.7082 31.6375Z" fill="#FF6C37"/>
  <path d="M29.8664 28.4538L32.0994 30.6786C32.1287 30.7044 32.1442 30.7404 32.1442 30.7782C32.1442 30.816 32.127 30.8538 32.0994 30.8779L27.4091 31.8794C27.3146 31.898 27.2166 31.8857 27.1297 31.8444C27.0427 31.8031 26.9714 31.735 26.9264 31.6502C26.8813 31.5654 26.8648 31.4684 26.8794 31.3735C26.894 31.2787 26.9389 31.191 27.0074 31.1235L29.7543 28.4092C29.7543 28.4092 29.8439 28.4092 29.8888 28.4538H29.8664Z" fill="white"/>
  <path d="M27.2764 32.3278C26.9729 32.3243 26.6953 32.1646 26.5401 31.9051C26.4535 31.7439 26.4219 31.5589 26.4502 31.3782C26.4785 31.1975 26.5652 31.0309 26.697 30.9036L29.4215 28.1669C29.5195 28.0792 29.6467 28.0308 29.7784 28.0308C29.9102 28.0308 30.0373 28.0792 30.1353 28.1669L32.3684 30.3916C32.5012 30.517 32.5529 30.706 32.5029 30.8812C32.4529 31.0565 32.3046 31.1956 32.1235 31.2369L27.4333 32.2384L27.2764 32.3278ZM29.7767 28.9434L27.2522 31.4585L31.4286 30.5686L29.7767 28.9434Z" fill="#FF6C37"/>
  <path d="M50.2793 14.0606C48.6636 12.511 46.1271 12.4457 44.4165 13.9128C42.7059 15.3799 42.4335 17.8899 43.7475 19.7023C45.0614 21.5147 47.5548 22.0215 49.481 20.8705L46.4461 17.8469L50.2793 14.0606Z" fill="white"/>
  <path d="M47.2634 21.8915C45.3666 21.8675 43.6647 20.7147 42.9456 18.9641C42.2266 17.2136 42.6249 15.2053 43.9595 13.8584C44.8529 12.9829 46.0559 12.4922 47.3091 12.4922C48.5623 12.4922 49.7653 12.9829 50.6587 13.8584C50.7011 13.8939 50.7352 13.9382 50.7586 13.9882C50.782 14.0382 50.7941 14.0927 50.7941 14.1479C50.7941 14.2031 50.782 14.2576 50.7586 14.3076C50.7352 14.3576 50.7011 14.4019 50.6587 14.4374L47.041 17.8423L49.7879 20.512C49.8323 20.5544 49.8656 20.6068 49.8852 20.6649C49.9047 20.7229 49.9098 20.7849 49.8999 20.8453C49.8862 20.9656 49.8206 21.0686 49.7206 21.1339C48.9826 21.5939 48.1337 21.8473 47.2634 21.8675V21.8915ZM47.2634 13.2588C46.4893 13.2634 45.7337 13.4955 45.0914 13.926C44.4492 14.3566 43.9488 14.9666 43.6531 15.6793C43.3573 16.3921 43.2794 17.176 43.429 17.9327C43.5786 18.6894 43.9491 19.3853 44.4941 19.9331C45.6322 21.0704 47.3496 21.3968 48.8274 20.7577L46.1926 18.1327C46.1064 18.0639 46.0581 17.9609 46.0581 17.8544C46.0581 17.7478 46.1098 17.643 46.1926 17.576L49.6758 14.0835C48.9833 13.5544 48.1361 13.2654 47.2634 13.2606V13.2588Z" fill="#FF6C37"/>
  <path d="M50.3466 14.126L46.5495 17.9089L49.5844 20.9325C49.8901 20.7576 50.1748 20.5483 50.4328 20.3089C51.2293 19.4705 51.6675 18.3565 51.6549 17.2022C51.6424 16.0479 51.18 14.9436 50.3655 14.1226L50.3466 14.126Z" fill="white"/>
  <path d="M49.4964 21.2691C49.393 21.2742 49.2964 21.2347 49.2292 21.1574L46.1943 18.1338C46.1081 18.0651 46.0598 17.962 46.0598 17.8555C46.0598 17.749 46.1115 17.6442 46.1943 17.5772L49.9913 13.8613C50.0655 13.7496 50.1913 13.6826 50.3258 13.6826C50.4603 13.6826 50.5845 13.7513 50.6604 13.8613C51.1059 14.2963 51.4598 14.8156 51.7014 15.3886C51.9431 15.9616 52.0675 16.5769 52.0675 17.1984C52.0675 17.8199 51.9431 18.4352 51.7014 19.0082C51.4598 19.5812 51.1059 20.1005 50.6604 20.5355C50.3983 20.8138 50.0965 21.0509 49.7672 21.2467C49.6844 21.288 49.5878 21.2983 49.4999 21.2691H49.4964ZM47.0392 17.8418L49.5637 20.3568C49.7361 20.2366 49.9017 20.1026 50.0551 19.9566C50.4225 19.5916 50.714 19.1582 50.9131 18.6809C51.1123 18.2037 51.215 17.692 51.2156 17.1752C51.2163 16.2416 50.8747 15.3399 50.2552 14.6395L47.0392 17.8418Z" fill="#FF6C37"/>
  <path d="M44.7407 20.78C44.113 20.1925 43.137 20.1925 42.5076 20.78L32.3908 30.8369L34.0635 32.5273L44.7838 23.1817C44.947 23.026 45.0766 22.8386 45.1643 22.6311C45.2521 22.4236 45.2963 22.2003 45.2942 21.9752C45.2921 21.75 45.2438 21.5276 45.1521 21.3218C45.0605 21.1159 44.9275 20.931 44.7614 20.7783L44.7407 20.78Z" fill="white"/>
  <path d="M33.9737 32.9273C33.8737 32.9256 33.7789 32.8843 33.7065 32.8156L32.0097 31.1251C31.8597 30.9533 31.8597 30.7249 32.0097 30.5685L42.1265 20.5563C42.4174 20.265 42.7896 20.0677 43.1947 19.9902C43.5998 19.9128 44.0189 19.9588 44.3973 20.1222C44.7758 20.2856 45.096 20.5588 45.3163 20.9062C45.5366 21.2537 45.6466 21.6592 45.6321 22.0698C45.6097 22.6316 45.3597 23.1607 44.9424 23.5387L34.2221 32.8843C34.1445 32.9392 34.0492 32.9632 33.9548 32.9513L33.9737 32.9273ZM32.7908 30.8365L33.9082 31.9498L44.4044 22.8446C44.5333 22.7338 44.6376 22.5975 44.7107 22.4442C44.7837 22.291 44.8239 22.1243 44.8286 21.9547C44.8424 21.6111 44.7027 21.2761 44.4492 21.0442C43.9612 20.5598 43.1732 20.5598 42.6852 21.0442L32.7908 30.8365Z" fill="#FF6C37"/>
  <path d="M24.5519 42.2956C24.5232 42.3341 24.5077 42.3808 24.5077 42.4288C24.5077 42.4767 24.5232 42.5234 24.5519 42.5619L25.0002 44.498C25.0382 44.7283 24.9278 44.9585 24.7243 45.0736C24.5208 45.1887 24.2639 45.1629 24.0863 45.01L21.0273 42.0895L30.563 32.5205H33.8686L36.1016 34.7453C32.6184 37.7809 28.7335 40.3252 24.5553 42.3111L24.5519 42.2956Z" fill="white"/>
  <path d="M24.3519 45.5646C24.0984 45.5595 23.8587 45.4564 23.6794 45.276L20.7755 42.383C20.6893 42.3143 20.641 42.2112 20.641 42.1047C20.641 41.9982 20.6928 41.8934 20.7755 41.8264L30.3802 32.2574C30.4342 32.2002 30.5047 32.1612 30.582 32.1458H33.9324C34.0186 32.1148 34.1135 32.1148 34.1997 32.1458L36.4327 34.3705C36.5189 34.4495 36.5603 34.5663 36.5448 34.6797C36.5483 34.7914 36.4982 34.8996 36.4103 34.9683L36.231 35.123C32.7328 38.0286 28.8841 40.4876 24.7743 42.4431L25.2227 44.2229C25.2916 44.5047 25.2261 44.8019 25.0502 45.0304C24.8743 45.2589 24.6019 45.3963 24.3087 45.4014L24.3519 45.5646ZM21.6274 42.0721L24.2622 44.7418C24.3139 44.7864 24.3898 44.7864 24.4415 44.7418C24.476 44.6954 24.476 44.6318 24.4415 44.5871L23.9932 42.651C23.9208 42.3641 24.0622 42.0669 24.3277 41.9398C28.3272 40.0107 32.0769 37.6052 35.4947 34.7759L33.6462 32.9497H30.6527L21.6274 42.0721Z" fill="#FF6C37"/>
  <path d="M18.7218 44.362L20.9548 42.1372L24.3949 45.5645L18.9235 45.1866C18.8299 45.1787 18.7411 45.1418 18.6696 45.0809C18.5982 45.0201 18.5478 44.9384 18.5255 44.8474C18.5032 44.7565 18.5101 44.6608 18.5453 44.574C18.5806 44.4872 18.6423 44.4119 18.7218 44.362Z" fill="white"/>
  <path d="M24.4622 45.8997L19.0133 45.5218C18.8539 45.5084 18.7017 45.4503 18.5742 45.3541C18.4467 45.258 18.3493 45.1278 18.2931 44.9786C18.2369 44.8295 18.2244 44.6675 18.257 44.5116C18.2895 44.3556 18.3658 44.2121 18.477 44.0976L20.71 41.8728C20.8825 41.7234 21.1118 41.7234 21.2687 41.8728L24.6864 45.2778C24.7336 45.3424 24.7591 45.4203 24.7591 45.5003C24.7591 45.5802 24.7336 45.6581 24.6864 45.7228C24.6347 45.8052 24.5553 45.8671 24.4622 45.8997ZM19.0133 44.6542L23.4966 44.9428L21.0394 42.6511L19.0133 44.6542Z" fill="#FF6C37"/>
  <path d="M34.1772 32.7727L29.6663 33.4427L32.2787 30.8623L34.1772 32.7727Z" fill="white"/>
  <path d="M29.6663 33.8825C29.5913 33.8846 29.5174 33.8646 29.4539 33.8248C29.3903 33.7851 29.3401 33.7274 29.3094 33.6592C29.2622 33.5946 29.2367 33.5167 29.2367 33.4367C29.2367 33.3568 29.2622 33.2789 29.3094 33.2143L31.8994 30.6116C32.0632 30.457 32.3167 30.457 32.4805 30.6116L34.3773 32.5013C34.4149 32.5613 34.4348 32.6307 34.4348 32.7015C34.4348 32.7722 34.4149 32.8416 34.3773 32.9016C34.3602 32.9753 34.3214 33.0422 34.2657 33.0936C34.2101 33.1451 34.1402 33.1787 34.0652 33.1902L29.5818 33.8602L29.6663 33.8825ZM32.2787 31.4345L30.8268 32.881L33.3272 32.503L32.2787 31.4345Z" fill="#FF6C37"/>
  <path d="M34.1772 32.7726L31.051 33.1728C30.8785 33.2124 30.6992 33.1333 30.6113 32.9804C30.5233 32.8275 30.5475 32.6334 30.6699 32.5063L32.2994 30.8828L34.1772 32.7726Z" fill="white"/>
  <path d="M30.9389 33.5955C30.7931 33.594 30.6503 33.5541 30.5249 33.4799C30.3995 33.4056 30.2961 33.2997 30.225 33.1729C30.0491 32.8602 30.1043 32.4857 30.3595 32.216L31.989 30.5925C32.1528 30.4379 32.4063 30.4379 32.5701 30.5925L34.4669 32.4823C34.5825 32.5905 34.6394 32.7572 34.5704 32.9066C34.5014 33.0561 34.3979 33.1592 34.2221 33.1712L31.0958 33.5715L30.9389 33.5955ZM30.9389 32.7709L33.3064 32.4823L32.2546 31.4343L30.9147 32.7692L30.9389 32.7709ZM50.369 16.684C50.2827 16.538 50.1 16.4813 49.9448 16.55C49.8706 16.5878 49.8137 16.6531 49.7723 16.7338C49.7309 16.8146 49.7551 16.8988 49.7947 16.9744C49.9499 17.3008 49.9086 17.6907 49.6827 17.9759C49.624 18.0309 49.5913 18.1065 49.5913 18.1872C49.5913 18.268 49.6258 18.3418 49.6827 18.3985C49.7396 18.4209 49.8034 18.4209 49.862 18.3985C49.9655 18.426 50.0793 18.3917 50.1517 18.3092C50.5276 17.8522 50.6052 17.22 50.3534 16.6857L50.369 16.684ZM157.776 25.8957L155.138 31.5563C154.896 32.0339 154.736 32.6695 154.275 32.6695C153.634 32.6695 153.556 32.0305 153.315 31.4756L151.156 26.7735C150.996 26.533 150.996 26.0572 150.677 26.1345C150.275 26.2152 150.358 26.6911 150.358 26.9934V36.6363C150.358 37.1139 150.358 37.5932 150.277 38.0708C150.196 38.5484 149.875 38.8679 149.414 38.8679C148.935 38.7872 148.773 38.4676 148.695 38.0708V23.0868C148.695 22.4477 148.535 21.575 149.254 21.3345C150.054 21.094 150.534 21.7348 150.853 22.4477L153.31 27.8679C153.551 28.3455 153.629 29.2027 154.27 29.3024C154.989 29.3024 155.07 28.3455 155.312 27.8679L157.769 22.6075C158.088 21.8911 158.488 21.173 159.367 21.3328C160.23 21.5733 160.009 22.446 160.009 23.1658V37.0348C160.009 37.7512 160.25 38.8679 159.209 38.8679C158.091 38.8679 158.347 37.7547 158.347 36.9541V27.7871C158.266 27.1481 158.428 26.5124 157.788 25.8733L157.776 25.8957ZM192.096 26.2959C191.616 26.7735 191.777 27.4092 191.777 27.9692V37.4523C191.777 38.0089 191.937 38.8868 191.135 38.8868C190.273 38.9675 190.273 38.0897 190.273 37.4523V22.7673C190.273 22.2107 190.192 21.4926 190.832 21.3328C191.551 21.0923 191.949 21.6506 192.272 22.2897L196.191 30.9791C196.433 31.6182 196.75 32.173 196.991 32.8121C197.152 33.1299 197.152 33.6093 197.633 33.4512C198.034 33.2914 197.952 32.8121 197.952 32.4943V23.1487C197.952 22.7484 197.952 22.4323 198.033 22.0354C198.114 21.4788 198.434 21.2383 198.895 21.2383C199.374 21.3191 199.536 21.7159 199.536 22.1952V36.9404C199.536 37.5794 199.778 38.4522 198.978 38.6927C198.115 39.0105 197.779 38.1361 197.46 37.4179L192.98 27.5346C192.739 27.057 192.661 26.4969 192.118 26.2599L192.096 26.2959ZM101.296 30.0411C101.215 31.7934 101.377 33.4684 101.136 35.2207C100.734 37.6688 99.377 38.8868 96.8939 38.8868C94.2556 38.8868 92.733 37.7736 92.414 35.2997C92.0122 31.7126 91.9346 28.0465 92.414 24.4766C92.733 22.1626 94.3349 21.0493 96.7335 21.0493C99.1321 21.0493 100.653 22.2433 101.053 24.4766C101.455 26.3904 101.213 28.2218 101.294 30.0548L101.296 30.0411ZM99.6977 30.0411V25.9798C99.6167 23.9114 98.4993 22.7089 96.6628 22.7913C94.904 22.7913 93.8625 23.9046 93.759 25.9798V34.2123C93.8401 36.2807 94.8764 37.4008 96.6628 37.4832C98.5027 37.4832 99.6218 36.37 99.6977 34.2123C99.7787 32.8774 99.6977 31.503 99.6977 30.0668V30.0411ZM180.32 37.7718C180.32 38.3285 180.239 38.7287 179.761 38.8095C179.36 38.8902 179.042 38.8095 178.899 38.3319C178.818 38.0141 178.658 37.6155 178.58 37.2943C177.861 34.8462 177.861 34.8462 175.676 34.8462H174.975C172.255 34.8462 172.255 34.8462 171.295 37.7392C171.134 38.2958 171.053 39.0741 170.253 38.8524C169.453 38.5346 169.695 37.7392 169.852 37.1001L173.771 22.6728C174.012 21.9564 174.09 20.9205 175.111 20.9995C175.973 21.0803 176.152 21.9564 176.309 22.6728L179.989 36.3786C180.149 36.8562 180.23 37.3355 180.308 37.8131L180.32 37.7718ZM174.961 33.3086H175.761C177.52 33.3086 177.601 33.2279 177.04 31.2402L175.523 25.5813C175.442 25.181 175.523 24.6244 175.044 24.6244C174.564 24.6244 174.485 25.181 174.402 25.662L173.123 30.4465C172.323 33.3395 172.404 33.3395 174.963 33.3395L174.961 33.3086ZM73.1374 30.0445V22.6573C73.1374 21.4634 73.5392 21.0648 74.4772 21.0648H77.1965C80.8763 21.1455 82.2368 22.8171 82.1541 27.0433C82.073 29.9363 80.6366 31.5872 78.1363 31.7453C77.4173 31.7453 76.7965 31.826 76.0602 31.7453C74.9428 31.6645 74.5427 32.2229 74.6203 33.4186C74.7014 34.8531 74.6203 36.3116 74.6203 37.6447C74.6203 38.2013 74.5393 38.8387 73.8202 38.8387C73.1012 38.8387 73.1012 38.1996 73.1012 37.564V30.0686L73.1374 30.0445ZM76.8965 30.285C79.2192 30.285 80.0969 29.7284 80.497 28.0517C80.897 26.375 80.8987 24.7807 79.6969 23.5077C78.4174 22.233 76.7379 22.7913 75.217 22.8686C74.6583 22.8686 74.6583 23.585 74.6583 24.1434V27.7304C74.6583 30.2799 74.6583 30.2799 76.8999 30.2799L76.8965 30.285ZM115.532 39.0517C113.853 39.0517 112.498 38.7339 111.453 37.4592C111.134 37.0589 110.734 36.5023 111.211 35.9474C111.613 35.4698 112.073 35.7876 112.41 36.1879C113.37 37.2255 114.41 37.5227 115.693 37.4626C116.891 37.3819 117.769 36.8235 118.252 35.4698C118.726 34.2363 118.447 32.8413 117.533 31.8827C116.671 30.9258 115.532 30.5479 114.412 29.9689C112.813 29.2525 111.611 28.2166 111.453 26.064C111.211 23.171 112.494 21.6008 115.295 21.0425C116.493 20.8019 117.617 21.1232 118.654 21.5201C119.212 21.6798 119.695 22.1591 119.454 22.8549C119.212 23.652 118.654 23.3325 118.174 23.0954C117.133 22.5388 116.015 22.5388 114.974 22.6951C114.112 22.8549 113.294 23.4115 113.134 24.5282C112.974 25.6448 113.134 26.5966 113.934 27.3181C114.976 28.1771 116.176 28.5121 117.293 29.0704C119.052 29.9294 120.012 31.4618 120.012 33.6917C120.012 35.7601 119.533 37.3578 117.771 38.3937C116.971 38.9504 116.091 38.8713 115.529 39.0328L115.532 39.0517ZM133.055 30.6819V24.5454C133.136 23.0336 132.576 22.5525 131.376 22.7123C130.897 22.7931 130.334 22.7123 129.858 22.7123C129.383 22.7123 129.058 22.4718 129.058 21.8533C129.058 21.3757 129.377 21.0562 129.777 21.0562H137.937C138.339 21.0562 138.656 21.2967 138.656 21.7726C138.656 22.3292 138.337 22.6316 137.856 22.6316C137.297 22.6316 136.658 22.7123 136.097 22.6316C134.98 22.5508 134.657 23.1092 134.657 24.3048V37.3784C134.657 38.0175 134.576 38.7133 133.857 38.7133C133.057 38.7133 133.057 37.9969 133.057 37.3784V30.7042L133.055 30.6819Z" fill="white"/>
</svg>
