<svg width="192" height="192" viewBox="0 0 192 192" fill="none" xmlns="http://www.w3.org/2000/svg">
<circle cx="96.0002" cy="95.9998" r="85" transform="rotate(97.7042 96.0002 95.9998)" fill="white"/>
<path d="M118.793 99.0834L100.493 98.6151L109.937 114.297L97.3277 101.026L92.9169 118.792L93.3852 100.492L77.7033 109.936L90.9746 97.3275L73.2078 92.9167L91.5079 93.385L82.0638 77.7031L94.6728 90.9744L99.0836 73.2077L98.6153 91.5077L114.297 82.0637L101.026 94.6726L118.793 99.0834Z" fill="#5A61F0"/>
<path d="M61.6128 142.596L59.1963 145.216L58.7994 144.85C58.5524 144.622 58.2428 144.524 57.8704 144.556C57.4892 144.58 57.025 144.756 56.4777 145.084C55.9135 145.412 55.2378 145.923 54.4505 146.618C53.6544 147.304 52.714 148.199 51.6291 149.304L49.1708 151.837L43.5479 146.65L51.4564 138.076L50.3318 137.039L52.7483 134.419L53.5686 135.176L51.9088 136.975L59.1327 143.639L60.7925 141.84L61.6128 142.596ZM57.4763 143.629L52.3826 138.931L45.2307 146.684L49.0808 150.235L50.8667 148.405C51.9916 147.239 52.9728 146.299 53.8102 145.586C54.6307 144.874 55.3403 144.361 55.9392 144.048C56.5298 143.744 57.0422 143.604 57.4763 143.629Z" fill="black"/>
<path d="M50.1491 134.725L42.8785 140.648L42.1054 139.7L49.376 133.776L50.1491 134.725ZM41.3574 141.888L39.9619 143.025L39.1888 142.076L40.5843 140.939L41.3574 141.888Z" fill="black"/>
<path d="M46.0091 129.011C46.4813 129.734 46.749 130.441 46.8121 131.13C46.8652 131.826 46.7291 132.474 46.4037 133.073L45.476 132.475C45.7031 132.055 45.7991 131.598 45.7639 131.105C45.7188 130.619 45.5289 130.119 45.1944 129.607C44.7944 128.994 44.3356 128.598 43.8181 128.42C43.2941 128.232 42.7959 128.292 42.3236 128.6C41.8915 128.882 41.6399 129.254 41.5688 129.716C41.4977 130.178 41.6244 130.669 41.9488 131.188L42.4702 131.986L41.7618 132.449L41.201 131.59C41.0567 131.369 40.8653 131.207 40.6266 131.105C40.388 131.003 40.1354 130.967 39.8688 130.998C39.6022 131.028 39.3433 131.126 39.0921 131.289C38.7002 131.545 38.4755 131.893 38.4179 132.331C38.3538 132.76 38.4956 133.241 38.8432 133.773C39.1318 134.216 39.4649 134.528 39.8425 134.712C40.2036 134.892 40.6139 134.961 41.0737 134.918L41.1632 135.978C40.5501 136.048 39.9653 135.943 39.4089 135.661C38.8459 135.369 38.3644 134.917 37.9643 134.304C37.6364 133.802 37.4365 133.309 37.3647 132.825C37.2762 132.339 37.3189 131.888 37.4927 131.474C37.6499 131.056 37.9445 130.706 38.3766 130.424C38.7485 130.181 39.1542 130.045 39.5938 130.016C40.0234 129.994 40.4235 130.091 40.7942 130.308C40.6332 129.754 40.6465 129.236 40.8343 128.755C41.0155 128.264 41.3422 127.865 41.8145 127.557C42.2868 127.248 42.7758 127.108 43.2814 127.137C43.7871 127.165 44.2746 127.341 44.7441 127.665C45.2136 127.989 45.6352 128.438 46.0091 129.011Z" fill="black"/>
<path d="M43.0752 124.599L34.5595 128.527L34.0468 127.416L37.7081 125.727L35.4613 120.856L31.8 122.545L31.2873 121.433L39.803 117.505L40.3157 118.617L36.4583 120.396L38.7051 125.267L42.5625 123.487L43.0752 124.599Z" fill="black"/>
<path d="M36.6316 116.92C36.0642 117.075 35.5338 117.045 35.0403 116.831C34.5352 116.62 34.0955 116.261 33.7211 115.753C33.332 115.238 33.035 114.603 32.8302 113.851C32.7105 113.411 32.6208 112.944 32.5611 112.45C32.5013 111.956 32.4906 111.505 32.5287 111.097L31.7645 111.305C31.0003 111.513 30.4538 111.904 30.1251 112.479C29.7964 113.053 29.7408 113.74 29.9582 114.539C30.0905 115.025 30.3139 115.48 30.6283 115.905C30.928 116.321 31.3209 116.736 31.8069 117.151L31.0961 117.83C30.5301 117.349 30.0716 116.852 29.7203 116.338C29.3575 115.828 29.0958 115.277 28.9351 114.687C28.6326 113.575 28.7116 112.608 29.172 111.787C29.6324 110.965 30.4241 110.401 31.5473 110.096L35.7331 108.957C35.8952 108.913 36.0073 108.845 36.0695 108.753C36.12 108.665 36.1306 108.544 36.1013 108.39L37.0391 108.135C37.0854 108.259 37.1269 108.366 37.1637 108.455C37.2005 108.545 37.2194 108.614 37.2204 108.664C37.2876 108.957 37.2548 109.202 37.1221 109.4C36.9894 109.597 36.8262 109.729 36.6325 109.794L35.9772 109.991C36.6085 110.254 37.1572 110.671 37.6231 111.241C38.0774 111.813 38.396 112.436 38.5787 113.107C38.7362 113.686 38.758 114.246 38.644 114.787C38.5153 115.319 38.2788 115.776 37.9344 116.155C37.5753 116.527 37.141 116.782 36.6316 116.92ZM35.6769 110.67C35.4801 110.586 35.297 110.53 35.1276 110.502C34.9581 110.473 34.8155 110.475 34.6997 110.506L33.3797 110.866C33.3363 111.3 33.3324 111.743 33.3679 112.193C33.4003 112.632 33.4748 113.066 33.5914 113.494C33.8214 114.34 34.1752 114.977 34.6527 115.407C35.1303 115.836 35.6586 115.972 36.2375 115.815C36.5733 115.723 36.8681 115.55 37.1219 115.294C37.3641 115.042 37.5379 114.721 37.6434 114.332C37.7373 113.945 37.7228 113.527 37.5999 113.075C37.4455 112.508 37.1922 112.011 36.8398 111.584C36.4844 111.146 36.0967 110.841 35.6769 110.67Z" fill="black"/>
<path d="M36.5399 105.926L27.2196 106.788L27.107 105.569L34.7783 104.86L26.5639 99.889L26.4628 98.7956L35.801 97.9325L35.9137 99.1513L28.3678 99.8488L36.4305 104.744L36.5399 105.926ZM25.6476 102.884C25.7227 103.697 25.5895 104.342 25.248 104.819C24.9065 105.296 24.443 105.562 23.8575 105.616L23.7747 104.72C24.1332 104.687 24.4197 104.528 24.6344 104.243C24.848 103.946 24.9288 103.517 24.8769 102.955C24.8261 102.406 24.6756 102.016 24.4254 101.786C24.1741 101.544 23.8555 101.423 23.4699 101.422L23.3887 100.544C23.9742 100.49 24.4786 100.666 24.9018 101.073C25.325 101.48 25.5736 102.083 25.6476 102.884Z" fill="black"/>
<path d="M36.2244 90.9837C36.172 91.6657 35.9982 92.2842 35.7029 92.8392C35.3965 93.3813 34.9994 93.8503 34.5117 94.2462C34.0249 94.6301 33.4792 94.9192 32.8746 95.1135C32.2708 95.2958 31.6399 95.3617 30.9819 95.3112C30.0965 95.2433 29.304 94.9839 28.6045 94.533C27.9049 94.0822 27.3668 93.4873 26.9903 92.7483C26.6137 92.0093 26.4608 91.1792 26.5315 90.2579C26.5985 89.3845 26.8611 88.6283 27.3193 87.9895C27.7656 87.3498 28.3421 86.8946 29.0489 86.6239L29.3349 87.8373C28.8361 88.0638 28.4367 88.4062 28.1368 88.8646C27.8258 89.3102 27.6482 89.8201 27.6042 90.3944C27.5564 91.0165 27.6743 91.5973 27.9579 92.1365C28.2415 92.6758 28.6525 93.1226 29.191 93.4768C29.7304 93.8191 30.359 94.0178 31.0769 94.0729C31.7828 94.127 32.4349 94.0206 33.0331 93.7536C33.6313 93.4866 34.1236 93.1092 34.51 92.6213C34.8845 92.1325 35.0957 91.577 35.1434 90.9549C35.1746 90.5481 35.1327 90.1537 35.0175 89.7718C34.9034 89.3779 34.7372 89.0342 34.519 88.7406C34.2898 88.4342 34.0352 88.2221 33.7554 88.1043L34.2066 86.9294C34.6365 87.1309 35.0157 87.4428 35.3444 87.8652C35.662 88.2747 35.9023 88.7505 36.0653 89.2925C36.2172 89.8217 36.2703 90.3854 36.2244 90.9837Z" fill="black"/>
<path d="M36.5806 85.5181L33.5006 81.913C33.2593 82.5092 32.8708 82.9469 32.3353 83.226C31.7908 83.4906 31.1276 83.5294 30.3456 83.3425C29.8204 83.2169 29.3829 82.9827 29.033 82.6399C28.6831 82.2972 28.4387 81.8747 28.2996 81.3726C28.1634 80.8589 28.1678 80.2985 28.3129 79.6916L29.146 76.2079L38.2843 78.393L37.9997 79.5834L34.4634 78.7379L33.9778 80.7686L36.8987 84.1876L36.5806 85.5181ZM33.0005 80.831L33.553 78.5202L29.8066 77.6243L29.3043 79.7251C29.1592 80.332 29.2184 80.8582 29.4821 81.3037C29.734 81.7465 30.1226 82.0306 30.6478 82.1562C31.1846 82.2846 31.6747 82.2475 32.1179 82.0451C32.564 81.8309 32.8581 81.4262 33.0005 80.831Z" fill="black"/>
<path d="M42.1604 68.399L40.2992 64.0379C39.8907 64.5347 39.3891 64.8363 38.7946 64.9424C38.1959 65.0322 37.5514 64.8709 36.8611 64.4587C36.3975 64.1819 36.05 63.8276 35.8186 63.3959C35.5872 62.9642 35.4803 62.488 35.4977 61.9673C35.5213 61.4363 35.6931 60.9029 36.013 60.3671L37.8495 57.2918L45.9166 62.1092L45.289 63.1601L42.1673 61.2959L41.0967 63.0886L42.8618 67.2245L42.1604 68.399ZM40.1455 62.8559L41.3637 60.816L38.0565 58.841L36.949 60.6955C36.6291 61.2312 36.5283 61.7511 36.6467 62.2551C36.7547 62.7529 37.0405 63.1402 37.5042 63.4171C37.9781 63.7001 38.4568 63.8113 38.9403 63.7506C39.43 63.6796 39.8317 63.3814 40.1455 62.8559Z" fill="black"/>
<path d="M47.2546 60.1298L40.0006 54.1861L40.7764 53.2394L43.8813 55.7834L44.7711 54.6974L43.6626 49.7168L44.5525 48.6308L45.8048 54.2878L52.0917 54.2263L51.179 55.3402L45.6482 55.4161L44.7584 56.5021L48.0304 59.183L47.2546 60.1298Z" fill="black"/>
<path d="M59.8356 47.2607L54.71 39.4073L61.0258 35.2852L66.1514 43.1386L65.1264 43.8075L60.6009 36.8737L56.3351 39.6578L60.8606 46.5917L59.8356 47.2607Z" fill="black"/>
<path d="M72.5923 40.2167C71.877 40.5277 71.1519 40.6206 70.4169 40.4952C69.693 40.3651 69.0463 40.0967 68.4769 39.69L70.7809 44.9888L69.6584 45.4769L64.3901 33.3607L65.397 32.9228L66.122 34.5901C66.2287 33.9025 66.4963 33.2692 66.925 32.6903C67.3489 32.1003 67.8855 31.6642 68.5348 31.3818C69.1291 31.1234 69.7288 31.0131 70.3341 31.0509C70.9346 31.0777 71.5073 31.2212 72.0523 31.4815C72.5973 31.7418 73.0861 32.0985 73.5186 32.5516C73.9574 32.9889 74.3012 33.4936 74.55 34.0659C74.8993 34.8692 75.0572 35.6838 75.0238 36.5097C74.9965 37.3197 74.7798 38.0551 74.3736 38.7159C73.9674 39.3767 73.3736 39.877 72.5923 40.2167ZM71.848 39.3626C72.3212 39.1569 72.7042 38.8791 72.997 38.5294C73.285 38.1686 73.4893 37.7657 73.6099 37.3207C73.7415 36.8709 73.7903 36.4114 73.7563 35.942C73.7175 35.4616 73.6024 35.0013 73.411 34.5611C73.21 34.0989 72.9361 33.6946 72.5892 33.3482C72.2533 32.997 71.8674 32.7265 71.4315 32.5365C70.9956 32.3466 70.5444 32.2418 70.0779 32.2222C69.6114 32.2026 69.1526 32.2909 68.7014 32.4871C68.4152 32.6115 68.142 32.7957 67.8818 33.0398C67.6215 33.2838 67.3937 33.5726 67.1985 33.9061C67.0095 34.2238 66.8765 34.5498 66.7995 34.8843C66.7225 35.2188 66.7242 35.5386 66.8046 35.8439L67.953 38.485C68.3061 38.8156 68.703 39.0814 69.1437 39.2823C69.5796 39.4723 70.0332 39.5826 70.5045 39.6132C70.982 39.628 71.4298 39.5445 71.848 39.3626Z" fill="black"/>
<path d="M82.1107 37.0325C81.4561 37.1846 80.8198 37.2031 80.2017 37.0879C79.5926 36.9584 79.0332 36.7249 78.5237 36.3875C78.0231 36.0356 77.5965 35.6049 77.2441 35.0955C76.889 34.5743 76.6381 33.9981 76.4915 33.367C76.3394 32.7124 76.3093 32.0788 76.401 31.4661C76.49 30.8418 76.6889 30.2659 76.9975 29.7383C77.3034 29.1991 77.7026 28.743 78.1949 28.3699C78.6963 27.9824 79.2742 27.7126 79.9288 27.5606C80.5833 27.4085 81.2152 27.3972 81.8243 27.5268C82.4307 27.6446 82.99 27.8781 83.5023 28.2272C84.0119 28.5647 84.4442 28.994 84.7994 29.5152C85.1518 30.0246 85.404 30.6066 85.5561 31.2612C85.7027 31.8924 85.7315 32.5202 85.6425 33.1445C85.5507 33.7572 85.3519 34.3331 85.046 34.8723C84.749 35.3971 84.3499 35.8533 83.8486 36.2407C83.3562 36.6138 82.7769 36.8778 82.1107 37.0325ZM77.7053 33.1035C77.8628 33.7814 78.1528 34.367 78.5754 34.8601C79.0069 35.3389 79.512 35.6836 80.0907 35.8941C80.6666 36.0929 81.2585 36.1217 81.8663 35.9805C82.4741 35.8393 82.9913 35.5467 83.4179 35.1027C83.8445 34.6586 84.1445 34.1208 84.3181 33.4891C84.489 32.8458 84.497 32.191 84.3422 31.5247C84.1848 30.8468 83.8889 30.2626 83.4546 29.7721C83.0204 29.2816 82.514 28.9311 81.9353 28.7206C81.3567 28.5101 80.7634 28.4754 80.1556 28.6166C79.5478 28.7578 79.032 29.0563 78.6081 29.512C78.1959 29.965 77.903 30.5074 77.7295 31.139C77.5532 31.759 77.5451 32.4138 77.7053 33.1035Z" fill="black"/>
<path d="M88.7231 35.5244L88.1095 26.1665L89.3309 26.0864L89.5935 30.0918L90.9945 29.9999L93.8752 25.7885L95.2762 25.6966L91.9998 30.4752L96.3387 35.0251L94.9018 35.1193L91.0687 31.1315L89.6677 31.2234L89.9445 35.4443L88.7231 35.5244Z" fill="black"/>
<path d="M97.2446 32.278C97.2986 31.6925 97.5122 31.206 97.8854 30.8187C98.2597 30.4194 98.75 30.1332 99.3565 29.9602C99.976 29.7764 100.674 29.7203 101.451 29.7919C101.905 29.8338 102.374 29.9132 102.857 30.0301C103.34 30.147 103.766 30.2948 104.136 30.4735L104.208 29.6849C104.281 28.8962 104.106 28.2474 103.683 27.7383C103.26 27.2293 102.636 26.9368 101.812 26.8607C101.31 26.8144 100.805 26.8642 100.298 27.0102C99.803 27.1453 99.2763 27.3679 98.7175 27.6778L98.3309 26.7745C98.9789 26.4125 99.605 26.157 100.209 26.0079C100.815 25.8468 101.422 25.7944 102.031 25.8506C103.179 25.9565 104.056 26.3689 104.665 27.0878C105.273 27.8068 105.524 28.7458 105.417 29.9049L105.019 34.2245C105.003 34.3918 105.027 34.5206 105.091 34.6108C105.157 34.6891 105.266 34.7414 105.42 34.7677L105.331 35.7356C105.199 35.7354 105.084 35.7369 104.987 35.74C104.891 35.7432 104.819 35.7366 104.772 35.7202C104.475 35.6807 104.256 35.5641 104.118 35.3706C103.979 35.177 103.913 34.9781 103.92 34.7738L103.964 34.0911C103.497 34.5902 102.914 34.9583 102.218 35.1952C101.522 35.4203 100.828 35.5008 100.135 35.4369C99.5371 35.3817 99.005 35.2061 98.5382 34.91C98.0845 34.603 97.7401 34.2217 97.505 33.7662C97.2829 33.2998 97.1961 32.8037 97.2446 32.278ZM103.434 33.5721C103.581 33.417 103.697 33.265 103.783 33.1163C103.869 32.9676 103.918 32.8335 103.929 32.714L104.055 31.3518C103.663 31.1589 103.249 31.0003 102.815 30.8759C102.393 30.7525 101.96 30.6705 101.518 30.6297C100.646 30.5492 99.9248 30.6574 99.3551 30.9543C98.7855 31.2512 98.473 31.6984 98.4179 32.2959C98.3859 32.6424 98.4452 32.9793 98.5958 33.3065C98.7475 33.6217 98.9872 33.8969 99.315 34.1321C99.6439 34.3552 100.041 34.4883 100.507 34.5313C101.093 34.5853 101.647 34.522 102.17 34.3413C102.705 34.1616 103.126 33.9053 103.434 33.5721Z" fill="black"/>
<path d="M113.057 37.4809L114.028 33.679C113.612 33.7584 113.188 33.7926 112.757 33.7817C112.33 33.7591 111.883 33.6884 111.418 33.5696C110.418 33.3142 109.728 32.8654 109.347 32.2231C108.978 31.5838 108.928 30.7352 109.199 29.6772L109.885 26.9914L111.071 27.2943L110.425 29.8231C110.217 30.637 110.228 31.2715 110.459 31.7268C110.701 32.1849 111.188 32.5076 111.92 32.6947C112.327 32.7986 112.746 32.8561 113.177 32.867C113.608 32.8779 113.97 32.8405 114.265 32.7547L115.378 28.3947L116.564 28.6976L114.243 37.7839L113.057 37.4809Z" fill="black"/>
<path d="M117.121 35.7549C117.355 35.2158 117.71 34.8207 118.186 34.5696C118.667 34.3076 119.222 34.1894 119.852 34.2149C120.498 34.2343 121.178 34.3996 121.894 34.7109C122.312 34.8928 122.732 35.115 123.154 35.3773C123.577 35.6397 123.935 35.9135 124.23 36.1988L124.546 35.4726C124.862 34.7464 124.899 34.0753 124.657 33.4594C124.414 32.8436 123.913 32.3704 123.154 32.04C122.692 31.8389 122.197 31.7282 121.669 31.7079C121.157 31.6814 120.588 31.7279 119.96 31.8473L119.875 30.8683C120.604 30.7274 121.279 30.6807 121.899 30.7283C122.525 30.7649 123.118 30.9053 123.679 31.1495C124.735 31.6092 125.44 32.2757 125.793 33.1491C126.146 34.0224 126.09 34.9927 125.625 36.06L123.894 40.0377C123.827 40.1917 123.81 40.3216 123.842 40.4274C123.88 40.5221 123.967 40.6061 124.106 40.6794L123.718 41.5706C123.592 41.529 123.483 41.4945 123.39 41.4672C123.297 41.4399 123.231 41.4111 123.192 41.381C122.922 41.2503 122.751 41.0713 122.68 40.844C122.608 40.6167 122.608 40.4071 122.678 40.2152L122.935 39.5809C122.334 39.9084 121.666 40.0757 120.93 40.0826C120.199 40.0785 119.514 39.9376 118.876 39.6599C118.326 39.4204 117.876 39.087 117.525 38.6596C117.19 38.226 116.983 37.7561 116.902 37.2498C116.837 36.7374 116.91 36.2391 117.121 35.7549ZM122.593 38.9219C122.781 38.8205 122.94 38.7127 123.068 38.5984C123.196 38.4841 123.284 38.3719 123.332 38.2619L123.878 37.0075C123.566 36.7017 123.223 36.4216 122.85 36.1674C122.487 35.918 122.102 35.7047 121.695 35.5276C120.892 35.178 120.173 35.055 119.539 35.1586C118.905 35.2622 118.469 35.5891 118.229 36.1393C118.09 36.4584 118.041 36.7969 118.082 37.1548C118.127 37.5017 118.269 37.8381 118.506 38.164C118.749 38.4789 119.085 38.7298 119.514 38.9165C120.053 39.1512 120.599 39.2645 121.152 39.2566C121.716 39.2534 122.197 39.1419 122.593 38.9219Z" fill="black"/>
<path d="M127.82 43.9598L132.223 36.9477L129.388 35.1672L129.971 34.2374L136.679 38.4491L136.095 39.379L133.259 37.5986L128.856 44.6107L127.82 43.9598Z" fill="black"/>
<path d="M132.439 46.8512L138.582 39.7884L139.505 40.5916L134.45 46.4049L143.823 44.3224L144.651 45.043L138.497 52.1193L137.574 51.3161L142.546 45.598L133.336 47.6308L132.439 46.8512Z" fill="black"/>
<path d="M148.224 64.8536C147.875 64.2651 147.663 63.6588 147.586 63.0347C147.526 62.4149 147.582 61.803 147.754 61.1989C147.933 60.6052 148.214 60.0553 148.598 59.5492C148.987 59.0535 149.466 58.6375 150.034 58.3012C150.798 57.8488 151.596 57.6065 152.428 57.5744C153.259 57.5422 154.041 57.7207 154.774 58.1098C155.506 58.499 156.108 59.0911 156.579 59.8862C157.025 60.64 157.244 61.4099 157.235 62.1961C157.237 62.9761 157.026 63.6797 156.602 64.307L155.672 63.4773C155.95 63.0056 156.081 62.4959 156.063 61.9484C156.062 61.4051 155.915 60.8856 155.622 60.39C155.304 59.853 154.874 59.4451 154.332 59.1661C153.791 58.8872 153.198 58.7571 152.553 58.776C151.915 58.8052 151.286 59.0032 150.667 59.37C150.058 59.7307 149.585 60.192 149.248 60.7539C148.911 61.3158 148.725 61.9074 148.688 62.5287C148.662 63.1439 148.808 63.72 149.126 64.257C149.333 64.608 149.594 64.9069 149.908 65.1537C150.227 65.4108 150.56 65.5969 150.908 65.7121C151.271 65.8316 151.601 65.8592 151.898 65.7951L152.203 67.0163C151.735 67.0979 151.245 67.0601 150.734 66.9027C150.239 66.7496 149.769 66.4978 149.324 66.1474C148.896 65.8012 148.529 65.3699 148.224 64.8536Z" fill="black"/>
<path d="M151.125 69.6358L159.831 66.1513L161.57 70.4962C161.767 70.9864 161.826 71.441 161.748 71.8599C161.681 72.2744 161.52 72.6298 161.263 72.9263C161.012 73.2338 160.702 73.4612 160.334 73.6083C159.866 73.7956 159.398 73.8536 158.93 73.7824C158.474 73.7067 158.066 73.4951 157.707 73.1476C157.763 73.7069 157.664 74.2183 157.41 74.6818C157.156 75.1454 156.762 75.4842 156.227 75.6982C155.759 75.8855 155.305 75.9312 154.866 75.8355C154.432 75.7509 154.04 75.546 153.69 75.2207C153.344 74.9066 153.069 74.4933 152.864 73.9808L151.125 69.6358ZM152.378 70.3944L153.669 73.6196C153.785 73.9093 153.962 74.1421 154.201 74.3181C154.455 74.5008 154.731 74.6099 155.03 74.6455C155.333 74.6923 155.618 74.6621 155.886 74.5551C156.175 74.4392 156.41 74.2676 156.591 74.0402C156.782 73.8084 156.906 73.5522 156.962 73.2714C157.017 72.9906 156.987 72.7054 156.871 72.4157L155.554 69.1236L152.378 70.3944ZM156.339 68.8092L157.523 71.7671C157.639 72.0568 157.819 72.2818 158.064 72.4422C158.31 72.6026 158.579 72.695 158.873 72.7195C159.168 72.7439 159.448 72.7027 159.716 72.5957C160.117 72.4351 160.414 72.161 160.608 71.7732C160.806 71.3966 160.823 71.0022 160.658 70.59L159.447 67.5652L156.339 68.8092Z" fill="black"/>
<path d="M155.182 82.1892C155.04 81.5325 155.031 80.8959 155.156 80.2797C155.294 79.6726 155.536 79.1168 155.881 78.6123C156.241 78.1171 156.678 77.6971 157.192 77.3523C157.719 77.0051 158.299 76.7629 158.932 76.6257C159.589 76.4835 160.223 76.4629 160.834 76.5638C161.457 76.6622 162.03 76.8697 162.553 77.1862C163.087 77.5002 163.537 77.9062 163.903 78.404C164.283 78.9111 164.544 79.4931 164.686 80.1498C164.828 80.8066 164.83 81.4386 164.691 82.0457C164.565 82.6502 164.323 83.206 163.966 83.713C163.621 84.2174 163.185 84.6433 162.659 84.9906C162.144 85.3353 161.558 85.5788 160.901 85.721C160.268 85.8581 159.64 85.8775 159.017 85.7791C158.406 85.6781 157.833 85.4707 157.298 85.1567C156.778 84.8519 156.328 84.4459 155.948 83.9389C155.582 83.441 155.327 82.8578 155.182 82.1892ZM159.177 77.8434C158.497 77.9907 157.907 78.2719 157.408 78.687C156.923 79.1113 156.57 79.6112 156.351 80.1866C156.144 80.7595 156.106 81.3508 156.238 81.9607C156.37 82.5706 156.655 83.0921 157.093 83.5253C157.53 83.9585 158.063 84.2666 158.692 84.4497C159.333 84.6302 159.988 84.648 160.656 84.5033C161.336 84.356 161.925 84.0689 162.422 83.6421C162.919 83.2153 163.277 82.7142 163.496 82.1387C163.715 81.5633 163.759 80.9707 163.627 80.3608C163.495 79.7509 163.204 79.2307 162.755 78.8C162.308 78.3811 161.77 78.0801 161.141 77.897C160.524 77.7115 159.869 77.6936 159.177 77.8434Z" fill="black"/>
<path d="M156.559 89.3266L165.903 88.5347L166.006 89.7543L156.662 90.5463L156.559 89.3266ZM167.823 87.1074L169.509 86.9646L169.597 88.0048L167.912 88.1477L167.823 87.1074ZM168.05 89.7799L169.736 89.637L169.824 90.6773L168.138 90.8201L168.05 89.7799Z" fill="black"/>
<path d="M155.69 106.585C155.815 105.913 156.055 105.317 156.408 104.797C156.771 104.291 157.217 103.867 157.744 103.526C158.27 103.197 158.843 102.969 159.465 102.841C160.085 102.724 160.72 102.727 161.368 102.848C162.241 103.011 163.001 103.354 163.648 103.878C164.295 104.402 164.766 105.051 165.06 105.826C165.355 106.602 165.418 107.443 165.248 108.352C165.087 109.213 164.745 109.936 164.22 110.522C163.707 111.11 163.085 111.5 162.353 111.693L162.2 110.456C162.72 110.285 163.154 109.987 163.502 109.564C163.859 109.154 164.09 108.667 164.196 108.1C164.311 107.487 164.256 106.897 164.032 106.33C163.809 105.764 163.448 105.275 162.951 104.865C162.452 104.466 161.848 104.201 161.14 104.069C160.444 103.939 159.785 103.974 159.161 104.175C158.538 104.376 158.008 104.699 157.571 105.142C157.146 105.587 156.876 106.117 156.761 106.73C156.687 107.131 156.686 107.528 156.759 107.92C156.83 108.324 156.958 108.684 157.143 108.999C157.338 109.328 157.568 109.567 157.834 109.714L157.259 110.833C156.853 110.587 156.51 110.236 156.228 109.78C155.957 109.339 155.769 108.84 155.666 108.283C155.572 107.741 155.58 107.175 155.69 106.585Z" fill="black"/>
<path d="M153.115 116.16C153.35 115.53 153.687 114.99 154.124 114.538C154.569 114.102 155.072 113.765 155.635 113.527C156.205 113.304 156.8 113.187 157.419 113.174C158.05 113.166 158.669 113.276 159.276 113.502C159.905 113.737 160.45 114.062 160.91 114.477C161.381 114.897 161.751 115.381 162.02 115.929C162.301 116.482 162.46 117.067 162.499 117.684C162.545 118.316 162.45 118.946 162.215 119.576C161.98 120.206 161.64 120.738 161.196 121.174C160.762 121.615 160.259 121.952 159.685 122.186C159.122 122.424 158.525 122.547 157.895 122.555C157.275 122.567 156.651 122.456 156.021 122.221C155.414 121.994 154.875 121.671 154.404 121.252C153.944 120.837 153.574 120.353 153.293 119.8C153.02 119.262 152.861 118.678 152.815 118.046C152.776 117.429 152.876 116.801 153.115 116.16ZM158.824 114.66C158.172 114.416 157.524 114.334 156.88 114.414C156.242 114.509 155.676 114.739 155.18 115.105C154.696 115.475 154.345 115.953 154.127 116.537C153.909 117.122 153.867 117.715 154.001 118.316C154.136 118.917 154.418 119.464 154.849 119.958C155.29 120.456 155.832 120.824 156.472 121.063C157.124 121.307 157.775 121.383 158.424 121.292C159.072 121.201 159.644 120.973 160.14 120.607C160.635 120.241 160.991 119.766 161.21 119.181C161.428 118.597 161.464 118.002 161.319 117.397C161.169 116.803 160.879 116.259 160.448 115.765C160.029 115.276 159.488 114.907 158.824 114.66Z" fill="black"/>
<path d="M145.269 124.338L148.546 126.328L148.761 125.974C149.24 125.184 149.842 124.609 150.567 124.249C151.291 123.889 152.047 123.73 152.835 123.773C153.633 123.823 154.392 124.066 155.109 124.502C155.838 124.944 156.408 125.508 156.82 126.194C157.226 126.889 157.436 127.642 157.45 128.45C157.464 129.259 157.234 130.054 156.761 130.833L156.546 131.187L159.777 133.149L159.141 134.195L155.911 132.233L155.696 132.587C155.222 133.366 154.623 133.936 153.899 134.297C153.175 134.657 152.414 134.812 151.615 134.763C150.811 134.724 150.044 134.483 149.316 134.04C148.598 133.604 148.033 133.044 147.621 132.358C147.219 131.679 147.012 130.935 146.997 130.126C146.983 129.317 147.216 128.518 147.696 127.728L147.911 127.374L144.634 125.384L145.269 124.338ZM149.638 126.507L149.404 126.891L155.65 130.685L155.884 130.3C156.22 129.747 156.376 129.167 156.35 128.562C156.335 127.963 156.161 127.394 155.828 126.855C155.506 126.322 155.053 125.878 154.468 125.523C153.894 125.175 153.299 124.975 152.684 124.924C152.063 124.884 151.483 124.995 150.944 125.257C150.416 125.526 149.98 125.943 149.638 126.507ZM148.815 127.861L148.573 128.261C148.23 128.825 148.061 129.403 148.066 129.996C148.081 130.595 148.253 131.156 148.582 131.678C148.904 132.211 149.353 132.652 149.927 133C150.512 133.355 151.114 133.553 151.736 133.594C152.367 133.64 152.952 133.532 153.491 133.27C154.034 133.023 154.476 132.618 154.819 132.054L155.062 131.654L148.815 127.861Z" fill="black"/>
<path d="M142.96 134.281L149.247 139.668L151.426 137.126L152.259 137.84L147.106 143.855L146.272 143.14L148.451 140.598L142.163 135.21L142.96 134.281Z" fill="black"/>
<path d="M128.655 146.617C129.234 146.251 129.833 146.021 130.455 145.927C131.073 145.848 131.686 145.887 132.295 146.041C132.894 146.202 133.451 146.467 133.968 146.836C134.475 147.211 134.905 147.678 135.258 148.236C135.732 148.986 135.998 149.777 136.054 150.607C136.11 151.437 135.955 152.224 135.587 152.968C135.219 153.711 134.645 154.33 133.864 154.824C133.124 155.292 132.36 155.533 131.574 155.547C130.795 155.571 130.085 155.381 129.446 154.976L130.248 154.021C130.728 154.286 131.241 154.402 131.788 154.369C132.331 154.352 132.846 154.19 133.333 153.882C133.86 153.548 134.255 153.107 134.518 152.557C134.781 152.008 134.894 151.411 134.857 150.768C134.809 150.131 134.593 149.508 134.208 148.899C133.83 148.301 133.355 147.842 132.783 147.521C132.212 147.201 131.615 147.032 130.993 147.013C130.377 147.005 129.806 147.168 129.278 147.501C128.933 147.719 128.642 147.988 128.404 148.309C128.157 148.636 127.98 148.974 127.875 149.325C127.767 149.691 127.749 150.022 127.821 150.317L126.61 150.657C126.514 150.192 126.538 149.702 126.68 149.186C126.819 148.686 127.057 148.209 127.394 147.755C127.728 147.317 128.148 146.938 128.655 146.617Z" fill="black"/>
<path d="M123.904 149.674L127.643 158.274L126.521 158.762L124.92 155.081L123.633 155.641L122.345 160.578L121.057 161.138L122.526 155.533L116.905 152.717L118.226 152.143L123.181 154.601L124.468 154.041L122.781 150.162L123.904 149.674Z" fill="black"/>
<path d="M115.073 153.229L117.804 162.201L116.633 162.557L113.902 153.586L115.073 153.229ZM118.375 164.078L118.9 165.8L117.729 166.156L117.204 164.434L118.375 164.078Z" fill="black"/>
<path d="M111.938 154.311L112.133 155.41C111.814 155.467 111.545 155.6 111.327 155.809C111.11 156.03 110.944 156.365 110.828 156.812C110.701 157.261 110.642 157.856 110.651 158.598C110.663 159.351 110.751 160.293 110.915 161.421L111.264 164.01L105.274 165.073L103.636 155.839L104.841 155.625L106.287 163.778L110.009 163.118L109.761 161.516C109.582 160.232 109.493 159.145 109.494 158.255C109.496 157.377 109.595 156.665 109.791 156.118C109.975 155.574 110.248 155.159 110.612 154.875C110.976 154.592 111.418 154.403 111.938 154.311Z" fill="black"/>
<path d="M101.394 156.154L101.433 165.514L100.209 165.519L100.177 157.815L94.5036 165.561L93.4056 165.565L93.3661 156.188L94.5901 156.182L94.622 163.76L100.206 156.159L101.394 156.154Z" fill="black"/>
</svg>
