<svg width="274" height="237" viewBox="0 0 274 237" fill="none" xmlns="http://www.w3.org/2000/svg">
<mask id="mask0_147_482" style="mask-type:alpha" maskUnits="userSpaceOnUse" x="60" y="6" width="164" height="194">
<path fill-rule="evenodd" clip-rule="evenodd" d="M68.0281 150.827C57.1712 131.168 60.0666 108.729 61.677 86.3295C63.5773 59.8957 56.1367 26.5455 78.0358 11.6194C99.9157 -3.29344 127.962 16.6863 153.478 23.7597C174.968 29.717 199.26 31.153 212.699 48.9493C226.435 67.1383 224.57 91.4937 221.704 114.105C218.65 138.199 214.668 163.639 196.169 179.375C176.318 196.261 148.7 203.511 123.262 197.844C98.7284 192.378 80.1794 172.829 68.0281 150.827Z" fill="#5A61F0"/>
</mask>
<g mask="url(#mask0_147_482)">
<path fill-rule="evenodd" clip-rule="evenodd" d="M68.0281 150.827C57.1712 131.168 60.0666 108.729 61.677 86.3295C63.5773 59.8957 56.1367 26.5455 78.0358 11.6194C99.9157 -3.29344 127.962 16.6863 153.478 23.7597C174.968 29.717 199.26 31.153 212.699 48.9493C226.435 67.1383 224.57 91.4937 221.704 114.105C218.65 138.199 214.668 163.639 196.169 179.375C176.318 196.261 148.7 203.511 123.262 197.844C98.7284 192.378 80.1794 172.829 68.0281 150.827Z" fill="#5A61F0"/>
<path d="M319.46 152.456C316.517 171.626 302.884 187.445 282.935 197.45C262.99 207.453 236.847 211.568 209.248 207.332C181.649 203.095 157.944 191.329 141.917 175.805C125.887 160.278 117.626 141.098 120.568 121.928C123.511 102.757 137.144 86.9382 157.093 76.9336C177.038 66.9309 203.18 62.8157 230.78 67.0519C258.379 71.2882 282.084 83.0547 298.111 98.5787C314.141 114.106 322.402 133.285 319.46 152.456Z" stroke="white" stroke-width="3"/>
<path d="M323.316 137.67C322.486 154.359 311.633 169.146 294.388 179.502C277.153 189.851 253.679 195.664 228.058 194.391C202.437 193.118 179.655 185.006 163.531 172.999C147.398 160.985 138.064 145.194 138.893 128.505C139.723 111.816 150.576 97.0279 167.821 86.6726C185.056 76.3234 208.53 70.5103 234.151 71.7835C259.772 73.0568 282.554 81.1686 298.678 93.1757C314.811 105.19 324.145 120.981 323.316 137.67Z" stroke="white" stroke-width="3"/>
<path d="M323.097 142.051C322.529 153.497 313.474 163.765 298.569 170.962C283.722 178.131 263.407 182.058 241.155 180.952C218.903 179.846 199.076 173.924 185.014 165.319C170.896 156.68 162.904 145.564 163.473 134.118C164.041 122.672 173.096 112.403 188.001 105.207C202.847 98.0384 223.163 94.1114 245.415 95.2172C267.667 96.323 287.494 102.245 301.556 110.85C315.674 119.489 323.666 130.605 323.097 142.051Z" stroke="white" stroke-width="3"/>
</g>
</svg>
