<svg width="159" height="168" viewBox="0 0 159 168" fill="none" xmlns="http://www.w3.org/2000/svg">
<circle opacity="0.1" cx="80.257" cy="84.8005" r="78.7429" fill="#C90101"/>
<circle opacity="0.2" cx="79.4998" cy="84.0438" r="59.8143" fill="#C90101"/>
<path d="M41.6429 84.0013C41.6429 104.899 58.5921 121.839 79.5 121.839C100.408 121.839 117.357 104.899 117.357 84.0013C117.357 63.1041 100.408 46.1635 79.5 46.1635C58.5921 46.1635 41.6429 63.1041 41.6429 84.0013Z" fill="#C90101"/>
<path fill-rule="evenodd" clip-rule="evenodd" d="M79.5 49.7108C98.4478 49.7108 113.808 65.0632 113.808 84.0013C113.808 102.939 98.4478 118.292 79.5 118.292C60.5522 118.292 45.192 102.939 45.192 84.0013C45.192 65.0632 60.5522 49.7108 79.5 49.7108ZM120.906 84.0013C120.906 61.145 102.368 42.6162 79.5 42.6162C56.632 42.6162 38.0938 61.145 38.0938 84.0013C38.0938 106.858 56.632 125.386 79.5 125.386C102.368 125.386 120.906 106.858 120.906 84.0013Z" fill="#C90101"/>
<path d="M89.4994 93.4994L70.5 74.5" stroke="white" stroke-width="4" stroke-miterlimit="10" stroke-linecap="round" stroke-linejoin="round"/>
<path d="M89.4995 74.501L70.5001 93.5004" stroke="white" stroke-width="4" stroke-miterlimit="10" stroke-linecap="round" stroke-linejoin="round"/>
</svg>
