<svg width="217" height="73" viewBox="0 0 217 73" fill="none" xmlns="http://www.w3.org/2000/svg">
    <path d="M86.4219 33.9089L92.2344 33.7683C92.7344 33.7683 93.7812 33.987 95.375 34.4245C97.1875 36.1433 98.2656 37.487 98.6094 38.4558C99.2969 39.1745 99.8438 40.5964 100.25 42.7214C100.75 43.2214 101 44.3308 101 46.0495L101.047 47.2214L100.859 51.862C100.859 52.7995 101.438 53.9558 102.594 55.3308C103.656 56.362 104.344 56.8777 104.656 56.8777V56.9714C104.656 57.3464 104.109 57.9402 103.016 58.7527C102.203 59.5652 101.688 59.9714 101.469 59.9714H101.422C100.922 59.9089 99.6562 58.987 97.625 57.2058C93.9375 58.6433 92.0781 59.3777 92.0469 59.4089C90.8281 59.7839 89.4688 59.9714 87.9688 59.9714H87.7344C86.0469 59.6902 84.6094 59.0339 83.4219 58.0027C83.2031 57.8152 82.75 57.0339 82.0625 55.6589C81.5 54.9714 81.2188 54.1277 81.2188 53.1277V51.7683C81.2188 50.8933 81.4531 50.0808 81.9219 49.3308C82.3281 48.0495 83.0312 46.8308 84.0312 45.6745C84.5312 45.0808 85.0312 44.7058 85.5312 44.5495C87.1562 43.6745 88.7656 43.237 90.3594 43.237L92.4688 43.1902H92.75C93.9375 43.1902 94.7812 43.362 95.2812 43.7058H95.5625C95.7188 43.7058 95.7969 43.6433 95.7969 43.5183C95.4531 42.0495 94.8906 40.6433 94.1094 39.2995C93.4219 38.1433 92.1406 37.5652 90.2656 37.5652L88.3438 37.2839C86.6875 37.6277 85.8594 37.9714 85.8594 38.3152C85.2031 39.1589 84.8125 40.2058 84.6875 41.4558C84.625 41.612 84.0625 41.6902 83 41.6902L82.7188 41.7839C82.5938 41.7839 82.4375 42.0495 82.25 42.5808C81.375 42.4558 80.9375 42.2683 80.9375 42.0183C81 41.8308 81.1094 40.7058 81.2656 38.6433C81.7656 37.2058 82.9531 35.8777 84.8281 34.6589C85.7031 34.1589 86.2344 33.9089 86.4219 33.9089ZM91.6719 34.7058L91.5781 34.8464L91.7188 35.0339H92L92.0469 34.9402L91.9062 34.7058H91.6719ZM95.2344 35.0808H95.1406V35.1745C95.3906 35.4245 95.6094 35.5495 95.7969 35.5495H95.8438V35.4558C95.5938 35.2058 95.3906 35.0808 95.2344 35.0808ZM87.7344 35.3152V35.4558C87.7656 35.5495 87.9219 35.5964 88.2031 35.5964C88.4844 35.5964 88.875 35.5027 89.375 35.3152V35.1277H89.1875C88.5 35.1277 88.0156 35.1902 87.7344 35.3152ZM83.5156 36.8152V36.9089H83.5625C83.8438 36.9089 84.2656 36.612 84.8281 36.0183V35.8777H84.7812C84.4688 35.8777 84.0469 36.1902 83.5156 36.8152ZM90.0312 36.487L89.7969 36.6745L89.9375 36.9089H90.5469L90.6875 36.7683L90.4062 36.487H90.0312ZM83.1406 40.2839L83 40.3777V41.0808H83.0469C83.1719 41.0495 83.2344 40.9402 83.2344 40.7527V40.3777L83.1406 40.2839ZM100.156 44.0339H100.109V44.1277C100.172 44.3777 100.234 44.5027 100.297 44.5027L100.344 44.2683C100.281 44.112 100.219 44.0339 100.156 44.0339ZM99.0781 45.6745L98.9375 45.7683V45.9089C99.0625 46.3777 99.1875 46.612 99.3125 46.612H99.4062C99.4062 46.2058 99.3125 45.8933 99.125 45.6745H99.0781ZM85.3438 45.9558L84.8281 46.1902V46.4245H84.9219C85.1406 46.4245 85.2969 46.2995 85.3906 46.0495V45.9558H85.3438ZM84.8281 50.4089C85.0469 52.2839 85.3125 53.2214 85.625 53.2214L86.0938 53.8308V53.8777L85.6719 53.8308V53.9714C86.2656 54.7839 87.4844 55.5339 89.3281 56.2214C89.5469 56.3464 89.8594 56.4402 90.2656 56.5027C90.8281 56.5027 92.9844 55.5808 96.7344 53.737C96.9844 53.5808 97.1094 53.4089 97.1094 53.2214V52.987C96.8281 51.7058 96.5938 50.2058 96.4062 48.487L96.3125 48.4402C96.3125 48.0964 95.9688 47.8152 95.2812 47.5964C92.9688 46.9402 91.3906 46.612 90.5469 46.612C88.1719 47.1433 86.5469 47.9402 85.6719 49.0027C85.1094 49.5652 84.8281 50.0339 84.8281 50.4089ZM98.9375 47.362L98.7969 47.2683V47.4089H98.9375V47.362ZM99.125 48.2527H98.8438V48.4402L98.9844 48.5808L99.125 48.4402V48.2527ZM97.625 49.4245L97.4844 49.5652L97.625 49.7527L97.8125 49.7058V49.5652L97.6719 49.4245H97.625ZM99.3125 49.5652H99.1719V49.612C99.2344 50.7995 99.3594 51.3933 99.5469 51.3933L99.6406 51.2995V51.2058C99.6406 50.5495 99.5312 50.0027 99.3125 49.5652ZM97.4844 51.0652L97.4375 51.112V51.3933L97.5781 51.5808H97.625L97.8125 51.3933V51.112L97.6719 51.0652H97.4844ZM101.469 55.4714H101.328V55.7527C101.453 56.1589 101.594 56.362 101.75 56.362H101.891V56.2214C101.766 55.7214 101.625 55.4714 101.469 55.4714ZM84.2188 55.612L84.125 55.7058V55.7527L84.2188 55.8464H84.4531V55.7527L84.3125 55.612H84.2188ZM100.016 56.2214L99.875 56.362C99.9688 56.5808 100.094 56.7214 100.25 56.7839H100.297L100.484 56.5964V56.5027L100.25 56.2214H100.016ZM93.2188 56.8777V56.9714H93.4062C93.8438 56.9714 94.4219 56.7839 95.1406 56.4089V56.362H94.9531C93.8906 56.487 93.3125 56.6589 93.2188 56.8777ZM101.047 57.0183L100.953 57.2058V57.2995L101.141 57.487H101.328L101.469 57.3933V57.2995L101.234 57.0183H101.047ZM89.4688 57.3933L89.3281 57.5339C89.3906 57.6902 89.5156 57.7683 89.7031 57.7683C90.0469 57.7058 90.2188 57.6277 90.2188 57.5339V57.487L90.0781 57.3933H89.4688ZM84.3594 58.0495L84.2188 58.237C84.3438 58.5183 85.125 58.8777 86.5625 59.3152C87.0312 59.5339 87.6562 59.6433 88.4375 59.6433V59.5964C88.4375 59.5027 87.8438 59.3308 86.6562 59.0808C85.9688 58.8933 85.25 58.5495 84.5 58.0495H84.3594ZM105.312 23.9714L105.594 23.9245H105.969C108.719 24.237 110.344 24.6277 110.844 25.0964C111.062 25.0964 111.266 25.7058 111.453 26.9245L111.219 27.3464V27.487C111.562 27.8933 111.797 29.862 111.922 33.3933C111.922 39.612 112.094 43.6277 112.438 45.4402H112.625C114.312 44.0652 116.922 42.1745 120.453 39.7683C120.734 39.7683 120.969 38.3777 121.156 35.5964C121.156 34.9402 121.469 34.612 122.094 34.612L123.969 34.4714C126.781 34.4714 128.469 34.7683 129.031 35.362V35.4558L128.891 35.5964C128.328 35.3777 127.891 35.2683 127.578 35.2683L127.438 35.4558V35.5027C127.438 35.6902 127.891 35.8308 128.797 35.9245C129.047 35.9245 129.172 36.6589 129.172 38.1277C129.172 38.7214 128.938 39.0183 128.469 39.0183C128.344 39.0183 128.109 39.237 127.766 39.6745L127.625 39.7214L126.688 39.6745H126.5C126.5 40.0183 126.141 40.362 125.422 40.7058C125.297 40.7058 125.234 40.7839 125.234 40.9402L125.422 41.2683L120.922 44.362L120.875 44.5027C120.906 44.6902 122.453 47.862 125.516 54.0183C125.953 54.9245 126.234 55.6433 126.359 56.1745H126.078L125.797 55.8933H125.656C125.656 56.2683 126.25 56.4558 127.438 56.4558C129.531 56.4558 130.578 56.6433 130.578 57.0183L130.203 57.487C130.609 58.1745 130.812 59.1902 130.812 60.5339C130.812 60.9714 130.594 61.1902 130.156 61.1902L129.734 61.237C128.984 61.112 127.156 61.0495 124.25 61.0495H123.969C123.594 61.0495 123.312 60.5652 123.125 59.5964C122.938 57.9714 122.625 56.487 122.188 55.1433C121.469 53.5183 120.422 51.3464 119.047 48.6277C118.516 47.0652 118.109 46.2839 117.828 46.2839C117.297 46.3464 116.453 46.8308 115.297 47.737C114.891 48.0808 114.594 48.2527 114.406 48.2527C114.219 48.1902 114.125 48.1277 114.125 48.0652V48.0183L114.266 47.7839V47.737H113.984C113.797 47.737 113.594 48.1589 113.375 49.0027L113.422 49.2839C113.172 49.4402 113.047 49.7058 113.047 50.0808L113.141 55.0964C113.141 55.5027 113.812 55.7683 115.156 55.8933C115.375 56.0808 115.859 56.2995 116.609 56.5495L116.797 57.0183L116.75 57.7214V58.237L116.891 58.8933V58.987C116.766 59.237 116.531 59.4402 116.188 59.5964L116.141 59.5495H115.859V59.737C115.859 59.9558 116.078 60.1433 116.516 60.2995V60.3933C116.516 60.487 116.328 60.5652 115.953 60.6277L113.75 60.0652C110.719 59.9089 108.75 59.737 107.844 59.5495L107.188 59.6902C106.781 59.5027 106.578 59.0027 106.578 58.1902V57.9089L106.531 57.862C106.531 57.3308 106.766 56.8933 107.234 56.5495H107.422V57.2527L107.609 57.4402H108.219L108.031 57.2058V57.0652L108.406 57.0183H108.875L108.312 56.4558L108.969 56.3152V56.1745C108.938 56.0808 108.781 56.0339 108.5 56.0339H108.312L107.328 56.1745V56.0808C107.328 55.862 108.031 55.6433 109.438 55.4245C109.781 55.3308 110.312 55.237 111.031 55.1433L111.172 54.9558V54.9089C111.172 54.8464 110.953 54.8152 110.516 54.8152C110.266 54.8152 110.141 53.4714 110.141 50.7839C109.953 47.5339 109.656 45.2995 109.25 44.0808C109.062 36.2995 108.812 31.6589 108.5 30.1589C108.5 30.0652 107.953 29.9714 106.859 29.8777L105.5 30.2058C105.156 29.862 104.969 29.5808 104.938 29.362L104.844 26.4558L104.797 26.2683C104.859 25.7995 104.922 25.5652 104.984 25.5652L105.5 25.6589V25.5652C105.5 25.4402 105.375 25.2058 105.125 24.862V24.6277C105.375 24.6277 105.5 24.5808 105.5 24.487L105.312 24.1589V23.9714ZM109.672 26.6433V26.737C109.797 27.0495 109.984 27.2058 110.234 27.2058C110.453 26.9558 110.562 26.6745 110.562 26.362L110.375 26.3152C110.031 26.3152 109.797 26.4245 109.672 26.6433ZM106.719 27.3933V27.487C106.719 27.612 106.953 27.7214 107.422 27.8152V27.9089C106.828 27.9402 106.531 28.0339 106.531 28.1902V28.3777L106.672 28.5183H107.141C107.609 28.5183 107.953 28.237 108.172 27.6745L108.359 27.487C108.359 27.2995 107.984 27.2058 107.234 27.2058H107.047C106.828 27.237 106.719 27.2995 106.719 27.3933ZM110.422 31.5183L110.328 31.7058V32.6433C110.328 33.3933 110.406 33.7683 110.562 33.7683H110.609L110.75 33.6277V32.9714C110.719 32.0027 110.609 31.5183 110.422 31.5183ZM122.797 34.7058L122.516 34.7527V34.8933L122.562 35.0339H122.797L122.891 34.8933V34.7995L122.797 34.7058ZM121.672 37.4245C121.703 37.8308 121.766 38.0339 121.859 38.0339H122.188C122.281 38.0339 122.328 37.9714 122.328 37.8464L122.094 37.2839L122.328 36.4402V36.2995H122.234C121.859 36.487 121.672 36.862 121.672 37.4245ZM125.938 37.7995C125.938 37.8933 126.438 37.9714 127.438 38.0339C127.781 37.9714 127.953 37.8933 127.953 37.7995V37.612H127.625H126.688C126.188 37.612 125.938 37.6745 125.938 37.7995ZM110.422 38.3152H110.328V38.5495L110.422 38.6433L110.609 38.4558L110.422 38.3152ZM121.484 38.4558L121.672 38.6433H121.719C121.969 38.6433 122.109 38.5808 122.141 38.4558V38.3152H121.953C121.703 38.3152 121.547 38.362 121.484 38.4558ZM121.016 40.612V40.6589H121.062C121.188 40.6589 121.672 40.3777 122.516 39.8152C122.828 39.7839 122.984 39.6902 122.984 39.5339V39.3464H122.703C122.328 39.3464 121.766 39.7683 121.016 40.612ZM120.922 42.6745V42.8152H121.016C122.172 42.5027 123.641 41.5964 125.422 40.0964L125.516 39.9089H125.422C123.859 40.4714 122.359 41.3933 120.922 42.6745ZM112.859 46.0964V46.237H113.047C113.453 46.237 113.797 46.0495 114.078 45.6745V45.5339C113.641 45.5339 113.234 45.7214 112.859 46.0964ZM118.531 46.0027C118.75 46.5964 118.984 46.8933 119.234 46.8933H119.281V46.8464C119.25 46.1589 119.047 45.8152 118.672 45.8152C118.578 45.8152 118.531 45.8777 118.531 46.0027ZM111.594 46.1433L111.453 46.3777V46.4245H111.594L111.688 46.2839V46.1433H111.594ZM114.781 47.1745V47.2683H114.875C115.5 47.0183 116.047 46.6745 116.516 46.237V46.1433C115.359 46.6433 114.781 46.987 114.781 47.1745ZM111.5 48.5339V48.9558L111.594 49.0495H111.734C111.891 48.987 111.969 48.8152 111.969 48.5339V48.4402C111.969 48.0964 111.906 47.7527 111.781 47.4089H111.734C111.578 47.4089 111.5 47.7839 111.5 48.5339ZM120.312 48.487H120.172V48.5339C120.484 49.7214 121.047 51.0339 121.859 52.4714H122.094V52.3308C122.094 51.6745 121.5 50.3933 120.312 48.487ZM111.453 50.362V51.0183L111.594 51.112C111.844 51.112 111.969 50.9558 111.969 50.6433V49.8933L111.875 49.7995H111.734C111.547 49.8308 111.453 50.0183 111.453 50.362ZM122.797 50.1745H122.656V50.2683L122.844 50.4558H122.891V50.2683L122.797 50.1745ZM111.969 52.1433H111.781L111.734 52.4245V52.8933H111.781C111.906 52.862 111.969 52.7058 111.969 52.4245V52.1433ZM122.328 52.987H122.234V53.0808C122.484 53.862 122.75 54.3464 123.031 54.5339H123.219C123.219 54.2839 122.938 53.7683 122.375 52.987H122.328ZM111.5 54.9558L111.734 55.1902H111.781C111.938 55.1277 112.016 55.0027 112.016 54.8152C112.016 54.5964 111.969 54.487 111.875 54.487C111.625 54.6433 111.5 54.7995 111.5 54.9558ZM124.156 56.0808V56.1745L124.297 56.362H124.672L124.859 56.1745C124.766 55.987 124.625 55.8933 124.438 55.8933C124.25 55.9245 124.156 55.987 124.156 56.0808ZM116.188 56.9245H116.047V57.0183L116.234 57.1589H116.281V57.0183L116.188 56.9245ZM114.453 57.487C114.672 57.8933 115 58.0964 115.438 58.0964H115.484L115.625 57.9558C115.5 57.5808 115.344 57.3308 115.156 57.2058H114.969C114.719 57.2058 114.547 57.2995 114.453 57.487ZM129.922 57.3933H129.781V57.6277L129.922 57.7214H130.062V57.487L129.922 57.3933ZM111.406 57.487H111.312V57.6277H111.5L111.406 57.487ZM112.953 57.487L112.859 57.6277H113.094L112.953 57.487ZM107.891 58.0495V58.0964L107.938 58.1902V58.237L110.141 58.2839H110.422C111.422 58.2839 111.922 58.2058 111.922 58.0495V57.9558C111.922 57.8933 111.578 57.8464 110.891 57.8152C109.141 57.8777 108.141 57.9558 107.891 58.0495ZM126.969 57.9558L126.828 58.0964L127.062 58.2839H127.25L127.438 58.0964L127.297 57.9558H126.969ZM128.234 58.1902H127.766V58.237L128 58.3777H128.234V58.1902ZM129.922 58.8933V59.6902H129.969C130.094 59.6902 130.156 59.362 130.156 58.7058V58.3777C130 58.4402 129.922 58.612 129.922 58.8933ZM113.375 58.4245L113.234 58.5183V58.6589L113.938 58.7058H114.219V58.6589C114.219 58.5027 113.938 58.4245 113.375 58.4245ZM109.391 58.7995L109.25 58.8933L114.312 59.5964V59.4558C114.312 59.0183 113.359 58.7995 111.453 58.7995H109.391ZM114.969 59.4089L114.781 59.4558V59.5495L114.875 59.6902H115.25L115.344 59.5495C115.312 59.4558 115.188 59.4089 114.969 59.4089ZM126.594 60.3933V60.4402H126.781L127.766 60.5339L128.891 60.4402H129.031L129.172 60.3464V60.2995L128.891 60.2527H127.062C126.75 60.2527 126.594 60.2995 126.594 60.3933ZM144.359 37.1433L145.672 37.5183H146.094C147.875 38.3933 149.531 39.4402 151.062 40.6589C152.656 42.0339 153.453 43.0652 153.453 43.7527H153.359C153.109 43.3152 152.859 43.0964 152.609 43.0964H152.562C152.469 43.0964 152.422 43.1589 152.422 43.2839C152.547 43.6277 152.828 44.2214 153.266 45.0652H153.359C153.422 45.0652 153.5 44.9089 153.594 44.5964H153.641C153.734 44.6277 153.844 45.0808 153.969 45.9558L154.391 46.8933L154.297 47.5027L154.438 49.1902C154.219 49.9714 154.016 51.0027 153.828 52.2839C153.703 52.8777 152.25 55.0964 149.469 58.9402C148.219 60.1277 147 60.7214 145.812 60.7214C144.719 60.8464 143.484 60.9089 142.109 60.9089H141.219C140.688 60.9089 139.297 60.4558 137.047 59.5495C134.203 57.0183 132.781 55.0808 132.781 53.737C132.375 52.8933 132.031 52.112 131.75 51.3933C131.75 50.987 132.172 49.6433 133.016 47.362C133.016 45.9245 133.359 44.9245 134.047 44.362C135.516 41.2058 137.375 39.1589 139.625 38.2214C141.594 37.5027 143.172 37.1433 144.359 37.1433ZM135.922 51.862V52.1433C136.359 52.987 136.844 53.8933 137.375 54.862C137.375 55.1745 137.969 55.612 139.156 56.1745C139.719 56.8308 140.766 57.3464 142.297 57.7214L143.141 57.8152C144.516 57.5339 145.547 57.237 146.234 56.9245L147.922 55.5183C149.672 53.6433 150.516 52.0652 150.453 50.7839V50.362C150.266 49.862 150.172 49.0495 150.172 47.9245C150.172 47.0495 150.234 46.362 150.359 45.862C150.359 45.6433 149.75 45.0964 148.531 44.2214C147.656 42.9714 146.75 42.2058 145.812 41.9245H145.25C141.594 42.0808 139.766 42.3777 139.766 42.8152C138.953 43.6277 138.391 44.4245 138.078 45.2058C137.078 46.2683 136.578 46.9714 136.578 47.3152C136.297 48.5964 136.078 50.112 135.922 51.862ZM137.375 40.5183L137.234 40.7527V40.9402C137.422 40.9402 138.375 40.2839 140.094 38.9714L140.469 38.8308L140.75 38.8777C142.844 38.6589 143.891 38.4558 143.891 38.2683V38.2214L143.141 38.0808C141.016 38.0808 139.094 38.8933 137.375 40.5183ZM141.031 41.5027V41.5495L141.125 41.6902H141.781L145.109 40.9402V40.8464L144.219 40.6589C142.094 40.9089 141.031 41.1902 141.031 41.5027ZM133.672 53.1745L133.484 53.3152V53.6433C133.547 54.7058 133.844 55.2995 134.375 55.4245L134.422 55.3777V55.3308C134.203 53.8933 133.953 53.1745 133.672 53.1745ZM140.938 39.9089V40.1433C143.375 39.862 144.594 39.6745 144.594 39.5808L144.219 39.4402H144.172C142.672 39.4402 141.594 39.5964 140.938 39.9089ZM144.922 38.1277C145.078 38.5652 145.422 38.7839 145.953 38.7839L146.422 38.8308L146.516 38.7839V38.5495C146.516 38.2058 146.188 38.0027 145.531 37.9402C145.125 37.9714 144.922 38.0339 144.922 38.1277ZM136.391 57.9089H136.062V58.0964C136.469 58.5027 137.203 58.7058 138.266 58.7058H138.781C138.625 58.487 137.828 58.2214 136.391 57.9089ZM144.125 59.6433V59.737C144.125 59.8308 144.359 59.9089 144.828 59.9714C145.359 59.9714 145.625 59.8933 145.625 59.737V59.6433C145.594 59.5183 145.484 59.3933 145.297 59.2683H144.875C144.531 59.2683 144.281 59.3933 144.125 59.6433ZM153.031 50.737C153.062 51.6745 153.141 52.1745 153.266 52.237H153.359C153.359 51.8933 153.5 51.5183 153.781 51.112V50.9714L153.266 50.2683H153.172C153.109 50.2683 153.062 50.4245 153.031 50.737ZM149.938 42.6745H149.75C149.938 43.0808 150.391 43.4245 151.109 43.7058H151.297L151.438 43.5652V43.5183C150.906 42.9558 150.406 42.6745 149.938 42.6745ZM148.906 41.2214V41.3152C149 41.6902 149.438 42.0808 150.219 42.487H150.359L150.453 42.3464V42.2995C150.297 42.0808 149.781 41.7214 148.906 41.2214ZM145.812 39.6745L145.719 39.7214C146.312 40.1902 146.781 40.4245 147.125 40.4245L147.172 40.3308V40.2839C146.672 39.8777 146.219 39.6745 145.812 39.6745ZM139.578 58.5183V58.6589C139.578 58.8464 140.016 58.9402 140.891 58.9402L140.938 58.8933V58.7995C140.531 58.612 140.078 58.5183 139.578 58.5183ZM148.203 39.1589L148.062 39.2995C148.406 39.737 148.75 39.9558 149.094 39.9558C149.094 39.612 148.828 39.3464 148.297 39.1589H148.203ZM136.766 43.987V44.3152H136.906C137.312 43.9402 137.516 43.6433 137.516 43.4245V43.3777H137.281C137.094 43.5027 136.922 43.7058 136.766 43.987ZM147.359 41.8308C147.547 42.1433 147.766 42.2995 148.016 42.2995L148.062 42.2058V42.112C148.062 41.8308 147.938 41.6902 147.688 41.6902C147.469 41.7214 147.359 41.7683 147.359 41.8308ZM151.906 54.1589V54.2058C152.156 54.2058 152.375 53.9558 152.562 53.4558V53.362H152.422C152.234 53.362 152.062 53.6277 151.906 54.1589ZM137.75 41.5495C138.031 41.5495 138.297 41.362 138.547 40.987V40.8464C138.016 41.0027 137.75 41.237 137.75 41.5495ZM152.656 53.3152H152.891L153.078 53.4558C153.109 52.9558 153.031 52.737 152.844 52.7995H152.75L152.703 52.4714L152.656 53.3152ZM146.656 59.9714H146.703C147.266 59.7839 147.547 59.6277 147.547 59.5027L147.453 59.4089C147.016 59.5652 146.75 59.7527 146.656 59.9714ZM135.406 56.2683L135.219 56.362V56.4558L135.594 56.8308H135.781C135.781 56.612 135.656 56.4245 135.406 56.2683ZM138.594 59.1745V59.2214H139.203L139.297 59.1277L139.203 58.987H139.109C138.797 58.987 138.625 59.0495 138.594 59.1745ZM153.781 47.4089L153.641 47.5495V47.737L153.781 47.9245L153.969 47.737V47.5495L153.828 47.4089H153.781ZM133.953 45.9089C134.109 45.9089 134.25 45.7995 134.375 45.5808V45.487C134.094 45.487 133.953 45.6277 133.953 45.9089ZM132.5 50.9714L132.406 51.112C132.438 51.3933 132.484 51.5339 132.547 51.5339L132.641 51.487V51.2527L132.547 50.9714H132.5ZM145.016 40.1433V40.1902L145.484 39.8152L145.391 39.7683C145.078 39.9558 144.953 40.0808 145.016 40.1433ZM134.891 44.3152H134.938C135.062 44.2839 135.125 44.1589 135.125 43.9402H135.031C134.938 44.0027 134.891 44.1277 134.891 44.3152ZM135.172 49.9402L134.984 50.1277V50.2214H135.125L135.219 50.0808V49.9402H135.172ZM137.938 42.862H137.75V43.0495H137.844L137.938 42.9558V42.862ZM165.922 21.6277C166.609 21.6277 167.172 21.8152 167.609 22.1902C167.234 23.1902 166.984 24.7683 166.859 26.9245L166.438 31.237C166.438 31.4558 167.062 31.5652 168.312 31.5652C172 31.5652 173.844 31.737 173.844 32.0808C174 32.0808 174.188 32.1745 174.406 32.362C174.094 32.7683 173.938 33.0652 173.938 33.2527V33.3933L174.078 34.3308L173.469 36.3933C173.469 36.612 173.703 36.9245 174.172 37.3308V37.4245C173.422 37.6745 172.812 37.7995 172.344 37.7995C171.844 37.7683 171.594 37.6902 171.594 37.5652V37.4714L172.016 37.4245H172.344L172.531 37.237V37.1433L172.344 37.0964L169.203 37.1433L166.625 37.0964C166.469 37.0964 166.297 37.9714 166.109 39.7214H166.062L165.406 38.9714L165.266 39.487V39.7683C165.297 40.6433 165.406 41.112 165.594 41.1745C165.719 41.1745 165.828 40.8933 165.922 40.3308V40.0027H166.062L166.109 40.1433L165.781 44.6433C166.156 51.112 166.484 54.3464 166.766 54.3464C166.922 55.3464 167.312 55.8464 167.938 55.8464C168.281 56.0652 168.703 56.1745 169.203 56.1745H170.047L172.859 56.0339C172.922 56.0339 173.031 56.862 173.188 58.5183C173.25 59.0183 173.141 59.3777 172.859 59.5964C172.609 59.8464 172.172 59.9714 171.547 59.9714L167.938 60.0652C165.969 60.0652 164.312 59.5183 162.969 58.4245C162.094 58.112 161.656 57.1745 161.656 55.612C161.594 54.7683 161.484 52.2683 161.328 48.112L161.891 41.737L162.031 38.9714V38.5964C161.812 37.2839 161.438 36.6277 160.906 36.6277H159.5H157.859C157.391 36.6277 156.922 36.737 156.453 36.9558C156.141 36.9245 155.75 36.5027 155.281 35.6902L156.219 31.5183C156.219 31.3933 158.109 31.3152 161.891 31.2839C161.891 30.8777 162.109 30.362 162.547 29.737C162.672 24.862 162.844 22.4245 163.062 22.4245V22.2839C163.062 22.2214 162.984 22.1902 162.828 22.1902V22.0495C162.828 21.9558 163.859 21.8152 165.922 21.6277ZM164.141 22.8933H164.094V23.1745H164.234V22.987L164.141 22.8933ZM166.156 22.987L165.969 23.1745V23.2683L166.109 24.3464H166.203C166.578 23.9714 166.766 23.6433 166.766 23.362V23.1745L166.625 22.987H166.156ZM164.469 24.7214L164.328 24.5808C164.266 24.8933 164.234 25.2995 164.234 25.7995V25.987H164.328L164.469 25.1902V24.7214ZM164.609 26.6902H164.516L164.328 31.3308V31.3777L164.469 31.5183H164.562C164.781 31.5183 164.891 31.1277 164.891 30.3464V29.2683L164.797 26.9714C164.734 26.7839 164.672 26.6902 164.609 26.6902ZM156.5 32.0808C156.5 32.2995 156.641 32.4089 156.922 32.4089H157.625C158.906 32.4089 160.094 32.3464 161.188 32.2214V32.1277C161.188 31.9714 160.422 31.8933 158.891 31.8933H156.922C156.641 31.8933 156.5 31.9558 156.5 32.0808ZM171.125 31.8933L170.516 32.1277H169.953H169.156V32.2683C169.844 32.4558 170.438 32.5495 170.938 32.5495H172.016C172.078 32.5495 172.109 32.5027 172.109 32.4089C172.047 32.0652 171.875 31.8933 171.594 31.8933H171.125ZM172.438 32.362L172.297 32.4558V32.5495L172.438 32.5964C172.75 32.5964 172.922 32.5339 172.953 32.4089V32.362H172.438ZM157.25 32.9714L157.156 33.0652V33.3464C157.156 33.6589 158.203 33.8152 160.297 33.8152C161.359 33.8152 161.891 33.737 161.891 33.5808C161.891 33.2058 160.516 33.0027 157.766 32.9714H157.25ZM167.234 33.3933L167.094 33.5339V33.5808C167.094 33.737 167.656 33.8308 168.781 33.862L169.578 33.8152L170.656 34.0027H170.844C171.062 34.0027 171.172 33.9089 171.172 33.7214H171.125L167.562 33.3933H167.234ZM172.297 34.4245L172.109 34.612V34.6589L172.297 34.7995H172.531C172.812 34.7995 172.984 34.7058 173.047 34.5183L172.906 34.4245H172.297ZM157.672 34.612L157.484 34.7527C157.484 34.8777 157.562 34.9402 157.719 34.9402L158.891 34.987L160.156 34.9402L160.203 34.8933V34.7995C159.828 34.6745 159.125 34.612 158.094 34.612H157.672ZM161.328 35.5027L157.484 35.362V35.4558C157.484 35.6745 158.672 35.7839 161.047 35.7839L161.422 35.6902V35.6433L161.328 35.5027ZM168.031 35.6433H167.797V35.7839C167.828 35.8464 168.375 36.0027 169.438 36.2527H169.531V36.1589C169.031 35.8152 168.531 35.6433 168.031 35.6433ZM170.422 36.112C171.266 36.3933 172.016 36.5339 172.672 36.5339L172.859 36.3464V36.0652L172.719 35.9245H171.688C170.844 35.9245 170.422 35.987 170.422 36.112ZM163.906 37.7995V38.1745L164.047 38.3152C164.172 38.2839 164.234 38.1745 164.234 37.987V37.7995L164.141 37.4714H164.094C163.969 37.5027 163.906 37.612 163.906 37.7995ZM165.641 38.6433L165.406 38.4558V38.5964L165.594 38.7839H165.641V38.6433ZM164.141 38.737H164.047L164 38.9714V39.2058L164.047 39.487H164.234V39.0652V38.8308L164.141 38.737ZM164.234 41.9714H164.094V42.3464L164.234 42.5339H164.328V42.3464L164.234 41.9714ZM161.984 47.9245L162.125 49.237L162.078 50.8777L162.125 51.3464H162.266C162.453 51.3464 162.547 50.612 162.547 49.1433V48.0652C162.547 46.6277 162.484 45.9089 162.359 45.9089C162.141 45.9089 162.016 46.5808 161.984 47.9245ZM165.031 51.6277H164.938L164.891 51.9558V52.3308C164.891 52.5495 164.953 52.6745 165.078 52.7058H165.172C165.297 52.6745 165.359 52.5652 165.359 52.3777C165.328 51.8777 165.219 51.6277 165.031 51.6277ZM165.406 53.6433L165.219 54.1589C165.219 54.8777 165.375 55.3308 165.688 55.5183L165.781 55.3308V54.9089C165.75 54.1277 165.625 53.7058 165.406 53.6433ZM163.578 53.9714H163.438V54.6745L163.531 54.9558H163.578L163.672 54.862V54.0652L163.578 53.9714ZM164.938 56.9245V56.9714V57.2527C164.969 57.3777 165.078 57.5027 165.266 57.6277H165.594V57.5339C165.594 57.1902 165.375 56.987 164.938 56.9245ZM170.141 57.862H170.328C171.484 57.6745 172.062 57.4714 172.062 57.2527L171.969 57.1589C170.75 57.4714 170.141 57.7058 170.141 57.862ZM163.766 57.2058H163.672V57.3933C163.766 58.1745 164.109 58.5652 164.703 58.5652H165.172L165.266 58.4245V58.3777C165.266 58.3152 164.984 58.2058 164.422 58.0495L163.766 57.2058ZM183.031 26.2214L184.625 25.987C185.719 25.987 186.578 26.5495 187.203 27.6745L187.531 29.1745C187.469 29.7683 187.125 30.5495 186.5 31.5183C186.094 31.9245 185.469 32.1277 184.625 32.1277C182.656 32.1277 181.438 31.8308 180.969 31.237C180.5 30.612 180.281 29.737 180.312 28.612C180.188 28.612 180.125 28.5808 180.125 28.5183V28.4245C181.062 26.9558 182.031 26.2214 183.031 26.2214ZM182.094 27.3933V27.4402C183.156 27.3152 183.688 27.1745 183.688 27.0183L183.453 26.9245C182.547 27.0808 182.094 27.237 182.094 27.3933ZM182.891 28.7527H182.938L183.219 28.7995H183.312C183.656 28.7995 183.875 28.6745 183.969 28.4245L183.922 28.3308H183.359C183.109 28.3308 182.953 28.4714 182.891 28.7527ZM186.266 28.3308L186.125 28.5652V28.7527H186.172L186.312 28.5652V28.3308H186.266ZM185.141 29.8777V30.0183H185.328C185.547 30.0183 185.719 29.9089 185.844 29.6902V29.5495H185.75C185.531 29.5495 185.328 29.6589 185.141 29.8777ZM184.109 30.7214L183.969 30.862V30.9558H184.812L184.953 30.862L184.812 30.7214H184.109ZM178.156 35.1745H178.297C178.547 35.3933 178.859 35.5027 179.234 35.5027L179.844 35.2214C184.094 35.2214 186.219 35.3464 186.219 35.5964L186.266 35.9245V36.7214C186.547 37.3464 186.688 37.9402 186.688 38.5027V39.2527C186.312 44.3464 186.062 48.4714 185.938 51.6277C185.875 51.8152 185.812 52.1433 185.75 52.612C185.781 52.737 185.922 52.7995 186.172 52.7995H186.312C188 52.7995 188.844 53.0027 188.844 53.4089L188.797 53.5027V53.7839C189.172 54.5339 189.359 55.7214 189.359 57.3464L189.547 59.2214L189.406 59.3152L187.344 59.4089H182.656C179.156 59.4089 177.406 59.1277 177.406 58.5652C177.406 58.2214 177.312 57.8777 177.125 57.5339C177.219 57.3152 177.375 57.1433 177.594 57.0183H177.734C177.859 57.1433 178 57.2058 178.156 57.2058H178.25C179.156 57.2058 180.234 57.1277 181.484 56.9714V56.8777C178.797 56.6902 177.453 56.4714 177.453 56.2214L177.406 55.8464V55.3308L177.312 54.112C177.312 53.7995 178.484 53.6433 180.828 53.6433C181.141 53.6433 181.297 52.9402 181.297 51.5339L181.859 39.2058H181.766C180.891 39.2058 180.453 39.1433 180.453 39.0183C180.453 38.987 180.5 38.9402 180.594 38.8777C178.719 38.8777 177.781 38.6589 177.781 38.2214C177.656 38.1902 177.594 38.0652 177.594 37.8464L177.828 37.2839C177.828 37.1589 177.734 36.987 177.547 36.7683C177.797 36.5183 177.969 36.0183 178.062 35.2683L178.156 35.1745ZM178.906 36.112V36.2995H179.141C179.953 36.2995 180.359 36.237 180.359 36.112L180.266 35.9245H180.125C179.312 35.9245 178.906 35.987 178.906 36.112ZM185.281 35.7839L185.141 35.9245L185.328 36.0652H185.422V35.9245L185.281 35.7839ZM179.938 36.7683H179.094V36.9089C179.094 37.0339 179.312 37.0964 179.75 37.0964H180.266H180.406H181.953C182.422 37.0964 182.656 37.0183 182.656 36.862V36.8152C182.656 36.6589 181.75 36.6433 179.938 36.7683ZM184.109 36.8152L183.688 36.7683V36.862C183.906 36.862 184.172 37.0183 184.484 37.3308H184.578C184.641 37.3308 184.672 37.2839 184.672 37.1902H184.766C184.891 37.1902 184.969 37.3308 185 37.612H185.094L185.75 37.1433V36.862L184.766 36.8152H184.109ZM183.922 39.4402L184.156 40.1433L183.828 40.987C183.953 41.2683 184.062 41.4089 184.156 41.4089H184.203L184.297 41.1277V40.8464C184.297 39.7214 184.469 39.1589 184.812 39.1589L184.953 38.9714V38.7839L184.812 38.6433H184.531C184.125 38.6433 183.922 38.9089 183.922 39.4402ZM182.469 43.8933L182.328 49.9402C182.359 50.1589 182.406 50.2683 182.469 50.2683C182.562 50.2683 182.625 50.1277 182.656 49.8464L182.609 49.1433C182.766 48.987 182.938 48.362 183.125 47.2683V46.987L183.031 46.3308C183.219 46.1745 183.312 46.0652 183.312 46.0027C183.188 45.6589 183.125 45.3152 183.125 44.9714V44.8777C183.25 44.8777 183.406 43.1277 183.594 39.6277C183.5 39.3777 183.406 39.2527 183.312 39.2527C182.844 39.2527 182.562 40.7995 182.469 43.8933ZM184.766 39.7683L184.578 39.8152V40.0964C184.578 40.2839 184.656 40.4245 184.812 40.5183H184.953L185.094 40.3308V40.0964C185.031 39.9402 184.922 39.8308 184.766 39.7683ZM184.531 47.4089H184.297C184.047 48.5652 183.922 49.4245 183.922 49.987H183.969C184.125 49.987 184.328 49.3464 184.578 48.0652V47.737L184.531 47.4089ZM183.641 51.8152V52.1433H183.734C183.891 52.0808 183.969 51.8933 183.969 51.5808V51.2527H183.828C183.766 51.2527 183.703 51.4402 183.641 51.8152ZM183.734 52.5183L183.594 52.7058V52.9402H183.734L183.922 52.7995V52.6589L183.781 52.5183H183.734ZM187.484 53.6433L187.344 53.6902C187.531 53.8464 187.875 53.9402 188.375 53.9714V53.8308C188.375 53.7058 188.172 53.6433 187.766 53.6433H187.484ZM187.672 55.612L187.109 55.7527C187.172 56.1277 187.453 56.3152 187.953 56.3152H188.094V56.1745L188 56.0339C188 56.0027 188.125 55.9089 188.375 55.7527V55.5183C188.375 55.2995 188.312 55.1745 188.188 55.1433H188C187.906 55.1745 187.797 55.3308 187.672 55.612ZM178.719 55.1902L178.391 55.2839V55.3308C178.641 55.5808 179.609 55.7214 181.297 55.7527H181.625C181.875 55.7527 182.031 55.6745 182.094 55.5183V55.4245C180.781 55.2683 179.656 55.1902 178.719 55.1902ZM183.125 55.7527L183.312 55.987C183.594 55.987 183.734 55.8308 183.734 55.5183H183.5C183.312 55.5183 183.188 55.5964 183.125 55.7527ZM187.531 56.6902L187.391 56.8777V56.9714H187.484L187.625 56.7839V56.6902H187.531ZM183.922 56.9714L183.312 57.0183H182.656V57.2058L183.312 57.2527L184.672 57.1589V57.0183H184.484L183.922 56.9714ZM188.703 58.5652L188.516 58.7058V58.8464H188.797L188.844 58.7058L188.797 58.5652H188.703ZM197.703 37.7058L199.016 37.612C199.422 39.5808 199.406 40.5964 198.969 40.6589C198.562 40.6589 199.125 42.4558 200.656 46.0495C201.344 47.7683 201.891 49.0183 202.297 49.7995C203.203 52.0183 203.797 53.1277 204.078 53.1277C204.172 53.1277 204.328 53.3152 204.547 53.6902L204.594 53.7839H205.109C205.453 53.7839 206.031 52.4245 206.844 49.7058C209.875 44.0183 210.734 41.1589 209.422 41.1277C209.359 41.1277 209.281 41.1433 209.188 41.1745C209.375 39.9245 209.422 38.862 209.328 37.987L209.562 37.7995C213.625 37.8933 215.656 38.0495 215.656 38.2683C215.812 38.2683 215.891 39.0652 215.891 40.6589C215.672 41.5964 215.391 42.0652 215.047 42.0652C214.703 42.0339 214.516 42.0339 214.484 42.0652C214.453 42.0964 214.531 42.1433 214.719 42.2058H214.391C213.172 44.2683 212.562 45.612 212.562 46.237C212.188 47.7683 211.703 48.8308 211.109 49.4245C210.141 52.237 209.391 54.1745 208.859 55.237C208.641 55.487 208.422 56.2995 208.203 57.6745L206.188 60.9558C205.219 63.1433 203.891 65.237 202.203 67.237L199.906 68.7839C198.969 69.0339 198.234 69.1589 197.703 69.1589C195.391 69.1589 194.234 68.9245 194.234 68.4558C193.984 68.2995 193.781 67.862 193.625 67.1433C193.156 66.6745 192.578 65.0339 191.891 62.2214V62.1277C191.891 61.8152 192.203 61.6589 192.828 61.6589C193.359 61.6589 194.297 61.3777 195.641 60.8152C196.047 60.8152 196.609 62.2527 197.328 65.1277C197.547 65.7839 197.719 66.112 197.844 66.112H198.219C198.469 66.0183 198.719 65.6433 198.969 64.987C199.156 64.987 199.781 64.1745 200.844 62.5495C201.312 61.5495 201.812 60.6277 202.344 59.7839L202.484 59.2214V58.2839C202.453 57.8152 202.125 57.112 201.5 56.1745C200.875 55.112 200.375 54.112 200 53.1745C198.531 49.237 196.859 45.5808 194.984 42.2058C194.859 42.0808 194.719 42.0183 194.562 42.0183L191.703 42.1589L191.562 42.0183L191.469 40.4714L191.375 38.4558L192.219 38.0808L196.859 37.612L197.703 37.7058ZM210.922 38.9714L210.359 38.8308L211.438 39.2995L212.094 39.1589H212.188L212.984 39.2527V39.1589C212.984 39.0339 212.672 38.9402 212.047 38.8777H211.344C211.062 38.8777 210.922 38.9089 210.922 38.9714ZM214.203 38.8308L214.109 38.9245V38.9714C214.172 39.0964 214.266 39.1745 214.391 39.2058L215.234 39.112V38.9714C215.203 38.8777 215.094 38.8308 214.906 38.8308H214.203ZM192.031 40.6589L191.938 40.7058V41.0808L192.172 41.2683H192.781C193.438 41.237 193.766 41.1433 193.766 40.987C193.766 40.862 193.188 40.7527 192.031 40.6589ZM196.344 41.1745L196.203 41.2683C196.203 41.6433 196.422 42.1277 196.859 42.7214H196.906V42.2058C196.906 41.6745 196.766 41.3308 196.484 41.1745H196.344ZM213.547 40.4714V40.5652L213.734 40.7527C214.828 40.5027 215.375 40.2995 215.375 40.1433L215.234 40.0027H215.047C214.141 40.0964 213.641 40.2527 213.547 40.4714ZM212.891 40.237L212.75 40.3308V40.5652C212.844 40.7527 213.031 40.8464 213.312 40.8464L213.359 40.7995V40.5652L213.031 40.237H212.891ZM212.703 41.8308H212.469V42.0652H212.703V41.8308ZM212.516 43.1902H212.375C211.156 45.5652 210.484 46.7995 210.359 46.8933V47.2214C210.359 47.3464 210.5 47.5652 210.781 47.8777L210.453 48.8152H210.547C210.984 48.1589 211.609 46.5339 212.422 43.9402L212.516 43.1902ZM205.672 56.4089V56.6433H205.906C206.406 56.6433 207.047 55.1433 207.828 52.1433C207.828 52.0808 207.984 51.9089 208.297 51.6277C208.297 51.3777 208.391 51.2058 208.578 51.112V51.0652L208.438 50.6902C208.594 50.3777 208.594 50.362 208.438 50.6433C208.375 50.7683 208.25 51.0027 208.062 51.3464C207.594 52.1902 207.172 52.9558 206.797 53.6433C206.672 54.0808 206.297 55.0027 205.672 56.4089ZM200.609 49.3308H200.562V49.4245C201.219 51.237 201.609 52.1433 201.734 52.1433H201.781V52.0495C201.188 50.237 200.797 49.3308 200.609 49.3308ZM208.812 53.5027H208.859C209.359 53.5027 209.766 52.3152 210.078 49.9402H210.031C209.906 49.9402 209.75 50.3308 209.562 51.112C209.125 52.1745 208.875 52.9714 208.812 53.5027ZM200.375 51.2058L200.234 51.3464V51.487L200.375 51.5808L200.562 51.487V51.4402L200.375 51.2058ZM201.781 52.3777L201.641 52.5183V52.612L201.922 52.8464C202.016 52.8464 202.062 52.7995 202.062 52.7058C202 52.5808 201.922 52.4714 201.828 52.3777H201.781ZM205.203 59.6902V59.7839H205.438C205.656 59.7839 206.094 59.0027 206.75 57.4402V57.3933C206.312 57.3933 205.797 58.1589 205.203 59.6902ZM203.422 58.237V58.2839H203.469C203.719 58.2839 203.844 58.1745 203.844 57.9558V57.6745H203.656C203.5 57.737 203.422 57.9245 203.422 58.237ZM204.781 61.3777L204.406 61.9402L204.453 62.0808C204.734 61.862 204.875 61.6277 204.875 61.3777H204.781ZM194.094 62.3152L193.953 62.4558C194.203 62.7995 194.344 63.112 194.375 63.3933L194.75 63.7683L194.938 63.7214V63.487C194.938 63.0183 194.734 62.6277 194.328 62.3152H194.094ZM200.234 65.3152V65.362C200.547 65.362 200.859 64.9714 201.172 64.1902H201.078C200.703 64.3777 200.422 64.7527 200.234 65.3152ZM195.031 64.612H194.938V64.7527C194.938 65.0964 195.062 65.3464 195.312 65.5027L195.453 65.4089V65.3152C195.453 65.0652 195.312 64.8308 195.031 64.612ZM201.359 66.2995L200.938 66.862L201.031 66.9558H201.078C201.922 66.5183 202.422 66.0808 202.578 65.6433C202.453 65.5183 202.328 65.4558 202.203 65.4558H202.016C201.734 65.4558 201.516 65.737 201.359 66.2995ZM196.297 66.3933H196.016V66.5339L196.203 66.7683H196.625L196.766 66.6745C196.766 66.5183 196.609 66.4245 196.297 66.3933ZM198.547 67.2839L199.391 67.8933H199.578C199.703 67.862 199.766 67.737 199.766 67.5183V67.2839C199.734 67.1902 199.609 67.1433 199.391 67.1433H198.969C198.688 67.1433 198.547 67.1902 198.547 67.2839ZM196.906 67.7058L196.859 67.8464C196.953 68.0652 197.156 68.1745 197.469 68.1745H198.125L198.219 68.0339V67.987C198.219 67.8308 198.031 67.737 197.656 67.7058H196.906Z" fill="white"/>
    <path d="M60 0.639999H12C5.37258 0.639999 0 6.01258 0 12.64V60.64C0 67.2674 5.37258 72.64 12 72.64H60C66.6274 72.64 72 67.2674 72 60.64V12.64C72 6.01258 66.6274 0.639999 60 0.639999Z" fill="white"/>
    <path d="M21.2031 8.48438L22.0625 8.25C26.2292 8.25 29.8229 8.71875 32.8438 9.65625H34.1719H35.1875L35.3438 10.0469L35.2656 14.5781C35.2135 14.8906 35.0312 15.0469 34.7188 15.0469L33.7812 14.1094L31.6719 13.6406H30.9688L30.5 13.7969V14.1094C31.2292 14.4219 31.6979 14.5781 31.9062 14.5781V14.7344C31.9062 14.9427 31.3073 15.099 30.1094 15.2031L29.6406 30.4375V32.0781L29.5625 53.0156V54.2656C29.5625 54.7344 31.0208 54.9688 33.9375 54.9688H48.9375L51.4375 55.125C51.75 55.125 52.0104 53.6927 52.2188 50.8281C52.375 50.099 52.6094 49.7344 52.9219 49.7344C55.9948 49.8385 57.5312 50.125 57.5312 50.5938C57.3229 51.0625 57.0104 51.2969 56.5938 51.2969V51.5312C57.1146 52.0521 57.375 52.4948 57.375 52.8594C57.375 54.0573 57.1927 55.6458 56.8281 57.625V58.7969L56.9062 59.1875C56.5938 59.7604 56.4375 60.2812 56.4375 60.75C56.3333 60.75 56.125 61.0885 55.8125 61.7656C54.6667 62.1823 53.5469 62.3906 52.4531 62.3906H52.1406L45.4219 61.7656H45.0312L29.6406 62.3906L18.9375 61.375C18.5208 61.0625 18.3125 60.724 18.3125 60.3594C18.7292 57.2865 19.3802 55.75 20.2656 55.75C20.526 55.4896 21.5417 55.2812 23.3125 55.125C23.9896 53.4583 24.0156 45.9062 23.3906 32.4688C23.7031 28.8229 23.9635 23.4062 24.1719 16.2188V15.4375C24.1719 14.6562 23.625 14.2656 22.5312 14.2656L21.8281 14.1094V13.875C22.7656 13.4062 23.4948 13.1719 24.0156 13.1719V12.8594L22.2188 12.625H21.125V12.9375C21.3333 12.9375 21.4375 13.0156 21.4375 13.1719C21.2812 13.4323 21.0469 13.5625 20.7344 13.5625H20.4219C19.901 13.3542 19.6406 12.7552 19.6406 11.7656V11.5312C19.6406 10.3333 19.9792 9.57812 20.6562 9.26562C20.8125 9.26562 20.9948 9.00521 21.2031 8.48438ZM21.8281 10.9062L21.5938 11.0625V11.2188H21.9844L22.2188 10.9844V10.9062H21.8281ZM32.2188 10.9844L31.9062 11.2188V11.375L32.4531 11.5312V11.6094L32.2188 11.7656L30.6562 11.6875L30.5781 11.7656V12.1562L30.8125 12.3906H32.375C33.2083 12.3906 33.625 12.1042 33.625 11.5312C33.2604 11.1667 32.8698 10.9844 32.4531 10.9844H32.2188ZM26.4375 11.5312C26.6458 11.8958 27.2188 12.0781 28.1562 12.0781H28.7031L29.0938 11.6875C28.625 11.375 28.1562 11.2188 27.6875 11.2188H27.0625C26.6458 11.2188 26.4375 11.3229 26.4375 11.5312ZM28.2344 12.9375L27.8438 13.0938V13.1719L28 13.4844H28.5469L29.0156 13.3281V13.0938L28.5469 12.9375H28.2344ZM27.9219 14.5781L27.8438 14.7344V15.8281C27.8958 16.5052 28.026 16.8438 28.2344 16.8438L28.7031 16.5312V15.9844C28.651 15.0469 28.3906 14.5781 27.9219 14.5781ZM27.375 30.0469H27.1406C26.724 32.2344 26.6979 33.6667 27.0625 34.3438C27.3229 34.8125 27.5052 34.6562 27.6094 33.875L27.6875 31.2969C27.6354 30.4635 27.5312 30.0469 27.375 30.0469ZM56.0469 52.7031H55.8906C55.474 53.7969 55.2656 54.4219 55.2656 54.5781L54.6406 57.8594V58.1719L54.875 58.4062H55.1094C55.7865 58.0938 56.1771 56.6094 56.2812 53.9531C56.2292 53.1198 56.151 52.7031 56.0469 52.7031ZM27.0625 53.0156H26.6719V53.25C26.4115 54.0312 26.2812 54.6042 26.2812 54.9688C26.2812 55.6979 26.4635 56.1406 26.8281 56.2969H27.1406C27.349 56.2969 27.4531 55.5417 27.4531 54.0312V53.7188C27.4531 53.3542 27.3229 53.1198 27.0625 53.0156ZM48.5469 55.6719H47.7656V55.9062C47.7656 56.0625 48.1042 56.1667 48.7812 56.2188C48.7812 56.6354 49.25 56.8698 50.1875 56.9219L51.6719 56.7656V56.4531C50.6823 56.4531 49.6406 56.1927 48.5469 55.6719ZM46.3594 56.4531H44.3281V56.5312C44.3802 56.6875 44.6406 56.7656 45.1094 56.7656H46.8281V56.5312L46.3594 56.4531ZM19.7969 57.625C20.2135 57.625 20.4219 57.4427 20.4219 57.0781V56.9219H20.2656C19.9531 56.974 19.7969 57.2083 19.7969 57.625ZM27.5312 57.4688H27.1406V57.8594C28.0781 58.0156 32.7656 58.3021 41.2031 58.7188L41.3594 58.6406V58.4844L27.5312 57.4688ZM19.9531 58.1719L19.4844 58.25V58.4844L19.7188 58.7188H19.9531L20.1875 58.4844V58.4062L19.9531 58.1719ZM45.7344 58.875L45.5781 59.0312V59.1875L46.2812 59.3438H47.375V59.1875C47.375 58.9792 47.1927 58.875 46.8281 58.875H45.7344ZM49.0938 59.8906V59.9688H49.3281C49.849 59.9688 50.3698 59.7604 50.8906 59.3438C50.8385 59.1354 50.6302 59.0312 50.2656 59.0312C50.0573 59.0312 49.6667 59.3177 49.0938 59.8906ZM51.3594 60.2031L50.1875 60.2812V60.3594C50.6042 60.776 51.125 60.9844 51.75 60.9844H51.9844C52.2448 60.9844 52.4792 60.8802 52.6875 60.6719C52.9479 60.8802 53.2344 60.9844 53.5469 60.9844H54.1719C54.7448 60.9844 55.0573 60.8802 55.1094 60.6719V60.5938C55.1094 60.3333 54.3021 60.2031 52.6875 60.2031H51.3594ZM30.0312 60.9062L28.3125 60.9844V61.1406C28.3125 61.5052 29.5365 61.7396 31.9844 61.8438C33.599 61.8438 34.9271 61.6875 35.9688 61.375V61.1406C33.7812 60.9844 31.8281 60.9062 30.1094 60.9062H30.0312ZM26.75 61.1406H26.5938V61.375H26.75V61.1406ZM38.9375 61.1406L38.4688 61.2969V61.6094H38.9375L39.875 61.375V61.1406H38.9375Z" fill="black"/>
</svg>
