<svg width="217" height="72" viewBox="0 0 217 72" fill="none" xmlns="http://www.w3.org/2000/svg">
    <path d="M86.4219 30.5938L92.2344 30.4531C92.7344 30.4531 93.7812 30.6719 95.375 31.1094C97.1875 32.8281 98.2656 34.1719 98.6094 35.1406C99.2969 35.8594 99.8438 37.2812 100.25 39.4062C100.75 39.9062 101 41.0156 101 42.7344L101.047 43.9062L100.859 48.5469C100.859 49.4844 101.438 50.6406 102.594 52.0156C103.656 53.0469 104.344 53.5625 104.656 53.5625V53.6562C104.656 54.0312 104.109 54.625 103.016 55.4375C102.203 56.25 101.688 56.6562 101.469 56.6562H101.422C100.922 56.5938 99.6562 55.6719 97.625 53.8906C93.9375 55.3281 92.0781 56.0625 92.0469 56.0938C90.8281 56.4688 89.4688 56.6562 87.9688 56.6562H87.7344C86.0469 56.375 84.6094 55.7188 83.4219 54.6875C83.2031 54.5 82.75 53.7188 82.0625 52.3438C81.5 51.6562 81.2188 50.8125 81.2188 49.8125V48.4531C81.2188 47.5781 81.4531 46.7656 81.9219 46.0156C82.3281 44.7344 83.0312 43.5156 84.0312 42.3594C84.5312 41.7656 85.0312 41.3906 85.5312 41.2344C87.1562 40.3594 88.7656 39.9219 90.3594 39.9219L92.4688 39.875H92.75C93.9375 39.875 94.7812 40.0469 95.2812 40.3906H95.5625C95.7188 40.3906 95.7969 40.3281 95.7969 40.2031C95.4531 38.7344 94.8906 37.3281 94.1094 35.9844C93.4219 34.8281 92.1406 34.25 90.2656 34.25L88.3438 33.9688C86.6875 34.3125 85.8594 34.6562 85.8594 35C85.2031 35.8438 84.8125 36.8906 84.6875 38.1406C84.625 38.2969 84.0625 38.375 83 38.375L82.7188 38.4688C82.5938 38.4688 82.4375 38.7344 82.25 39.2656C81.375 39.1406 80.9375 38.9531 80.9375 38.7031C81 38.5156 81.1094 37.3906 81.2656 35.3281C81.7656 33.8906 82.9531 32.5625 84.8281 31.3438C85.7031 30.8438 86.2344 30.5938 86.4219 30.5938ZM91.6719 31.3906L91.5781 31.5312L91.7188 31.7188H92L92.0469 31.625L91.9062 31.3906H91.6719ZM95.2344 31.7656H95.1406V31.8594C95.3906 32.1094 95.6094 32.2344 95.7969 32.2344H95.8438V32.1406C95.5938 31.8906 95.3906 31.7656 95.2344 31.7656ZM87.7344 32V32.1406C87.7656 32.2344 87.9219 32.2812 88.2031 32.2812C88.4844 32.2812 88.875 32.1875 89.375 32V31.8125H89.1875C88.5 31.8125 88.0156 31.875 87.7344 32ZM83.5156 33.5V33.5938H83.5625C83.8438 33.5938 84.2656 33.2969 84.8281 32.7031V32.5625H84.7812C84.4688 32.5625 84.0469 32.875 83.5156 33.5ZM90.0312 33.1719L89.7969 33.3594L89.9375 33.5938H90.5469L90.6875 33.4531L90.4062 33.1719H90.0312ZM83.1406 36.9688L83 37.0625V37.7656H83.0469C83.1719 37.7344 83.2344 37.625 83.2344 37.4375V37.0625L83.1406 36.9688ZM100.156 40.7188H100.109V40.8125C100.172 41.0625 100.234 41.1875 100.297 41.1875L100.344 40.9531C100.281 40.7969 100.219 40.7188 100.156 40.7188ZM99.0781 42.3594L98.9375 42.4531V42.5938C99.0625 43.0625 99.1875 43.2969 99.3125 43.2969H99.4062C99.4062 42.8906 99.3125 42.5781 99.125 42.3594H99.0781ZM85.3438 42.6406L84.8281 42.875V43.1094H84.9219C85.1406 43.1094 85.2969 42.9844 85.3906 42.7344V42.6406H85.3438ZM84.8281 47.0938C85.0469 48.9688 85.3125 49.9062 85.625 49.9062L86.0938 50.5156V50.5625L85.6719 50.5156V50.6562C86.2656 51.4688 87.4844 52.2188 89.3281 52.9062C89.5469 53.0312 89.8594 53.125 90.2656 53.1875C90.8281 53.1875 92.9844 52.2656 96.7344 50.4219C96.9844 50.2656 97.1094 50.0938 97.1094 49.9062V49.6719C96.8281 48.3906 96.5938 46.8906 96.4062 45.1719L96.3125 45.125C96.3125 44.7812 95.9688 44.5 95.2812 44.2812C92.9688 43.625 91.3906 43.2969 90.5469 43.2969C88.1719 43.8281 86.5469 44.625 85.6719 45.6875C85.1094 46.25 84.8281 46.7188 84.8281 47.0938ZM98.9375 44.0469L98.7969 43.9531V44.0938H98.9375V44.0469ZM99.125 44.9375H98.8438V45.125L98.9844 45.2656L99.125 45.125V44.9375ZM97.625 46.1094L97.4844 46.25L97.625 46.4375L97.8125 46.3906V46.25L97.6719 46.1094H97.625ZM99.3125 46.25H99.1719V46.2969C99.2344 47.4844 99.3594 48.0781 99.5469 48.0781L99.6406 47.9844V47.8906C99.6406 47.2344 99.5312 46.6875 99.3125 46.25ZM97.4844 47.75L97.4375 47.7969V48.0781L97.5781 48.2656H97.625L97.8125 48.0781V47.7969L97.6719 47.75H97.4844ZM101.469 52.1562H101.328V52.4375C101.453 52.8438 101.594 53.0469 101.75 53.0469H101.891V52.9062C101.766 52.4062 101.625 52.1562 101.469 52.1562ZM84.2188 52.2969L84.125 52.3906V52.4375L84.2188 52.5312H84.4531V52.4375L84.3125 52.2969H84.2188ZM100.016 52.9062L99.875 53.0469C99.9688 53.2656 100.094 53.4062 100.25 53.4688H100.297L100.484 53.2812V53.1875L100.25 52.9062H100.016ZM93.2188 53.5625V53.6562H93.4062C93.8438 53.6562 94.4219 53.4688 95.1406 53.0938V53.0469H94.9531C93.8906 53.1719 93.3125 53.3438 93.2188 53.5625ZM101.047 53.7031L100.953 53.8906V53.9844L101.141 54.1719H101.328L101.469 54.0781V53.9844L101.234 53.7031H101.047ZM89.4688 54.0781L89.3281 54.2188C89.3906 54.375 89.5156 54.4531 89.7031 54.4531C90.0469 54.3906 90.2188 54.3125 90.2188 54.2188V54.1719L90.0781 54.0781H89.4688ZM84.3594 54.7344L84.2188 54.9219C84.3438 55.2031 85.125 55.5625 86.5625 56C87.0312 56.2188 87.6562 56.3281 88.4375 56.3281V56.2812C88.4375 56.1875 87.8438 56.0156 86.6562 55.7656C85.9688 55.5781 85.25 55.2344 84.5 54.7344H84.3594ZM105.312 20.6562L105.594 20.6094H105.969C108.719 20.9219 110.344 21.3125 110.844 21.7812C111.062 21.7812 111.266 22.3906 111.453 23.6094L111.219 24.0312V24.1719C111.562 24.5781 111.797 26.5469 111.922 30.0781C111.922 36.2969 112.094 40.3125 112.438 42.125H112.625C114.312 40.75 116.922 38.8594 120.453 36.4531C120.734 36.4531 120.969 35.0625 121.156 32.2812C121.156 31.625 121.469 31.2969 122.094 31.2969L123.969 31.1562C126.781 31.1562 128.469 31.4531 129.031 32.0469V32.1406L128.891 32.2812C128.328 32.0625 127.891 31.9531 127.578 31.9531L127.438 32.1406V32.1875C127.438 32.375 127.891 32.5156 128.797 32.6094C129.047 32.6094 129.172 33.3438 129.172 34.8125C129.172 35.4062 128.938 35.7031 128.469 35.7031C128.344 35.7031 128.109 35.9219 127.766 36.3594L127.625 36.4062L126.688 36.3594H126.5C126.5 36.7031 126.141 37.0469 125.422 37.3906C125.297 37.3906 125.234 37.4688 125.234 37.625L125.422 37.9531L120.922 41.0469L120.875 41.1875C120.906 41.375 122.453 44.5469 125.516 50.7031C125.953 51.6094 126.234 52.3281 126.359 52.8594H126.078L125.797 52.5781H125.656C125.656 52.9531 126.25 53.1406 127.438 53.1406C129.531 53.1406 130.578 53.3281 130.578 53.7031L130.203 54.1719C130.609 54.8594 130.812 55.875 130.812 57.2188C130.812 57.6562 130.594 57.875 130.156 57.875L129.734 57.9219C128.984 57.7969 127.156 57.7344 124.25 57.7344H123.969C123.594 57.7344 123.312 57.25 123.125 56.2812C122.938 54.6562 122.625 53.1719 122.188 51.8281C121.469 50.2031 120.422 48.0312 119.047 45.3125C118.516 43.75 118.109 42.9688 117.828 42.9688C117.297 43.0312 116.453 43.5156 115.297 44.4219C114.891 44.7656 114.594 44.9375 114.406 44.9375C114.219 44.875 114.125 44.8125 114.125 44.75V44.7031L114.266 44.4688V44.4219H113.984C113.797 44.4219 113.594 44.8438 113.375 45.6875L113.422 45.9688C113.172 46.125 113.047 46.3906 113.047 46.7656L113.141 51.7812C113.141 52.1875 113.812 52.4531 115.156 52.5781C115.375 52.7656 115.859 52.9844 116.609 53.2344L116.797 53.7031L116.75 54.4062V54.9219L116.891 55.5781V55.6719C116.766 55.9219 116.531 56.125 116.188 56.2812L116.141 56.2344H115.859V56.4219C115.859 56.6406 116.078 56.8281 116.516 56.9844V57.0781C116.516 57.1719 116.328 57.25 115.953 57.3125L113.75 56.75C110.719 56.5938 108.75 56.4219 107.844 56.2344L107.188 56.375C106.781 56.1875 106.578 55.6875 106.578 54.875V54.5938L106.531 54.5469C106.531 54.0156 106.766 53.5781 107.234 53.2344H107.422V53.9375L107.609 54.125H108.219L108.031 53.8906V53.75L108.406 53.7031H108.875L108.312 53.1406L108.969 53V52.8594C108.938 52.7656 108.781 52.7188 108.5 52.7188H108.312L107.328 52.8594V52.7656C107.328 52.5469 108.031 52.3281 109.438 52.1094C109.781 52.0156 110.312 51.9219 111.031 51.8281L111.172 51.6406V51.5938C111.172 51.5312 110.953 51.5 110.516 51.5C110.266 51.5 110.141 50.1562 110.141 47.4688C109.953 44.2188 109.656 41.9844 109.25 40.7656C109.062 32.9844 108.812 28.3438 108.5 26.8438C108.5 26.75 107.953 26.6562 106.859 26.5625L105.5 26.8906C105.156 26.5469 104.969 26.2656 104.938 26.0469L104.844 23.1406L104.797 22.9531C104.859 22.4844 104.922 22.25 104.984 22.25L105.5 22.3438V22.25C105.5 22.125 105.375 21.8906 105.125 21.5469V21.3125C105.375 21.3125 105.5 21.2656 105.5 21.1719L105.312 20.8438V20.6562ZM109.672 23.3281V23.4219C109.797 23.7344 109.984 23.8906 110.234 23.8906C110.453 23.6406 110.562 23.3594 110.562 23.0469L110.375 23C110.031 23 109.797 23.1094 109.672 23.3281ZM106.719 24.0781V24.1719C106.719 24.2969 106.953 24.4062 107.422 24.5V24.5938C106.828 24.625 106.531 24.7188 106.531 24.875V25.0625L106.672 25.2031H107.141C107.609 25.2031 107.953 24.9219 108.172 24.3594L108.359 24.1719C108.359 23.9844 107.984 23.8906 107.234 23.8906H107.047C106.828 23.9219 106.719 23.9844 106.719 24.0781ZM110.422 28.2031L110.328 28.3906V29.3281C110.328 30.0781 110.406 30.4531 110.562 30.4531H110.609L110.75 30.3125V29.6562C110.719 28.6875 110.609 28.2031 110.422 28.2031ZM122.797 31.3906L122.516 31.4375V31.5781L122.562 31.7188H122.797L122.891 31.5781V31.4844L122.797 31.3906ZM121.672 34.1094C121.703 34.5156 121.766 34.7188 121.859 34.7188H122.188C122.281 34.7188 122.328 34.6562 122.328 34.5312L122.094 33.9688L122.328 33.125V32.9844H122.234C121.859 33.1719 121.672 33.5469 121.672 34.1094ZM125.938 34.4844C125.938 34.5781 126.438 34.6562 127.438 34.7188C127.781 34.6562 127.953 34.5781 127.953 34.4844V34.2969H127.625H126.688C126.188 34.2969 125.938 34.3594 125.938 34.4844ZM110.422 35H110.328V35.2344L110.422 35.3281L110.609 35.1406L110.422 35ZM121.484 35.1406L121.672 35.3281H121.719C121.969 35.3281 122.109 35.2656 122.141 35.1406V35H121.953C121.703 35 121.547 35.0469 121.484 35.1406ZM121.016 37.2969V37.3438H121.062C121.188 37.3438 121.672 37.0625 122.516 36.5C122.828 36.4688 122.984 36.375 122.984 36.2188V36.0312H122.703C122.328 36.0312 121.766 36.4531 121.016 37.2969ZM120.922 39.3594V39.5H121.016C122.172 39.1875 123.641 38.2812 125.422 36.7812L125.516 36.5938H125.422C123.859 37.1562 122.359 38.0781 120.922 39.3594ZM112.859 42.7812V42.9219H113.047C113.453 42.9219 113.797 42.7344 114.078 42.3594V42.2188C113.641 42.2188 113.234 42.4062 112.859 42.7812ZM118.531 42.6875C118.75 43.2812 118.984 43.5781 119.234 43.5781H119.281V43.5312C119.25 42.8438 119.047 42.5 118.672 42.5C118.578 42.5 118.531 42.5625 118.531 42.6875ZM111.594 42.8281L111.453 43.0625V43.1094H111.594L111.688 42.9688V42.8281H111.594ZM114.781 43.8594V43.9531H114.875C115.5 43.7031 116.047 43.3594 116.516 42.9219V42.8281C115.359 43.3281 114.781 43.6719 114.781 43.8594ZM111.5 45.2188V45.6406L111.594 45.7344H111.734C111.891 45.6719 111.969 45.5 111.969 45.2188V45.125C111.969 44.7812 111.906 44.4375 111.781 44.0938H111.734C111.578 44.0938 111.5 44.4688 111.5 45.2188ZM120.312 45.1719H120.172V45.2188C120.484 46.4062 121.047 47.7188 121.859 49.1562H122.094V49.0156C122.094 48.3594 121.5 47.0781 120.312 45.1719ZM111.453 47.0469V47.7031L111.594 47.7969C111.844 47.7969 111.969 47.6406 111.969 47.3281V46.5781L111.875 46.4844H111.734C111.547 46.5156 111.453 46.7031 111.453 47.0469ZM122.797 46.8594H122.656V46.9531L122.844 47.1406H122.891V46.9531L122.797 46.8594ZM111.969 48.8281H111.781L111.734 49.1094V49.5781H111.781C111.906 49.5469 111.969 49.3906 111.969 49.1094V48.8281ZM122.328 49.6719H122.234V49.7656C122.484 50.5469 122.75 51.0312 123.031 51.2188H123.219C123.219 50.9688 122.938 50.4531 122.375 49.6719H122.328ZM111.5 51.6406L111.734 51.875H111.781C111.938 51.8125 112.016 51.6875 112.016 51.5C112.016 51.2812 111.969 51.1719 111.875 51.1719C111.625 51.3281 111.5 51.4844 111.5 51.6406ZM124.156 52.7656V52.8594L124.297 53.0469H124.672L124.859 52.8594C124.766 52.6719 124.625 52.5781 124.438 52.5781C124.25 52.6094 124.156 52.6719 124.156 52.7656ZM116.188 53.6094H116.047V53.7031L116.234 53.8438H116.281V53.7031L116.188 53.6094ZM114.453 54.1719C114.672 54.5781 115 54.7812 115.438 54.7812H115.484L115.625 54.6406C115.5 54.2656 115.344 54.0156 115.156 53.8906H114.969C114.719 53.8906 114.547 53.9844 114.453 54.1719ZM129.922 54.0781H129.781V54.3125L129.922 54.4062H130.062V54.1719L129.922 54.0781ZM111.406 54.1719H111.312V54.3125H111.5L111.406 54.1719ZM112.953 54.1719L112.859 54.3125H113.094L112.953 54.1719ZM107.891 54.7344V54.7812L107.938 54.875V54.9219L110.141 54.9688H110.422C111.422 54.9688 111.922 54.8906 111.922 54.7344V54.6406C111.922 54.5781 111.578 54.5312 110.891 54.5C109.141 54.5625 108.141 54.6406 107.891 54.7344ZM126.969 54.6406L126.828 54.7812L127.062 54.9688H127.25L127.438 54.7812L127.297 54.6406H126.969ZM128.234 54.875H127.766V54.9219L128 55.0625H128.234V54.875ZM129.922 55.5781V56.375H129.969C130.094 56.375 130.156 56.0469 130.156 55.3906V55.0625C130 55.125 129.922 55.2969 129.922 55.5781ZM113.375 55.1094L113.234 55.2031V55.3438L113.938 55.3906H114.219V55.3438C114.219 55.1875 113.938 55.1094 113.375 55.1094ZM109.391 55.4844L109.25 55.5781L114.312 56.2812V56.1406C114.312 55.7031 113.359 55.4844 111.453 55.4844H109.391ZM114.969 56.0938L114.781 56.1406V56.2344L114.875 56.375H115.25L115.344 56.2344C115.312 56.1406 115.188 56.0938 114.969 56.0938ZM126.594 57.0781V57.125H126.781L127.766 57.2188L128.891 57.125H129.031L129.172 57.0312V56.9844L128.891 56.9375H127.062C126.75 56.9375 126.594 56.9844 126.594 57.0781ZM144.359 33.8281L145.672 34.2031H146.094C147.875 35.0781 149.531 36.125 151.062 37.3438C152.656 38.7188 153.453 39.75 153.453 40.4375H153.359C153.109 40 152.859 39.7812 152.609 39.7812H152.562C152.469 39.7812 152.422 39.8438 152.422 39.9688C152.547 40.3125 152.828 40.9062 153.266 41.75H153.359C153.422 41.75 153.5 41.5938 153.594 41.2812H153.641C153.734 41.3125 153.844 41.7656 153.969 42.6406L154.391 43.5781L154.297 44.1875L154.438 45.875C154.219 46.6562 154.016 47.6875 153.828 48.9688C153.703 49.5625 152.25 51.7812 149.469 55.625C148.219 56.8125 147 57.4062 145.812 57.4062C144.719 57.5312 143.484 57.5938 142.109 57.5938H141.219C140.688 57.5938 139.297 57.1406 137.047 56.2344C134.203 53.7031 132.781 51.7656 132.781 50.4219C132.375 49.5781 132.031 48.7969 131.75 48.0781C131.75 47.6719 132.172 46.3281 133.016 44.0469C133.016 42.6094 133.359 41.6094 134.047 41.0469C135.516 37.8906 137.375 35.8438 139.625 34.9062C141.594 34.1875 143.172 33.8281 144.359 33.8281ZM135.922 48.5469V48.8281C136.359 49.6719 136.844 50.5781 137.375 51.5469C137.375 51.8594 137.969 52.2969 139.156 52.8594C139.719 53.5156 140.766 54.0312 142.297 54.4062L143.141 54.5C144.516 54.2188 145.547 53.9219 146.234 53.6094L147.922 52.2031C149.672 50.3281 150.516 48.75 150.453 47.4688V47.0469C150.266 46.5469 150.172 45.7344 150.172 44.6094C150.172 43.7344 150.234 43.0469 150.359 42.5469C150.359 42.3281 149.75 41.7812 148.531 40.9062C147.656 39.6562 146.75 38.8906 145.812 38.6094H145.25C141.594 38.7656 139.766 39.0625 139.766 39.5C138.953 40.3125 138.391 41.1094 138.078 41.8906C137.078 42.9531 136.578 43.6562 136.578 44C136.297 45.2812 136.078 46.7969 135.922 48.5469ZM137.375 37.2031L137.234 37.4375V37.625C137.422 37.625 138.375 36.9688 140.094 35.6562L140.469 35.5156L140.75 35.5625C142.844 35.3438 143.891 35.1406 143.891 34.9531V34.9062L143.141 34.7656C141.016 34.7656 139.094 35.5781 137.375 37.2031ZM141.031 38.1875V38.2344L141.125 38.375H141.781L145.109 37.625V37.5312L144.219 37.3438C142.094 37.5938 141.031 37.875 141.031 38.1875ZM133.672 49.8594L133.484 50V50.3281C133.547 51.3906 133.844 51.9844 134.375 52.1094L134.422 52.0625V52.0156C134.203 50.5781 133.953 49.8594 133.672 49.8594ZM140.938 36.5938V36.8281C143.375 36.5469 144.594 36.3594 144.594 36.2656L144.219 36.125H144.172C142.672 36.125 141.594 36.2812 140.938 36.5938ZM144.922 34.8125C145.078 35.25 145.422 35.4688 145.953 35.4688L146.422 35.5156L146.516 35.4688V35.2344C146.516 34.8906 146.188 34.6875 145.531 34.625C145.125 34.6562 144.922 34.7188 144.922 34.8125ZM136.391 54.5938H136.062V54.7812C136.469 55.1875 137.203 55.3906 138.266 55.3906H138.781C138.625 55.1719 137.828 54.9062 136.391 54.5938ZM144.125 56.3281V56.4219C144.125 56.5156 144.359 56.5938 144.828 56.6562C145.359 56.6562 145.625 56.5781 145.625 56.4219V56.3281C145.594 56.2031 145.484 56.0781 145.297 55.9531H144.875C144.531 55.9531 144.281 56.0781 144.125 56.3281ZM153.031 47.4219C153.062 48.3594 153.141 48.8594 153.266 48.9219H153.359C153.359 48.5781 153.5 48.2031 153.781 47.7969V47.6562L153.266 46.9531H153.172C153.109 46.9531 153.062 47.1094 153.031 47.4219ZM149.938 39.3594H149.75C149.938 39.7656 150.391 40.1094 151.109 40.3906H151.297L151.438 40.25V40.2031C150.906 39.6406 150.406 39.3594 149.938 39.3594ZM148.906 37.9062V38C149 38.375 149.438 38.7656 150.219 39.1719H150.359L150.453 39.0312V38.9844C150.297 38.7656 149.781 38.4062 148.906 37.9062ZM145.812 36.3594L145.719 36.4062C146.312 36.875 146.781 37.1094 147.125 37.1094L147.172 37.0156V36.9688C146.672 36.5625 146.219 36.3594 145.812 36.3594ZM139.578 55.2031V55.3438C139.578 55.5312 140.016 55.625 140.891 55.625L140.938 55.5781V55.4844C140.531 55.2969 140.078 55.2031 139.578 55.2031ZM148.203 35.8438L148.062 35.9844C148.406 36.4219 148.75 36.6406 149.094 36.6406C149.094 36.2969 148.828 36.0312 148.297 35.8438H148.203ZM136.766 40.6719V41H136.906C137.312 40.625 137.516 40.3281 137.516 40.1094V40.0625H137.281C137.094 40.1875 136.922 40.3906 136.766 40.6719ZM147.359 38.5156C147.547 38.8281 147.766 38.9844 148.016 38.9844L148.062 38.8906V38.7969C148.062 38.5156 147.938 38.375 147.688 38.375C147.469 38.4062 147.359 38.4531 147.359 38.5156ZM151.906 50.8438V50.8906C152.156 50.8906 152.375 50.6406 152.562 50.1406V50.0469H152.422C152.234 50.0469 152.062 50.3125 151.906 50.8438ZM137.75 38.2344C138.031 38.2344 138.297 38.0469 138.547 37.6719V37.5312C138.016 37.6875 137.75 37.9219 137.75 38.2344ZM152.656 50H152.891L153.078 50.1406C153.109 49.6406 153.031 49.4219 152.844 49.4844H152.75L152.703 49.1562L152.656 50ZM146.656 56.6562H146.703C147.266 56.4688 147.547 56.3125 147.547 56.1875L147.453 56.0938C147.016 56.25 146.75 56.4375 146.656 56.6562ZM135.406 52.9531L135.219 53.0469V53.1406L135.594 53.5156H135.781C135.781 53.2969 135.656 53.1094 135.406 52.9531ZM138.594 55.8594V55.9062H139.203L139.297 55.8125L139.203 55.6719H139.109C138.797 55.6719 138.625 55.7344 138.594 55.8594ZM153.781 44.0938L153.641 44.2344V44.4219L153.781 44.6094L153.969 44.4219V44.2344L153.828 44.0938H153.781ZM133.953 42.5938C134.109 42.5938 134.25 42.4844 134.375 42.2656V42.1719C134.094 42.1719 133.953 42.3125 133.953 42.5938ZM132.5 47.6562L132.406 47.7969C132.438 48.0781 132.484 48.2188 132.547 48.2188L132.641 48.1719V47.9375L132.547 47.6562H132.5ZM145.016 36.8281V36.875L145.484 36.5L145.391 36.4531C145.078 36.6406 144.953 36.7656 145.016 36.8281ZM134.891 41H134.938C135.062 40.9688 135.125 40.8438 135.125 40.625H135.031C134.938 40.6875 134.891 40.8125 134.891 41ZM135.172 46.625L134.984 46.8125V46.9062H135.125L135.219 46.7656V46.625H135.172ZM137.938 39.5469H137.75V39.7344H137.844L137.938 39.6406V39.5469ZM165.922 18.3125C166.609 18.3125 167.172 18.5 167.609 18.875C167.234 19.875 166.984 21.4531 166.859 23.6094L166.438 27.9219C166.438 28.1406 167.062 28.25 168.312 28.25C172 28.25 173.844 28.4219 173.844 28.7656C174 28.7656 174.188 28.8594 174.406 29.0469C174.094 29.4531 173.938 29.75 173.938 29.9375V30.0781L174.078 31.0156L173.469 33.0781C173.469 33.2969 173.703 33.6094 174.172 34.0156V34.1094C173.422 34.3594 172.812 34.4844 172.344 34.4844C171.844 34.4531 171.594 34.375 171.594 34.25V34.1562L172.016 34.1094H172.344L172.531 33.9219V33.8281L172.344 33.7812L169.203 33.8281L166.625 33.7812C166.469 33.7812 166.297 34.6562 166.109 36.4062H166.062L165.406 35.6562L165.266 36.1719V36.4531C165.297 37.3281 165.406 37.7969 165.594 37.8594C165.719 37.8594 165.828 37.5781 165.922 37.0156V36.6875H166.062L166.109 36.8281L165.781 41.3281C166.156 47.7969 166.484 51.0312 166.766 51.0312C166.922 52.0312 167.312 52.5312 167.938 52.5312C168.281 52.75 168.703 52.8594 169.203 52.8594H170.047L172.859 52.7188C172.922 52.7188 173.031 53.5469 173.188 55.2031C173.25 55.7031 173.141 56.0625 172.859 56.2812C172.609 56.5312 172.172 56.6562 171.547 56.6562L167.938 56.75C165.969 56.75 164.312 56.2031 162.969 55.1094C162.094 54.7969 161.656 53.8594 161.656 52.2969C161.594 51.4531 161.484 48.9531 161.328 44.7969L161.891 38.4219L162.031 35.6562V35.2812C161.812 33.9688 161.438 33.3125 160.906 33.3125H159.5H157.859C157.391 33.3125 156.922 33.4219 156.453 33.6406C156.141 33.6094 155.75 33.1875 155.281 32.375L156.219 28.2031C156.219 28.0781 158.109 28 161.891 27.9688C161.891 27.5625 162.109 27.0469 162.547 26.4219C162.672 21.5469 162.844 19.1094 163.062 19.1094V18.9688C163.062 18.9062 162.984 18.875 162.828 18.875V18.7344C162.828 18.6406 163.859 18.5 165.922 18.3125ZM164.141 19.5781H164.094V19.8594H164.234V19.6719L164.141 19.5781ZM166.156 19.6719L165.969 19.8594V19.9531L166.109 21.0312H166.203C166.578 20.6562 166.766 20.3281 166.766 20.0469V19.8594L166.625 19.6719H166.156ZM164.469 21.4062L164.328 21.2656C164.266 21.5781 164.234 21.9844 164.234 22.4844V22.6719H164.328L164.469 21.875V21.4062ZM164.609 23.375H164.516L164.328 28.0156V28.0625L164.469 28.2031H164.562C164.781 28.2031 164.891 27.8125 164.891 27.0312V25.9531L164.797 23.6562C164.734 23.4688 164.672 23.375 164.609 23.375ZM156.5 28.7656C156.5 28.9844 156.641 29.0938 156.922 29.0938H157.625C158.906 29.0938 160.094 29.0312 161.188 28.9062V28.8125C161.188 28.6562 160.422 28.5781 158.891 28.5781H156.922C156.641 28.5781 156.5 28.6406 156.5 28.7656ZM171.125 28.5781L170.516 28.8125H169.953H169.156V28.9531C169.844 29.1406 170.438 29.2344 170.938 29.2344H172.016C172.078 29.2344 172.109 29.1875 172.109 29.0938C172.047 28.75 171.875 28.5781 171.594 28.5781H171.125ZM172.438 29.0469L172.297 29.1406V29.2344L172.438 29.2812C172.75 29.2812 172.922 29.2188 172.953 29.0938V29.0469H172.438ZM157.25 29.6562L157.156 29.75V30.0312C157.156 30.3438 158.203 30.5 160.297 30.5C161.359 30.5 161.891 30.4219 161.891 30.2656C161.891 29.8906 160.516 29.6875 157.766 29.6562H157.25ZM167.234 30.0781L167.094 30.2188V30.2656C167.094 30.4219 167.656 30.5156 168.781 30.5469L169.578 30.5L170.656 30.6875H170.844C171.062 30.6875 171.172 30.5938 171.172 30.4062H171.125L167.562 30.0781H167.234ZM172.297 31.1094L172.109 31.2969V31.3438L172.297 31.4844H172.531C172.812 31.4844 172.984 31.3906 173.047 31.2031L172.906 31.1094H172.297ZM157.672 31.2969L157.484 31.4375C157.484 31.5625 157.562 31.625 157.719 31.625L158.891 31.6719L160.156 31.625L160.203 31.5781V31.4844C159.828 31.3594 159.125 31.2969 158.094 31.2969H157.672ZM161.328 32.1875L157.484 32.0469V32.1406C157.484 32.3594 158.672 32.4688 161.047 32.4688L161.422 32.375V32.3281L161.328 32.1875ZM168.031 32.3281H167.797V32.4688C167.828 32.5312 168.375 32.6875 169.438 32.9375H169.531V32.8438C169.031 32.5 168.531 32.3281 168.031 32.3281ZM170.422 32.7969C171.266 33.0781 172.016 33.2188 172.672 33.2188L172.859 33.0312V32.75L172.719 32.6094H171.688C170.844 32.6094 170.422 32.6719 170.422 32.7969ZM163.906 34.4844V34.8594L164.047 35C164.172 34.9688 164.234 34.8594 164.234 34.6719V34.4844L164.141 34.1562H164.094C163.969 34.1875 163.906 34.2969 163.906 34.4844ZM165.641 35.3281L165.406 35.1406V35.2812L165.594 35.4688H165.641V35.3281ZM164.141 35.4219H164.047L164 35.6562V35.8906L164.047 36.1719H164.234V35.75V35.5156L164.141 35.4219ZM164.234 38.6562H164.094V39.0312L164.234 39.2188H164.328V39.0312L164.234 38.6562ZM161.984 44.6094L162.125 45.9219L162.078 47.5625L162.125 48.0312H162.266C162.453 48.0312 162.547 47.2969 162.547 45.8281V44.75C162.547 43.3125 162.484 42.5938 162.359 42.5938C162.141 42.5938 162.016 43.2656 161.984 44.6094ZM165.031 48.3125H164.938L164.891 48.6406V49.0156C164.891 49.2344 164.953 49.3594 165.078 49.3906H165.172C165.297 49.3594 165.359 49.25 165.359 49.0625C165.328 48.5625 165.219 48.3125 165.031 48.3125ZM165.406 50.3281L165.219 50.8438C165.219 51.5625 165.375 52.0156 165.688 52.2031L165.781 52.0156V51.5938C165.75 50.8125 165.625 50.3906 165.406 50.3281ZM163.578 50.6562H163.438V51.3594L163.531 51.6406H163.578L163.672 51.5469V50.75L163.578 50.6562ZM164.938 53.6094V53.6562V53.9375C164.969 54.0625 165.078 54.1875 165.266 54.3125H165.594V54.2188C165.594 53.875 165.375 53.6719 164.938 53.6094ZM170.141 54.5469H170.328C171.484 54.3594 172.062 54.1562 172.062 53.9375L171.969 53.8438C170.75 54.1562 170.141 54.3906 170.141 54.5469ZM163.766 53.8906H163.672V54.0781C163.766 54.8594 164.109 55.25 164.703 55.25H165.172L165.266 55.1094V55.0625C165.266 55 164.984 54.8906 164.422 54.7344L163.766 53.8906ZM183.031 22.9062L184.625 22.6719C185.719 22.6719 186.578 23.2344 187.203 24.3594L187.531 25.8594C187.469 26.4531 187.125 27.2344 186.5 28.2031C186.094 28.6094 185.469 28.8125 184.625 28.8125C182.656 28.8125 181.438 28.5156 180.969 27.9219C180.5 27.2969 180.281 26.4219 180.312 25.2969C180.188 25.2969 180.125 25.2656 180.125 25.2031V25.1094C181.062 23.6406 182.031 22.9062 183.031 22.9062ZM182.094 24.0781V24.125C183.156 24 183.688 23.8594 183.688 23.7031L183.453 23.6094C182.547 23.7656 182.094 23.9219 182.094 24.0781ZM182.891 25.4375H182.938L183.219 25.4844H183.312C183.656 25.4844 183.875 25.3594 183.969 25.1094L183.922 25.0156H183.359C183.109 25.0156 182.953 25.1562 182.891 25.4375ZM186.266 25.0156L186.125 25.25V25.4375H186.172L186.312 25.25V25.0156H186.266ZM185.141 26.5625V26.7031H185.328C185.547 26.7031 185.719 26.5938 185.844 26.375V26.2344H185.75C185.531 26.2344 185.328 26.3438 185.141 26.5625ZM184.109 27.4062L183.969 27.5469V27.6406H184.812L184.953 27.5469L184.812 27.4062H184.109ZM178.156 31.8594H178.297C178.547 32.0781 178.859 32.1875 179.234 32.1875L179.844 31.9062C184.094 31.9062 186.219 32.0312 186.219 32.2812L186.266 32.6094V33.4062C186.547 34.0312 186.688 34.625 186.688 35.1875V35.9375C186.312 41.0312 186.062 45.1562 185.938 48.3125C185.875 48.5 185.812 48.8281 185.75 49.2969C185.781 49.4219 185.922 49.4844 186.172 49.4844H186.312C188 49.4844 188.844 49.6875 188.844 50.0938L188.797 50.1875V50.4688C189.172 51.2188 189.359 52.4062 189.359 54.0312L189.547 55.9062L189.406 56L187.344 56.0938H182.656C179.156 56.0938 177.406 55.8125 177.406 55.25C177.406 54.9062 177.312 54.5625 177.125 54.2188C177.219 54 177.375 53.8281 177.594 53.7031H177.734C177.859 53.8281 178 53.8906 178.156 53.8906H178.25C179.156 53.8906 180.234 53.8125 181.484 53.6562V53.5625C178.797 53.375 177.453 53.1562 177.453 52.9062L177.406 52.5312V52.0156L177.312 50.7969C177.312 50.4844 178.484 50.3281 180.828 50.3281C181.141 50.3281 181.297 49.625 181.297 48.2188L181.859 35.8906H181.766C180.891 35.8906 180.453 35.8281 180.453 35.7031C180.453 35.6719 180.5 35.625 180.594 35.5625C178.719 35.5625 177.781 35.3438 177.781 34.9062C177.656 34.875 177.594 34.75 177.594 34.5312L177.828 33.9688C177.828 33.8438 177.734 33.6719 177.547 33.4531C177.797 33.2031 177.969 32.7031 178.062 31.9531L178.156 31.8594ZM178.906 32.7969V32.9844H179.141C179.953 32.9844 180.359 32.9219 180.359 32.7969L180.266 32.6094H180.125C179.312 32.6094 178.906 32.6719 178.906 32.7969ZM185.281 32.4688L185.141 32.6094L185.328 32.75H185.422V32.6094L185.281 32.4688ZM179.938 33.4531H179.094V33.5938C179.094 33.7188 179.312 33.7812 179.75 33.7812H180.266H180.406H181.953C182.422 33.7812 182.656 33.7031 182.656 33.5469V33.5C182.656 33.3438 181.75 33.3281 179.938 33.4531ZM184.109 33.5L183.688 33.4531V33.5469C183.906 33.5469 184.172 33.7031 184.484 34.0156H184.578C184.641 34.0156 184.672 33.9688 184.672 33.875H184.766C184.891 33.875 184.969 34.0156 185 34.2969H185.094L185.75 33.8281V33.5469L184.766 33.5H184.109ZM183.922 36.125L184.156 36.8281L183.828 37.6719C183.953 37.9531 184.062 38.0938 184.156 38.0938H184.203L184.297 37.8125V37.5312C184.297 36.4062 184.469 35.8438 184.812 35.8438L184.953 35.6562V35.4688L184.812 35.3281H184.531C184.125 35.3281 183.922 35.5938 183.922 36.125ZM182.469 40.5781L182.328 46.625C182.359 46.8438 182.406 46.9531 182.469 46.9531C182.562 46.9531 182.625 46.8125 182.656 46.5312L182.609 45.8281C182.766 45.6719 182.938 45.0469 183.125 43.9531V43.6719L183.031 43.0156C183.219 42.8594 183.312 42.75 183.312 42.6875C183.188 42.3438 183.125 42 183.125 41.6562V41.5625C183.25 41.5625 183.406 39.8125 183.594 36.3125C183.5 36.0625 183.406 35.9375 183.312 35.9375C182.844 35.9375 182.562 37.4844 182.469 40.5781ZM184.766 36.4531L184.578 36.5V36.7812C184.578 36.9688 184.656 37.1094 184.812 37.2031H184.953L185.094 37.0156V36.7812C185.031 36.625 184.922 36.5156 184.766 36.4531ZM184.531 44.0938H184.297C184.047 45.25 183.922 46.1094 183.922 46.6719H183.969C184.125 46.6719 184.328 46.0312 184.578 44.75V44.4219L184.531 44.0938ZM183.641 48.5V48.8281H183.734C183.891 48.7656 183.969 48.5781 183.969 48.2656V47.9375H183.828C183.766 47.9375 183.703 48.125 183.641 48.5ZM183.734 49.2031L183.594 49.3906V49.625H183.734L183.922 49.4844V49.3438L183.781 49.2031H183.734ZM187.484 50.3281L187.344 50.375C187.531 50.5312 187.875 50.625 188.375 50.6562V50.5156C188.375 50.3906 188.172 50.3281 187.766 50.3281H187.484ZM187.672 52.2969L187.109 52.4375C187.172 52.8125 187.453 53 187.953 53H188.094V52.8594L188 52.7188C188 52.6875 188.125 52.5938 188.375 52.4375V52.2031C188.375 51.9844 188.312 51.8594 188.188 51.8281H188C187.906 51.8594 187.797 52.0156 187.672 52.2969ZM178.719 51.875L178.391 51.9688V52.0156C178.641 52.2656 179.609 52.4062 181.297 52.4375H181.625C181.875 52.4375 182.031 52.3594 182.094 52.2031V52.1094C180.781 51.9531 179.656 51.875 178.719 51.875ZM183.125 52.4375L183.312 52.6719C183.594 52.6719 183.734 52.5156 183.734 52.2031H183.5C183.312 52.2031 183.188 52.2812 183.125 52.4375ZM187.531 53.375L187.391 53.5625V53.6562H187.484L187.625 53.4688V53.375H187.531ZM183.922 53.6562L183.312 53.7031H182.656V53.8906L183.312 53.9375L184.672 53.8438V53.7031H184.484L183.922 53.6562ZM188.703 55.25L188.516 55.3906V55.5312H188.797L188.844 55.3906L188.797 55.25H188.703ZM197.703 34.3906L199.016 34.2969C199.422 36.2656 199.406 37.2812 198.969 37.3438C198.562 37.3438 199.125 39.1406 200.656 42.7344C201.344 44.4531 201.891 45.7031 202.297 46.4844C203.203 48.7031 203.797 49.8125 204.078 49.8125C204.172 49.8125 204.328 50 204.547 50.375L204.594 50.4688H205.109C205.453 50.4688 206.031 49.1094 206.844 46.3906C209.875 40.7031 210.734 37.8438 209.422 37.8125C209.359 37.8125 209.281 37.8281 209.188 37.8594C209.375 36.6094 209.422 35.5469 209.328 34.6719L209.562 34.4844C213.625 34.5781 215.656 34.7344 215.656 34.9531C215.812 34.9531 215.891 35.75 215.891 37.3438C215.672 38.2812 215.391 38.75 215.047 38.75C214.703 38.7188 214.516 38.7188 214.484 38.75C214.453 38.7812 214.531 38.8281 214.719 38.8906H214.391C213.172 40.9531 212.562 42.2969 212.562 42.9219C212.188 44.4531 211.703 45.5156 211.109 46.1094C210.141 48.9219 209.391 50.8594 208.859 51.9219C208.641 52.1719 208.422 52.9844 208.203 54.3594L206.188 57.6406C205.219 59.8281 203.891 61.9219 202.203 63.9219L199.906 65.4688C198.969 65.7188 198.234 65.8438 197.703 65.8438C195.391 65.8438 194.234 65.6094 194.234 65.1406C193.984 64.9844 193.781 64.5469 193.625 63.8281C193.156 63.3594 192.578 61.7188 191.891 58.9062V58.8125C191.891 58.5 192.203 58.3438 192.828 58.3438C193.359 58.3438 194.297 58.0625 195.641 57.5C196.047 57.5 196.609 58.9375 197.328 61.8125C197.547 62.4688 197.719 62.7969 197.844 62.7969H198.219C198.469 62.7031 198.719 62.3281 198.969 61.6719C199.156 61.6719 199.781 60.8594 200.844 59.2344C201.312 58.2344 201.812 57.3125 202.344 56.4688L202.484 55.9062V54.9688C202.453 54.5 202.125 53.7969 201.5 52.8594C200.875 51.7969 200.375 50.7969 200 49.8594C198.531 45.9219 196.859 42.2656 194.984 38.8906C194.859 38.7656 194.719 38.7031 194.562 38.7031L191.703 38.8438L191.562 38.7031L191.469 37.1562L191.375 35.1406L192.219 34.7656L196.859 34.2969L197.703 34.3906ZM210.922 35.6562L210.359 35.5156L211.438 35.9844L212.094 35.8438H212.188L212.984 35.9375V35.8438C212.984 35.7188 212.672 35.625 212.047 35.5625H211.344C211.062 35.5625 210.922 35.5938 210.922 35.6562ZM214.203 35.5156L214.109 35.6094V35.6562C214.172 35.7812 214.266 35.8594 214.391 35.8906L215.234 35.7969V35.6562C215.203 35.5625 215.094 35.5156 214.906 35.5156H214.203ZM192.031 37.3438L191.938 37.3906V37.7656L192.172 37.9531H192.781C193.438 37.9219 193.766 37.8281 193.766 37.6719C193.766 37.5469 193.188 37.4375 192.031 37.3438ZM196.344 37.8594L196.203 37.9531C196.203 38.3281 196.422 38.8125 196.859 39.4062H196.906V38.8906C196.906 38.3594 196.766 38.0156 196.484 37.8594H196.344ZM213.547 37.1562V37.25L213.734 37.4375C214.828 37.1875 215.375 36.9844 215.375 36.8281L215.234 36.6875H215.047C214.141 36.7812 213.641 36.9375 213.547 37.1562ZM212.891 36.9219L212.75 37.0156V37.25C212.844 37.4375 213.031 37.5312 213.312 37.5312L213.359 37.4844V37.25L213.031 36.9219H212.891ZM212.703 38.5156H212.469V38.75H212.703V38.5156ZM212.516 39.875H212.375C211.156 42.25 210.484 43.4844 210.359 43.5781V43.9062C210.359 44.0312 210.5 44.25 210.781 44.5625L210.453 45.5H210.547C210.984 44.8438 211.609 43.2188 212.422 40.625L212.516 39.875ZM205.672 53.0938V53.3281H205.906C206.406 53.3281 207.047 51.8281 207.828 48.8281C207.828 48.7656 207.984 48.5938 208.297 48.3125C208.297 48.0625 208.391 47.8906 208.578 47.7969V47.75L208.438 47.375C208.594 47.0625 208.594 47.0469 208.438 47.3281C208.375 47.4531 208.25 47.6875 208.062 48.0312C207.594 48.875 207.172 49.6406 206.797 50.3281C206.672 50.7656 206.297 51.6875 205.672 53.0938ZM200.609 46.0156H200.562V46.1094C201.219 47.9219 201.609 48.8281 201.734 48.8281H201.781V48.7344C201.188 46.9219 200.797 46.0156 200.609 46.0156ZM208.812 50.1875H208.859C209.359 50.1875 209.766 49 210.078 46.625H210.031C209.906 46.625 209.75 47.0156 209.562 47.7969C209.125 48.8594 208.875 49.6562 208.812 50.1875ZM200.375 47.8906L200.234 48.0312V48.1719L200.375 48.2656L200.562 48.1719V48.125L200.375 47.8906ZM201.781 49.0625L201.641 49.2031V49.2969L201.922 49.5312C202.016 49.5312 202.062 49.4844 202.062 49.3906C202 49.2656 201.922 49.1562 201.828 49.0625H201.781ZM205.203 56.375V56.4688H205.438C205.656 56.4688 206.094 55.6875 206.75 54.125V54.0781C206.312 54.0781 205.797 54.8438 205.203 56.375ZM203.422 54.9219V54.9688H203.469C203.719 54.9688 203.844 54.8594 203.844 54.6406V54.3594H203.656C203.5 54.4219 203.422 54.6094 203.422 54.9219ZM204.781 58.0625L204.406 58.625L204.453 58.7656C204.734 58.5469 204.875 58.3125 204.875 58.0625H204.781ZM194.094 59L193.953 59.1406C194.203 59.4844 194.344 59.7969 194.375 60.0781L194.75 60.4531L194.938 60.4062V60.1719C194.938 59.7031 194.734 59.3125 194.328 59H194.094ZM200.234 62V62.0469C200.547 62.0469 200.859 61.6562 201.172 60.875H201.078C200.703 61.0625 200.422 61.4375 200.234 62ZM195.031 61.2969H194.938V61.4375C194.938 61.7812 195.062 62.0312 195.312 62.1875L195.453 62.0938V62C195.453 61.75 195.312 61.5156 195.031 61.2969ZM201.359 62.9844L200.938 63.5469L201.031 63.6406H201.078C201.922 63.2031 202.422 62.7656 202.578 62.3281C202.453 62.2031 202.328 62.1406 202.203 62.1406H202.016C201.734 62.1406 201.516 62.4219 201.359 62.9844ZM196.297 63.0781H196.016V63.2188L196.203 63.4531H196.625L196.766 63.3594C196.766 63.2031 196.609 63.1094 196.297 63.0781ZM198.547 63.9688L199.391 64.5781H199.578C199.703 64.5469 199.766 64.4219 199.766 64.2031V63.9688C199.734 63.875 199.609 63.8281 199.391 63.8281H198.969C198.688 63.8281 198.547 63.875 198.547 63.9688ZM196.906 64.3906L196.859 64.5312C196.953 64.75 197.156 64.8594 197.469 64.8594H198.125L198.219 64.7188V64.6719C198.219 64.5156 198.031 64.4219 197.656 64.3906H196.906Z" fill="black"/>
    <path d="M60 0H12C5.37258 0 0 5.37258 0 12V60C0 66.6274 5.37258 72 12 72H60C66.6274 72 72 66.6274 72 60V12C72 5.37258 66.6274 0 60 0Z" fill="black"/>
    <path d="M21.2031 7.84436L22.0625 7.60999C26.2292 7.60999 29.8229 8.07874 32.8438 9.01624H34.1719H35.1875L35.3438 9.40686L35.2656 13.9381C35.2135 14.2506 35.0312 14.4069 34.7188 14.4069L33.7812 13.4694L31.6719 13.0006H30.9688L30.5 13.1569V13.4694C31.2292 13.7819 31.6979 13.9381 31.9062 13.9381V14.0944C31.9062 14.3027 31.3073 14.4589 30.1094 14.5631L29.6406 29.7975V31.4381L29.5625 52.3756V53.6256C29.5625 54.0944 31.0208 54.3287 33.9375 54.3287H48.9375L51.4375 54.485C51.75 54.485 52.0104 53.0527 52.2188 50.1881C52.375 49.4589 52.6094 49.0944 52.9219 49.0944C55.9948 49.1985 57.5312 49.485 57.5312 49.9537C57.3229 50.4225 57.0104 50.6569 56.5938 50.6569V50.8912C57.1146 51.4121 57.375 51.8548 57.375 52.2194C57.375 53.4173 57.1927 55.0058 56.8281 56.985V58.1569L56.9062 58.5475C56.5938 59.1204 56.4375 59.6412 56.4375 60.11C56.3333 60.11 56.125 60.4485 55.8125 61.1256C54.6667 61.5423 53.5469 61.7506 52.4531 61.7506H52.1406L45.4219 61.1256H45.0312L29.6406 61.7506L18.9375 60.735C18.5208 60.4225 18.3125 60.0839 18.3125 59.7194C18.7292 56.6464 19.3802 55.11 20.2656 55.11C20.526 54.8496 21.5417 54.6412 23.3125 54.485C23.9896 52.8183 24.0156 45.2662 23.3906 31.8287C23.7031 28.1829 23.9635 22.7662 24.1719 15.5787V14.7975C24.1719 14.0162 23.625 13.6256 22.5312 13.6256L21.8281 13.4694V13.235C22.7656 12.7662 23.4948 12.5319 24.0156 12.5319V12.2194L22.2188 11.985H21.125V12.2975C21.3333 12.2975 21.4375 12.3756 21.4375 12.5319C21.2812 12.7923 21.0469 12.9225 20.7344 12.9225H20.4219C19.901 12.7142 19.6406 12.1152 19.6406 11.1256V10.8912C19.6406 9.69332 19.9792 8.93811 20.6562 8.62561C20.8125 8.62561 20.9948 8.36519 21.2031 7.84436ZM21.8281 10.2662L21.5938 10.4225V10.5787H21.9844L22.2188 10.3444V10.2662H21.8281ZM32.2188 10.3444L31.9062 10.5787V10.735L32.4531 10.8912V10.9694L32.2188 11.1256L30.6562 11.0475L30.5781 11.1256V11.5162L30.8125 11.7506H32.375C33.2083 11.7506 33.625 11.4642 33.625 10.8912C33.2604 10.5267 32.8698 10.3444 32.4531 10.3444H32.2188ZM26.4375 10.8912C26.6458 11.2558 27.2188 11.4381 28.1562 11.4381H28.7031L29.0938 11.0475C28.625 10.735 28.1562 10.5787 27.6875 10.5787H27.0625C26.6458 10.5787 26.4375 10.6829 26.4375 10.8912ZM28.2344 12.2975L27.8438 12.4537V12.5319L28 12.8444H28.5469L29.0156 12.6881V12.4537L28.5469 12.2975H28.2344ZM27.9219 13.9381L27.8438 14.0944V15.1881C27.8958 15.8652 28.026 16.2037 28.2344 16.2037L28.7031 15.8912V15.3444C28.651 14.4069 28.3906 13.9381 27.9219 13.9381ZM27.375 29.4069H27.1406C26.724 31.5944 26.6979 33.0267 27.0625 33.7037C27.3229 34.1725 27.5052 34.0162 27.6094 33.235L27.6875 30.6569C27.6354 29.8235 27.5312 29.4069 27.375 29.4069ZM56.0469 52.0631H55.8906C55.474 53.1569 55.2656 53.7819 55.2656 53.9381L54.6406 57.2194V57.5319L54.875 57.7662H55.1094C55.7865 57.4537 56.1771 55.9694 56.2812 53.3131C56.2292 52.4798 56.151 52.0631 56.0469 52.0631ZM27.0625 52.3756H26.6719V52.61C26.4115 53.3912 26.2812 53.9642 26.2812 54.3287C26.2812 55.0579 26.4635 55.5006 26.8281 55.6569H27.1406C27.349 55.6569 27.4531 54.9017 27.4531 53.3912V53.0787C27.4531 52.7142 27.3229 52.4798 27.0625 52.3756ZM48.5469 55.0319H47.7656V55.2662C47.7656 55.4225 48.1042 55.5267 48.7812 55.5787C48.7812 55.9954 49.25 56.2298 50.1875 56.2819L51.6719 56.1256V55.8131C50.6823 55.8131 49.6406 55.5527 48.5469 55.0319ZM46.3594 55.8131H44.3281V55.8912C44.3802 56.0475 44.6406 56.1256 45.1094 56.1256H46.8281V55.8912L46.3594 55.8131ZM19.7969 56.985C20.2135 56.985 20.4219 56.8027 20.4219 56.4381V56.2819H20.2656C19.9531 56.3339 19.7969 56.5683 19.7969 56.985ZM27.5312 56.8287H27.1406V57.2194C28.0781 57.3756 32.7656 57.6621 41.2031 58.0787L41.3594 58.0006V57.8444L27.5312 56.8287ZM19.9531 57.5319L19.4844 57.61V57.8444L19.7188 58.0787H19.9531L20.1875 57.8444V57.7662L19.9531 57.5319ZM45.7344 58.235L45.5781 58.3912V58.5475L46.2812 58.7037H47.375V58.5475C47.375 58.3392 47.1927 58.235 46.8281 58.235H45.7344ZM49.0938 59.2506V59.3287H49.3281C49.849 59.3287 50.3698 59.1204 50.8906 58.7037C50.8385 58.4954 50.6302 58.3912 50.2656 58.3912C50.0573 58.3912 49.6667 58.6777 49.0938 59.2506ZM51.3594 59.5631L50.1875 59.6412V59.7194C50.6042 60.136 51.125 60.3444 51.75 60.3444H51.9844C52.2448 60.3444 52.4792 60.2402 52.6875 60.0319C52.9479 60.2402 53.2344 60.3444 53.5469 60.3444H54.1719C54.7448 60.3444 55.0573 60.2402 55.1094 60.0319V59.9537C55.1094 59.6933 54.3021 59.5631 52.6875 59.5631H51.3594ZM30.0312 60.2662L28.3125 60.3444V60.5006C28.3125 60.8652 29.5365 61.0996 31.9844 61.2037C33.599 61.2037 34.9271 61.0475 35.9688 60.735V60.5006C33.7812 60.3444 31.8281 60.2662 30.1094 60.2662H30.0312ZM26.75 60.5006H26.5938V60.735H26.75V60.5006ZM38.9375 60.5006L38.4688 60.6569V60.9694H38.9375L39.875 60.735V60.5006H38.9375Z" fill="white"/>
</svg>
