<svg width="26" height="26" viewBox="0 0 26 26" fill="none" xmlns="http://www.w3.org/2000/svg">
<path fill-rule="evenodd" clip-rule="evenodd" d="M2.16675 13C2.16675 18.983 7.017 23.8333 13.0001 23.8333C18.9832 23.8333 23.8334 18.983 23.8334 13C23.8334 7.01687 18.9832 2.16663 13.0001 2.16663C7.017 2.16663 2.16675 7.01687 2.16675 13ZM4.33341 13C4.33341 8.21349 8.21361 4.33329 13.0001 4.33329C17.7865 4.33329 21.6667 8.21349 21.6667 13C21.6667 17.7864 17.7865 21.6666 13.0001 21.6666C8.21361 21.6666 4.33341 17.7864 4.33341 13ZM18.132 10.482C18.5363 10.0409 18.5065 9.35567 18.0654 8.95138C17.6244 8.54708 16.9391 8.57688 16.5348 9.01792L11.4139 14.6044L9.49899 12.3064C9.11596 11.8468 8.43285 11.7847 7.97321 12.1677C7.51358 12.5507 7.45148 13.2339 7.83451 13.6935L10.5428 16.9435C10.7429 17.1836 11.037 17.3256 11.3495 17.333C11.662 17.3404 11.9624 17.2124 12.1737 16.982L18.132 10.482Z" fill="#5A61F0"/>
</svg>
